InterKhmerLooped-Italic.glyphspackage
{
category = Letter;
glyphname = "ka-khmer";
layers = (
{
anchors = (
{
name = bottom;
pos = (527,0);
},
{
name = bottomright;
pos = (913,0);
},
{
name = top;
pos = (731,1234);
},
{
name = topright;
pos = (1118,1234);
}
);
layerId = "200BE2C5-40F6-4CF4-AF4F-A33C0CC0964F";
shapes = (
{
closed = 1;
nodes = (
(140,0,l),
(187,0,l),
(283,582,ls),
(316,781,o),
(472,908,o),
(685,908,cs),
(893,908,o),
(996,787,o),
(963,582,cs),
(867,0,l),
(913,0,l),
(1009,582,ls),
(1047,811,o),
(921,955,o),
(685,955,cs),
(448,955,o),
(274,811,o),
(236,582,cs)
);
},
{
closed = 1;
nodes = (
(1117,1187,l),
(1125,1234,l),
(338,1234,l),
(330,1187,l)
);
}
);
width = 1238;
},
{
anchors = (
{
name = bottom;
pos = (565,0);
},
{
name = bottomright;
pos = (1009,0);
},
{
name = top;
pos = (770,1234);
},
{
name = topright;
pos = (1214,1234);
}
);
layerId = "11F4534A-B963-4AB5-820F-DAF9A20CD933";
shapes = (
{
closed = 1;
nodes = (
(122,0,l),
(289,0,l),
(373,505,ls),
(399,664,o),
(531,768,o),
(699,768,cs),
(862,768,o),
(952,661,o),
(926,505,cs),
(842,0,l),
(1009,0,l),
(1094,514,ls),
(1134,755,o),
(982,920,o),
(717,920,cs),
(450,920,o),
(247,758,o),
(207,514,cs)
);
},
{
closed = 1;
nodes = (
(1195,1077,l),
(1221,1234,l),
(319,1234,l),
(293,1077,l)
);
}
);
width = 1316;
},
{
anchors = (
{
name = bottom;
pos = (584,0);
},
{
name = bottomright;
pos = (1120,0);
},
{
name = top;
pos = (789,1234);
},
{
name = topright;
pos = (1324,1234);
}
);
layerId = "D0EC06BF-13F9-4C88-A6F5-B8203AF6C77E";
shapes = (
{
closed = 1;
nodes = (
(49,0,l),
(443,0,l),
(509,400,ls),
(523,484,o),
(586,540,o),
(673,540,cs),
(760,540,o),
(805,484,o),
(792,400,cs),
(725,0,l),
(1120,0,l),
(1189,417,ls),
(1232,675,o),
(1073,834,o),
(722,834,cs),
(372,834,o),
(161,675,o),
(118,417,cs)
);
},
{
closed = 1;
nodes = (
(1276,895,l),
(1332,1234,l),
(246,1234,l),
(190,895,l)
);
}
);
width = 1353;
}
);
script = khmer;
subCategory = Other;
unicode = 6016;
}
{
category = Letter;
glyphname = "kha-khmer";
kernLeft = KH_KHA;
layers = (
{
anchors = (
{
name = bottom;
pos = (474,0);
},
{
name = bottomright;
pos = (821,0);
},
{
name = top;
pos = (693,1234);
},
{
name = topright;
pos = (1040,1234);
}
);
layerId = "200BE2C5-40F6-4CF4-AF4F-A33C0CC0964F";
shapes = (
{
closed = 1;
nodes = (
(651,-15,o),
(873,143,o),
(938,426,c),
(891,426,l),
(832,167,o),
(621,32,o),
(421,32,cs),
(224,32,o),
(150,143,o),
(174,295,cs),
(182,346,l),
(694,553,o),
(970,672,o),
(1011,923,cs),
(1046,1134,o),
(910,1249,o),
(703,1249,cs),
(507,1249,o),
(326,1146,o),
(238,960,c),
(280,947,l),
(362,1119,o),
(534,1202,o),
(703,1202,cs),
(886,1202,o),
(995,1107,o),
(964,923,cs),
(927,697,o),
(672,592,o),
(140,374,c),
(127,295,ls),
(99,116,o),
(198,-15,o),
(421,-15,cs)
);
}
);
width = 1146;
},
{
anchors = (
{
name = bottom;
pos = (552,0);
},
{
name = bottomright;
pos = (947,0);
},
{
name = top;
pos = (763,1234);
},
{
name = topright;
pos = (1169,1234);
}
);
layerId = "11F4534A-B963-4AB5-820F-DAF9A20CD933";
shapes = (
{
closed = 1;
nodes = (
(782,-13,o),
(986,132,o),
(1062,378,c),
(895,378,l),
(842,223,o),
(704,130,o),
(523,130,cs),
(364,130,o),
(282,216,o),
(303,343,cs),
(308,369,l),
(848,533,o),
(1092,635,o),
(1132,877,cs),
(1171,1112,o),
(1012,1249,o),
(761,1249,cs),
(531,1249,o),
(286,1120,o),
(226,877,c),
(391,855,l),
(433,1014,o),
(585,1106,o),
(745,1106,cs),
(899,1106,o),
(987,1021,o),
(965,885,cs),
(933,692,o),
(695,618,o),
(157,469,c),
(137,346,ls),
(100,122,o),
(247,-13,o),
(502,-13,cs)
);
}
);
width = 1273;
},
{
anchors = (
{
name = bottom;
pos = (545,0);
},
{
name = bottomright;
pos = (1075,0);
},
{
name = top;
pos = (787,1234);
},
{
name = topright;
pos = (1310,1234);
}
);
background = {
anchors = (
{
name = bottom;
pos = (545,0);
},
{
name = bottomright;
pos = (1075,0);
},
{
name = top;
pos = (787,1234);
},
{
name = topright;
pos = (1310,1234);
}
);
shapes = (
{
closed = 1;
nodes = (
(920,-15,o),
(1143,119,o),
(1185,386,c),
(789,386,l),
(776,305,o),
(670,275,o),
(589,275,cs),
(503,275,o),
(469,309,o),
(477,353,cs),
(483,392,l),
(998,539,o),
(1212,597,o),
(1254,854,cs),
(1292,1083,o),
(1151,1249,o),
(787,1249,cs),
(436,1249,o),
(226,1096,o),
(160,812,c),
(554,812,l),
(591,904,o),
(655,955,o),
(743,955,cs),
(824,955,o),
(861,913,o),
(849,844,cs),
(831,731,o),
(709,682,o),
(116,544,c),
(81,333,ls),
(42,99,o),
(226,-15,o),
(559,-15,cs)
);
}
);
};
layerId = "D0EC06BF-13F9-4C88-A6F5-B8203AF6C77E";
shapes = (
{
closed = 1;
nodes = (
(908,-15,o),
(1139,119,o),
(1185,386,c),
(789,386,l),
(774,305,o),
(679,275,o),
(597,275,cs),
(509,275,o),
(469,309,o),
(477,353,cs),
(483,392,l),
(998,539,o),
(1212,608,o),
(1254,854,cs),
(1292,1088,o),
(1153,1249,o),
(792,1249,cs),
(439,1249,o),
(227,1096,o),
(160,812,c),
(554,812,l),
(591,904,o),
(655,955,o),
(743,955,cs),
(824,955,o),
(861,913,o),
(849,844,cs),
(830,731,o),
(709,682,o),
(116,544,c),
(81,333,ls),
(42,99,o),
(215,-15,o),
(547,-15,cs)
);
}
);
width = 1304;
}
);
script = khmer;
subCategory = Other;
unicode = 6017;
}
{
category = Letter;
glyphname = "ko-khmer";
layers = (
{
anchors = (
{
name = bottom;
pos = (527,0);
},
{
name = bottomright;
pos = (913,0);
},
{
name = top;
pos = (731,1234);
},
{
name = topright;
pos = (1118,1234);
}
);
layerId = "200BE2C5-40F6-4CF4-AF4F-A33C0CC0964F";
shapes = (
{
closed = 1;
nodes = (
(140,0,l),
(187,0,l),
(210,139,ls),
(238,305,o),
(332,393,o),
(448,393,cs),
(489,393,o),
(521,382,o),
(552,368,c),
(560,416,l),
(531,429,o),
(496,437,o),
(461,437,cs),
(382,437,o),
(301,405,o),
(244,319,c),
(239,319,l),
(283,582,ls),
(317,783,o),
(473,908,o),
(685,908,cs),
(899,908,o),
(995,780,o),
(963,582,cs),
(867,0,l),
(913,0,l),
(1009,582,ls),
(1047,811,o),
(920,955,o),
(685,955,cs),
(448,955,o),
(274,811,o),
(236,582,cs)
);
},
{
closed = 1;
nodes = (
(1117,1187,l),
(1125,1234,l),
(338,1234,l),
(330,1187,l)
);
}
);
width = 1238;
},
{
anchors = (
{
name = bottom;
pos = (565,0);
},
{
name = bottomright;
pos = (1009,0);
},
{
name = top;
pos = (770,1234);
},
{
name = topright;
pos = (1214,1234);
}
);
layerId = "11F4534A-B963-4AB5-820F-DAF9A20CD933";
shapes = (
{
closed = 1;
nodes = (
(122,0,l),
(289,0,l),
(307,109,ls),
(326,222,o),
(415,312,o),
(540,312,cs),
(581,312,o),
(614,303,o),
(645,290,c),
(669,437,l),
(640,448,o),
(605,455,o),
(569,455,cs),
(489,455,o),
(408,421,o),
(351,329,c),
(343,329,l),
(373,505,ls),
(399,669,o),
(542,768,o),
(700,768,cs),
(868,768,o),
(950,656,o),
(926,505,cs),
(842,0,l),
(1009,0,l),
(1094,514,ls),
(1134,755,o),
(982,920,o),
(717,920,cs),
(454,920,o),
(247,755,o),
(207,514,cs)
);
},
{
closed = 1;
nodes = (
(1195,1077,l),
(1221,1234,l),
(319,1234,l),
(293,1077,l)
);
}
);
width = 1316;
},
{
anchors = (
{
name = bottom;
pos = (584,0);
},
{
name = bottomright;
pos = (1120,0);
},
{
name = top;
pos = (789,1234);
},
{
name = topright;
pos = (1324,1234);
}
);
layerId = "D0EC06BF-13F9-4C88-A6F5-B8203AF6C77E";
shapes = (
{
closed = 1;
nodes = (
(49,0,l),
(443,0,l),
(447,26,ls),
(461,112,o),
(525,162,o),
(610,162,cs),
(639,162,o),
(659,156,o),
(681,149,c),
(721,391,l),
(703,396,o),
(683,399,o),
(661,399,cs),
(602,399,o),
(552,378,o),
(503,306,c),
(494,306,l),
(509,400,ls),
(523,484,o),
(586,540,o),
(673,540,cs),
(760,540,o),
(805,484,o),
(792,400,cs),
(725,0,l),
(1120,0,l),
(1189,417,ls),
(1231,675,o),
(1073,834,o),
(722,834,cs),
(372,834,o),
(161,675,o),
(118,417,cs)
);
},
{
closed = 1;
nodes = (
(1276,895,l),
(1332,1234,l),
(246,1234,l),
(190,895,l)
);
}
);
width = 1353;
}
);
script = khmer;
subCategory = Other;
unicode = 6018;
}
{
category = Letter;
glyphname = "kho-khmer";
layers = (
{
anchors = (
{
name = bottom;
pos = (1187,0);
},
{
name = bottomright;
pos = (1537,0);
},
{
name = top;
pos = (1391,1234);
},
{
name = topright;
pos = (1756,1234);
}
);
layerId = "200BE2C5-40F6-4CF4-AF4F-A33C0CC0964F";
shapes = (
{
closed = 1;
nodes = (
(682,-15,o),
(831,88,o),
(891,245,c),
(885,247,l),
(891,89,o),
(1004,-15,o),
(1186,-15,cs),
(1397,-15,o),
(1572,122,o),
(1606,329,cs),
(1700,896,ls),
(1703,917,o),
(1695,926,o),
(1680,931,cs),
(1542,984,l),
(1552,963,l),
(1567,1047,ls),
(1584,1150,o),
(1650,1187,o),
(1735,1187,cs),
(1809,1187,l),
(1817,1234,l),
(1735,1234,ls),
(1621,1234,o),
(1545,1180,o),
(1523,1047,cs),
(1507,952,l),
(1653,896,l),
(1559,329,ls),
(1530,153,o),
(1376,32,o),
(1184,32,cs),
(992,32,o),
(894,153,o),
(923,329,cs),
(1017,896,ls),
(1021,917,o),
(1014,926,o),
(998,931,cs),
(859,984,l),
(870,963,l),
(884,1047,ls),
(902,1150,o),
(968,1187,o),
(1052,1187,cs),
(1126,1187,l),
(1134,1234,l),
(1052,1234,ls),
(939,1234,o),
(863,1180,o),
(840,1047,cs),
(824,952,l),
(971,896,l),
(877,329,ls),
(848,153,o),
(693,32,o),
(501,32,cs),
(309,32,o),
(212,153,o),
(241,329,cs),
(391,1234,l),
(328,1234,ls),
(223,1234,o),
(146,1165,o),
(128,1054,cs),
(108,930,o),
(162,860,o),
(259,860,cs),
(313,860,l),
(286,884,l),
(194,329,ls),
(161,124,o),
(285,-15,o),
(501,-15,cs)
);
},
{
closed = 1;
nodes = (
(188,901,o),
(154,958,o),
(170,1047,cs),
(184,1137,o),
(242,1193,o),
(322,1193,cs),
(338,1193,l),
(289,901,l),
(259,901,ls)
);
}
);
width = 1877;
},
{
anchors = (
{
name = bottom;
pos = (1257,0);
},
{
name = bottomright;
pos = (1671,0);
},
{
name = top;
pos = (1462,1234);
},
{
name = topright;
pos = (1890,1234);
}
);
layerId = "11F4534A-B963-4AB5-820F-DAF9A20CD933";
shapes = (
{
closed = 1;
nodes = (
(745,-15,o),
(891,69,o),
(972,204,c),
(929,204,l),
(963,71,o),
(1080,-15,o),
(1265,-15,cs),
(1520,-15,o),
(1710,144,o),
(1748,377,cs),
(1822,821,ls),
(1829,864,o),
(1818,880,o),
(1778,899,cs),
(1675,947,l),
(1679,887,l),
(1692,970,ls),
(1704,1043,o),
(1740,1077,o),
(1818,1077,cs),
(1905,1077,l),
(1931,1234,l),
(1840,1234,ls),
(1672,1234,o),
(1579,1156,o),
(1549,977,cs),
(1530,862,l),
(1652,807,l),
(1583,386,ls),
(1558,238,o),
(1440,134,o),
(1273,134,cs),
(1116,134,o),
(1041,238,o),
(1066,386,cs),
(1138,821,ls),
(1145,864,o),
(1134,880,o),
(1094,899,cs),
(991,947,l),
(995,887,l),
(1008,970,ls),
(1020,1043,o),
(1056,1077,o),
(1134,1077,cs),
(1221,1077,l),
(1247,1234,l),
(1156,1234,ls),
(988,1234,o),
(895,1156,o),
(865,977,cs),
(846,862,l),
(968,807,l),
(899,386,ls),
(874,238,o),
(753,134,o),
(582,134,cs),
(421,134,o),
(343,238,o),
(367,386,cs),
(508,1234,l),
(361,1234,ls),
(220,1234,o),
(139,1153,o),
(121,1043,cs),
(97,898,o),
(160,821,o),
(285,821,cs),
(335,821,l),
(283,888,l),
(199,377,ls),
(160,144,o),
(301,-15,o),
(560,-15,cs)
);
},
{
closed = 1;
nodes = (
(238,924,o),
(226,975,o),
(235,1028,cs),
(245,1091,o),
(285,1123,o),
(335,1123,cs),
(346,1123,l),
(312,924,l),
(306,924,ls)
);
}
);
width = 1992;
},
{
anchors = (
{
name = bottom;
pos = (1261,0);
},
{
name = bottomright;
pos = (1759,0);
},
{
name = top;
pos = (1465,1234);
},
{
name = topright;
pos = (1993,1234);
}
);
layerId = "D0EC06BF-13F9-4C88-A6F5-B8203AF6C77E";
shapes = (
{
closed = 1;
nodes = (
(771,-15,o),
(907,49,o),
(1036,196,c),
(884,196,l),
(956,53,o),
(1073,-15,o),
(1279,-15,cs),
(1594,-15,o),
(1812,143,o),
(1855,403,cs),
(1902,685,ls),
(1914,755,o),
(1881,771,o),
(1832,789,cs),
(1677,843,l),
(1708,736,l),
(1725,838,ls),
(1731,876,o),
(1755,895,o),
(1794,895,cs),
(1981,895,l),
(2037,1234,l),
(1826,1234,ls),
(1556,1234,o),
(1477,1082,o),
(1448,907,cs),
(1420,734,l),
(1508,690,l),
(1463,419,ls),
(1449,335,o),
(1387,279,o),
(1305,279,cs),
(1225,279,o),
(1181,334,o),
(1195,419,cs),
(1239,685,ls),
(1250,750,o),
(1224,770,o),
(1169,789,cs),
(1014,843,l),
(1045,736,l),
(1062,838,ls),
(1068,876,o),
(1092,895,o),
(1131,895,cs),
(1318,895,l),
(1374,1234,l),
(1163,1234,ls),
(894,1234,o),
(814,1082,o),
(785,907,cs),
(757,734,l),
(846,690,l),
(800,419,ls),
(787,335,o),
(723,279,o),
(641,279,cs),
(560,279,o),
(517,333,o),
(530,419,cs),
(666,1234,l),
(376,1234,ls),
(226,1234,o),
(138,1163,o),
(119,1049,cs),
(95,907,o),
(158,835,o),
(279,835,cs),
(301,835,l),
(215,891,l),
(134,403,ls),
(90,143,o),
(255,-15,o),
(570,-15,cs)
);
},
{
closed = 1;
nodes = (
(285,963,o),
(276,997,o),
(282,1033,cs),
(290,1077,o),
(318,1101,o),
(348,1101,cs),
(362,1101,l),
(339,963,l),
(327,963,ls)
);
}
);
width = 2022;
}
);
script = khmer;
subCategory = Other;
unicode = 6019;
}
{
category = Letter;
glyphname = "ngo-khmer";
layers = (
{
anchors = (
{
name = bottom;
pos = (527,0);
},
{
name = bottomright;
pos = (913,0);
},
{
name = top;
pos = (731,1234);
},
{
name = topright;
pos = (1103,1234);
}
);
layerId = "200BE2C5-40F6-4CF4-AF4F-A33C0CC0964F";
shapes = (
{
closed = 1;
nodes = (
(190,0,l),
(593,375,l),
(872,0,l),
(913,0,l),
(1042,779,ls),
(1059,883,o),
(1001,949,o),
(888,971,c),
(859,943,l),
(955,926,o),
(1011,877,o),
(995,779,cs),
(878,72,l),
(875,72,l),
(612,426,l),
(583,426,l),
(202,72,l),
(199,72,l),
(285,589,ls),
(296,658,o),
(263,699,o),
(188,699,cs),
(114,699,l),
(106,655,l),
(180,655,ls),
(230,655,o),
(244,629,o),
(237,586,cs),
(140,0,l)
);
},
{
closed = 1;
nodes = (
(707,865,o),
(800,912,o),
(859,943,c),
(941,947,o),
(1016,1012,o),
(1030,1091,cs),
(1043,1174,o),
(990,1240,o),
(907,1240,cs),
(825,1240,o),
(749,1174,o),
(736,1091,cs),
(723,1015,o),
(771,953,o),
(843,950,c),
(827,977,l),
(775,944,o),
(690,910,o),
(583,910,cs),
(411,910,o),
(330,1001,o),
(362,1189,cs),
(392,1374,l),
(346,1374,l),
(315,1189,ls),
(279,974,o),
(389,865,o),
(580,865,cs)
);
},
{
closed = 1;
nodes = (
(932,950,l),
(936,972,l),
(911,972,l),
(907,950,l)
);
},
{
closed = 1;
nodes = (
(807,987,o),
(770,1033,o),
(779,1091,cs),
(789,1147,o),
(840,1196,o),
(900,1196,cs),
(960,1196,o),
(996,1149,o),
(986,1091,cs),
(975,1030,o),
(921,987,o),
(865,987,cs)
);
}
);
width = 1215;
},
{
anchors = (
{
name = bottom;
pos = (544,0);
},
{
name = bottomright;
pos = (988,0);
},
{
name = top;
pos = (749,1234);
},
{
name = topright;
pos = (1171,1234);
}
);
layerId = "11F4534A-B963-4AB5-820F-DAF9A20CD933";
shapes = (
{
closed = 1;
nodes = (
(274,0,l),
(599,285,l),
(829,0,l),
(988,0,l),
(1102,691,ls),
(1126,832,o),
(1034,908,o),
(930,932,c),
(834,860,l),
(897,841,o),
(954,803,o),
(937,703,cs),
(855,207,l),
(846,207,l),
(652,438,l),
(582,438,l),
(311,207,l),
(302,207,l),
(358,544,ls),
(372,628,o),
(337,675,o),
(240,675,cs),
(112,675,l),
(89,538,l),
(145,538,ls),
(178,538,o),
(186,520,o),
(182,493,cs),
(100,0,l)
);
},
{
closed = 1;
nodes = (
(696,777,o),
(798,824,o),
(894,884,c),
(975,885,o),
(1076,955,o),
(1094,1065,cs),
(1112,1166,o),
(1048,1249,o),
(934,1249,cs),
(824,1249,o),
(731,1171,o),
(713,1065,cs),
(697,968,o),
(758,905,o),
(834,885,c),
(824,964,l),
(768,935,o),
(699,907,o),
(610,907,cs),
(475,907,o),
(411,990,o),
(434,1129,cs),
(475,1374,l),
(308,1374,l),
(267,1129,ls),
(230,906,o),
(338,777,o),
(562,777,cs)
);
},
{
closed = 1;
nodes = (
(992,891,l),
(999,933,l),
(970,933,l),
(963,891,l)
);
},
{
closed = 1;
nodes = (
(851,989,o),
(824,1023,o),
(830,1065,cs),
(837,1107,o),
(875,1142,o),
(917,1142,cs),
(958,1142,o),
(984,1107,o),
(977,1065,cs),
(969,1020,o),
(930,989,o),
(891,989,cs)
);
}
);
width = 1273;
},
{
anchors = (
{
name = bottom;
pos = (598,0);
},
{
name = bottomright;
pos = (1134,0);
},
{
name = top;
pos = (803,1234);
},
{
name = topright;
pos = (1338,1234);
}
);
layerId = "D0EC06BF-13F9-4C88-A6F5-B8203AF6C77E";
shapes = (
{
closed = 1;
nodes = (
(461,0,l),
(637,192,l),
(749,0,l),
(1134,0,l),
(1236,620,ls),
(1260,762,o),
(1176,846,o),
(1053,884,c),
(837,799,l),
(852,771,o),
(863,746,o),
(857,712,cs),
(799,359,l),
(790,359,l),
(709,490,l),
(645,490,l),
(522,359,l),
(513,359,l),
(537,507,ls),
(554,616,o),
(511,675,o),
(383,675,cs),
(85,675,l),
(46,438,l),
(104,438,ls),
(124,438,o),
(134,427,o),
(130,407,cs),
(63,0,l)
);
},
{
closed = 1;
nodes = (
(660,749,o),
(743,755,o),
(862,785,c),
(1033,785,o),
(1215,885,o),
(1240,1033,cs),
(1262,1166,o),
(1186,1249,o),
(1028,1249,cs),
(879,1249,o),
(777,1173,o),
(757,1054,cs),
(739,942,o),
(805,872,o),
(915,860,c),
(912,981,l),
(844,970,o),
(752,960,o),
(711,960,cs),
(605,960,o),
(589,1022,o),
(603,1107,cs),
(641,1336,l),
(262,1336,l),
(223,1099,ls),
(183,858,o),
(323,749,o),
(597,749,cs)
);
},
{
closed = 1;
nodes = (
(1114,823,l),
(1126,898,l),
(1090,898,l),
(1078,823,l)
);
},
{
closed = 1;
nodes = (
(961,1006,o),
(944,1024,o),
(950,1052,cs),
(954,1081,o),
(977,1099,o),
(1003,1099,cs),
(1030,1099,o),
(1045,1081,o),
(1041,1052,cs),
(1035,1024,o),
(1014,1006,o),
(988,1006,cs)
);
}
);
width = 1353;
}
);
script = khmer;
subCategory = Other;
unicode = 6020;
}
{
category = Letter;
glyphname = "ca-khmer";
kernLeft = KH_CA;
layers = (
{
anchors = (
{
name = bottom;
pos = (526,0);
},
{
name = bottomright;
pos = (898,0);
},
{
name = top;
pos = (731,1234);
},
{
name = topright;
pos = (1117,1234);
}
);
layerId = "200BE2C5-40F6-4CF4-AF4F-A33C0CC0964F";
shapes = (
{
closed = 1;
nodes = (
(755,-15,o),
(933,127,o),
(968,335,cs),
(1071,955,l),
(998,955,ls),
(875,955,o),
(796,882,o),
(779,773,cs),
(760,659,o),
(816,581,o),
(939,581,cs),
(992,581,l),
(967,612,l),
(922,338,ls),
(892,157,o),
(734,32,o),
(526,32,cs),
(324,32,o),
(212,154,o),
(242,335,cs),
(338,914,ls),
(341,934,o),
(331,944,o),
(317,950,cs),
(215,984,l),
(226,963,l),
(238,1038,ls),
(255,1146,o),
(324,1187,o),
(416,1187,cs),
(1109,1187,l),
(1117,1234,l),
(421,1234,ls),
(299,1234,o),
(217,1179,o),
(194,1041,cs),
(180,952,l),
(291,914,l),
(196,338,ls),
(162,130,o),
(295,-15,o),
(526,-15,cs)
);
},
{
closed = 1;
nodes = (
(851,621,o),
(804,677,o),
(820,768,cs),
(834,849,o),
(894,914,o),
(994,914,cs),
(1017,914,l),
(969,621,l),
(940,621,ls)
);
}
);
width = 1238;
},
{
anchors = (
{
name = bottom;
pos = (565,0);
},
{
name = bottomright;
pos = (995,0);
},
{
name = top;
pos = (770,1234);
},
{
name = topright;
pos = (1214,1234);
}
);
layerId = "11F4534A-B963-4AB5-820F-DAF9A20CD933";
shapes = (
{
closed = 1;
nodes = (
(836,-15,o),
(1033,144,o),
(1072,377,cs),
(1161,920,l),
(975,920,ls),
(829,920,o),
(744,837,o),
(725,724,cs),
(702,582,o),
(768,506,o),
(899,506,cs),
(953,506,l),
(935,562,l),
(906,386,ls),
(880,235,o),
(755,127,o),
(576,127,cs),
(409,127,o),
(327,234,o),
(353,386,cs),
(423,813,ls),
(431,856,o),
(418,871,o),
(380,891,cs),
(270,950,l),
(296,887,l),
(311,974,ls),
(322,1044,o),
(360,1077,o),
(432,1077,cs),
(1195,1077,l),
(1221,1234,l),
(461,1234,ls),
(291,1234,o),
(196,1156,o),
(167,977,cs),
(148,862,l),
(254,801,l),
(184,377,ls),
(146,144,o),
(290,-15,o),
(563,-15,cs)
);
},
{
closed = 1;
nodes = (
(867,610,o),
(838,647,o),
(848,709,cs),
(859,772,o),
(899,809,o),
(955,809,cs),
(980,809,l),
(947,610,l),
(926,610,ls)
);
}
);
width = 1316;
},
{
anchors = (
{
name = bottom;
pos = (584,0);
},
{
name = bottomright;
pos = (1105,0);
},
{
name = top;
pos = (788,1234);
},
{
name = topright;
pos = (1324,1234);
}
);
layerId = "D0EC06BF-13F9-4C88-A6F5-B8203AF6C77E";
shapes = (
{
closed = 1;
nodes = (
(918,-15,o),
(1142,142,o),
(1187,407,cs),
(1254,819,l),
(906,819,ls),
(760,819,o),
(677,757,o),
(656,626,cs),
(634,492,o),
(696,405,o),
(821,405,cs),
(828,405,l),
(803,461,l),
(795,416,ls),
(781,335,o),
(712,278,o),
(629,278,cs),
(546,278,o),
(498,335,o),
(512,416,cs),
(556,685,ls),
(567,750,o),
(538,771,o),
(486,789,cs),
(330,843,l),
(364,736,l),
(381,838,ls),
(387,876,o),
(413,895,o),
(458,895,cs),
(1268,895,l),
(1324,1234,l),
(482,1234,ls),
(221,1234,o),
(131,1097,o),
(100,907,cs),
(72,737,l),
(163,693,l),
(116,407,ls),
(71,142,o),
(245,-15,o),
(581,-15,cs)
);
},
{
closed = 1;
nodes = (
(829,539,o),
(820,578,o),
(826,612,cs),
(833,658,o),
(864,679,o),
(899,679,cs),
(910,679,l),
(888,539,l),
(878,539,ls)
);
}
);
width = 1353;
}
);
script = khmer;
subCategory = Other;
unicode = 6021;
}
{
category = Letter;
glyphname = "cha-khmer";
kernLeft = KH_CHA;
layers = (
{
anchors = (
{
name = bottom;
pos = (539,0);
},
{
name = bottomright;
pos = (926,0);
},
{
name = top;
pos = (743,1234);
},
{
name = topright;
pos = (1129,1234);
}
);
layerId = "200BE2C5-40F6-4CF4-AF4F-A33C0CC0964F";
shapes = (
{
closed = 1;
nodes = (
(199,0,l),
(351,915,ls),
(354,936,o),
(347,945,o),
(331,950,cs),
(227,984,l),
(238,963,l),
(250,1040,ls),
(268,1147,o),
(333,1187,o),
(427,1187,cs),
(1122,1187,l),
(1129,1234,l),
(434,1234,ls),
(312,1234,o),
(230,1178,o),
(207,1040,cs),
(192,952,l),
(304,914,l),
(210,343,l),
(231,374,l),
(204,374,ls),
(94,374,o),
(12,303,o),
(-7,191,cs),
(-27,68,o),
(32,0,o),
(143,0,cs)
);
},
{
closed = 1;
nodes = (
(64,41,o),
(20,96,o),
(35,184,cs),
(49,276,o),
(111,333,o),
(194,333,cs),
(207,333,l),
(159,41,l),
(149,41,ls)
);
},
{
closed = 1;
nodes = (
(875,-7,o),
(932,41,o),
(951,154,cs),
(1083,955,l),
(1012,955,ls),
(894,955,o),
(810,886,o),
(792,778,cs),
(771,651,o),
(833,581,o),
(950,581,cs),
(998,581,l),
(979,605,l),
(904,154,ls),
(890,65,o),
(850,33,o),
(783,33,cs),
(717,33,o),
(668,65,o),
(521,176,cs),
(258,374,l),
(236,374,l),
(229,333,l),
(235,333,l),
(492,140,ls),
(641,28,o),
(699,-7,o),
(777,-7,cs)
);
},
{
closed = 1;
nodes = (
(1030,914,l),
(982,621,l),
(954,621,ls),
(864,621,o),
(818,679,o),
(833,771,cs),
(848,859,o),
(914,914,o),
(1006,914,cs)
);
}
);
width = 1250;
},
{
anchors = (
{
name = bottom;
pos = (590,0);
},
{
name = bottomright;
pos = (1019,0);
},
{
name = top;
pos = (795,1234);
},
{
name = topright;
pos = (1238,1234);
}
);
layerId = "11F4534A-B963-4AB5-820F-DAF9A20CD933";
shapes = (
{
closed = 1;
nodes = (
(314,0,l),
(448,813,ls),
(455,856,o),
(443,871,o),
(405,891,cs),
(295,950,l),
(321,887,l),
(335,974,ls),
(347,1044,o),
(385,1077,o),
(457,1077,cs),
(1220,1077,l),
(1246,1234,l),
(486,1234,ls),
(316,1234,o),
(220,1156,o),
(191,977,cs),
(172,862,l),
(279,801,l),
(205,357,l),
(242,413,l),
(213,413,ls),
(90,413,o),
(-2,338,o),
(-20,225,cs),
(-44,78,o),
(22,0,o),
(152,0,cs)
);
},
{
closed = 1;
nodes = (
(114,111,o),
(89,148,o),
(99,210,cs),
(109,273,o),
(149,310,o),
(207,310,cs),
(212,310,l),
(179,111,l),
(170,111,ls)
);
},
{
closed = 1;
nodes = (
(935,-12,o),
(1046,70,o),
(1068,208,cs),
(1186,920,l),
(1000,920,ls),
(854,920,o),
(769,837,o),
(750,724,cs),
(727,582,o),
(793,506,o),
(924,506,cs),
(978,506,l),
(960,562,l),
(904,230,ls),
(894,166,o),
(851,134,o),
(796,134,cs),
(741,134,o),
(693,166,o),
(613,227,cs),
(375,408,l),
(355,408,l),
(326,234,l),
(348,234,l),
(506,109,ls),
(597,38,o),
(675,-12,o),
(790,-12,cs)
);
},
{
closed = 1;
nodes = (
(1005,809,l),
(972,610,l),
(951,610,ls),
(892,610,o),
(863,647,o),
(873,709,cs),
(884,772,o),
(923,809,o),
(979,809,cs)
);
}
);
width = 1340;
},
{
anchors = (
{
name = bottom;
pos = (612,0);
},
{
name = bottomright;
pos = (1132,0);
},
{
name = top;
pos = (816,1234);
},
{
name = topright;
pos = (1352,1234);
}
);
layerId = "D0EC06BF-13F9-4C88-A6F5-B8203AF6C77E";
shapes = (
{
closed = 1;
nodes = (
(471,0,l),
(584,685,ls),
(595,750,o),
(567,771,o),
(514,789,cs),
(359,843,l),
(392,736,l),
(410,838,ls),
(415,876,o),
(441,895,o),
(486,895,cs),
(1295,895,l),
(1351,1234,l),
(510,1234,ls),
(237,1234,o),
(156,1082,o),
(127,907,cs),
(100,737,l),
(191,693,l),
(131,330,l),
(218,413,l),
(199,413,ls),
(76,413,o),
(-9,351,o),
(-31,221,cs),
(-52,88,o),
(12,0,o),
(168,0,cs)
);
},
{
closed = 1;
nodes = (
(151,140,o),
(130,171,o),
(137,212,cs),
(143,253,o),
(175,279,o),
(213,279,cs),
(224,279,l),
(201,140,l),
(188,140,ls)
);
},
{
closed = 1;
nodes = (
(1082,-9,o),
(1159,71,o),
(1187,240,cs),
(1283,819,l),
(934,819,ls),
(788,819,o),
(705,757,o),
(683,626,cs),
(661,493,o),
(723,405,o),
(849,405,cs),
(856,405,l),
(831,461,l),
(807,316,ls),
(803,293,o),
(790,282,o),
(764,282,cs),
(742,282,o),
(720,290,o),
(664,323,cs),
(537,398,l),
(487,398,l),
(443,137,l),
(493,137,l),
(605,76,ls),
(719,12,o),
(808,-9,o),
(892,-9,cs)
);
},
{
closed = 1;
nodes = (
(939,679,l),
(916,539,l),
(905,539,ls),
(856,539,o),
(848,578,o),
(854,612,cs),
(862,659,o),
(892,679,o),
(926,679,cs)
);
}
);
width = 1381;
}
);
script = khmer;
subCategory = Other;
unicode = 6022;
}
{
category = Letter;
glyphname = "co-khmer";
kernLeft = KH_CA;
layers = (
{
anchors = (
{
name = bottom;
pos = (527,0);
},
{
name = bottomright;
pos = (913,0);
},
{
name = top;
pos = (731,1234);
},
{
name = topright;
pos = (1118,1234);
}
);
layerId = "200BE2C5-40F6-4CF4-AF4F-A33C0CC0964F";
shapes = (
{
closed = 1;
nodes = (
(189,0,l),
(592,375,l),
(872,0,l),
(913,0,l),
(1064,908,l),
(1017,908,l),
(878,71,l),
(875,71,l),
(612,424,l),
(583,424,l),
(202,71,l),
(199,71,l),
(338,915,ls),
(342,936,o),
(335,945,o),
(319,950,cs),
(215,984,l),
(226,963,l),
(239,1040,ls),
(257,1147,o),
(321,1187,o),
(415,1187,cs),
(1015,1187,ls),
(1081,1187,o),
(1114,1212,o),
(1124,1274,cs),
(1141,1374,l),
(1096,1374,l),
(1079,1274,ls),
(1074,1246,o),
(1062,1234,o),
(1024,1234,cs),
(423,1234,ls),
(301,1234,o),
(218,1178,o),
(195,1040,cs),
(180,952,l),
(292,914,l),
(140,0,l)
);
}
);
width = 1238;
},
{
anchors = (
{
name = bottom;
pos = (567,0);
},
{
name = bottomright;
pos = (1011,0);
},
{
name = top;
pos = (771,1234);
},
{
name = topright;
pos = (1215,1234);
}
);
layerId = "11F4534A-B963-4AB5-820F-DAF9A20CD933";
shapes = (
{
closed = 1;
nodes = (
(298,0,l),
(625,308,l),
(851,0,l),
(1011,0,l),
(1157,883,l),
(990,883,l),
(878,212,l),
(871,212,l),
(679,466,l),
(609,466,l),
(333,212,l),
(325,212,l),
(425,813,ls),
(432,856,o),
(420,871,o),
(381,891,cs),
(271,950,l),
(298,887,l),
(312,974,ls),
(324,1044,o),
(362,1077,o),
(434,1077,cs),
(1003,1077,ls),
(1126,1077,o),
(1205,1131,o),
(1225,1247,cs),
(1246,1374,l),
(1081,1374,l),
(1063,1267,ls),
(1059,1243,o),
(1049,1234,o),
(1024,1234,cs),
(463,1234,ls),
(293,1234,o),
(197,1156,o),
(168,977,cs),
(149,862,l),
(255,801,l),
(123,0,l)
);
}
);
width = 1316;
},
{
anchors = (
{
name = bottom;
pos = (584,0);
},
{
name = bottomright;
pos = (1119,0);
},
{
name = top;
pos = (788,1234);
},
{
name = topright;
pos = (1324,1234);
}
);
layerId = "D0EC06BF-13F9-4C88-A6F5-B8203AF6C77E";
shapes = (
{
closed = 1;
nodes = (
(450,0,l),
(624,192,l),
(735,0,l),
(1119,0,l),
(1246,764,l),
(851,764,l),
(784,359,l),
(776,359,l),
(696,490,l),
(632,490,l),
(511,359,l),
(502,359,l),
(556,685,ls),
(568,756,o),
(532,773,o),
(486,789,cs),
(330,843,l),
(364,736,l),
(381,838,ls),
(388,876,o),
(413,895,o),
(458,895,cs),
(999,895,ls),
(1177,895,o),
(1292,993,o),
(1321,1171,cs),
(1348,1336,l),
(961,1336,l),
(947,1254,ls),
(944,1237,o),
(936,1234,o),
(923,1234,cs),
(482,1234,ls),
(221,1234,o),
(131,1097,o),
(100,907,cs),
(72,737,l),
(163,693,l),
(48,0,l)
);
}
);
width = 1353;
}
);
script = khmer;
subCategory = Other;
unicode = 6023;
}
{
category = Letter;
glyphname = "cho-khmer";
kernLeft = KH_LO;
layers = (
{
anchors = (
{
name = bottom;
pos = (1846,0);
},
{
name = bottomright;
pos = (2191,0);
},
{
name = top;
pos = (2050,1234);
},
{
name = topright;
pos = (2410,1234);
}
);
layerId = "200BE2C5-40F6-4CF4-AF4F-A33C0CC0964F";
shapes = (
{
closed = 1;
nodes = (
(1354,-15,o),
(1500,87,o),
(1561,245,c),
(1555,245,l),
(1561,102,o),
(1660,-15,o),
(1847,-15,cs),
(2062,-15,o),
(2226,122,o),
(2260,329,cs),
(2354,896,ls),
(2358,917,o),
(2349,926,o),
(2334,931,cs),
(2196,984,l),
(2206,963,l),
(2221,1047,ls),
(2238,1150,o),
(2297,1187,o),
(2381,1187,cs),
(2463,1187,l),
(2471,1234,l),
(2389,1234,ls),
(2276,1234,o),
(2200,1180,o),
(2177,1047,cs),
(2161,952,l),
(2307,896,l),
(2213,329,ls),
(2184,150,o),
(2038,32,o),
(1846,32,cs),
(1668,32,o),
(1563,153,o),
(1592,329,cs),
(1686,896,ls),
(1690,917,o),
(1682,926,o),
(1666,931,cs),
(1528,984,l),
(1538,963,l),
(1553,1047,ls),
(1570,1150,o),
(1629,1187,o),
(1713,1187,cs),
(1795,1187,l),
(1803,1234,l),
(1721,1234,ls),
(1608,1234,o),
(1532,1180,o),
(1509,1047,cs),
(1493,952,l),
(1639,896,l),
(1545,329,ls),
(1516,153,o),
(1369,32,o),
(1178,32,cs),
(995,32,o),
(895,153,o),
(924,329,cs),
(1017,891,ls),
(1054,1110,o),
(935,1249,o),
(712,1249,cs),
(490,1249,o),
(325,1110,o),
(288,891,cs),
(140,0,l),
(212,0,ls),
(325,0,o),
(413,65,o),
(432,177,cs),
(452,297,o),
(397,374,o),
(274,374,cs),
(218,374,l),
(244,343,l),
(335,891,ls),
(367,1083,o),
(510,1202,o),
(712,1202,cs),
(903,1202,o),
(1003,1083,o),
(971,891,cs),
(878,329,ls),
(843,124,o),
(966,-15,o),
(1175,-15,cs)
);
},
{
closed = 1;
nodes = (
(194,41,l),
(242,333,l),
(270,333,ls),
(358,333,o),
(407,277,o),
(391,184,cs),
(375,93,o),
(309,41,o),
(219,41,cs)
);
}
);
width = 2531;
},
{
anchors = (
{
name = bottom;
pos = (1889,0);
},
{
name = bottomright;
pos = (2285,0);
},
{
name = top;
pos = (2093,1234);
},
{
name = topright;
pos = (2504,1234);
}
);
layerId = "11F4534A-B963-4AB5-820F-DAF9A20CD933";
shapes = (
{
closed = 1;
nodes = (
(1388,-15,o),
(1529,66,o),
(1609,197,c),
(1565,202,l),
(1598,68,o),
(1713,-15,o),
(1894,-15,cs),
(2140,-15,o),
(2323,140,o),
(2361,368,cs),
(2436,821,ls),
(2443,864,o),
(2432,880,o),
(2392,899,cs),
(2289,947,l),
(2293,887,l),
(2307,970,ls),
(2319,1043,o),
(2354,1077,o),
(2432,1077,cs),
(2519,1077,l),
(2545,1234,l),
(2454,1234,ls),
(2286,1234,o),
(2192,1156,o),
(2163,977,cs),
(2144,862,l),
(2267,807,l),
(2195,377,ls),
(2171,234,o),
(2059,134,o),
(1902,134,cs),
(1749,134,o),
(1677,234,o),
(1700,377,cs),
(1774,821,ls),
(1781,864,o),
(1770,880,o),
(1730,899,cs),
(1627,947,l),
(1631,887,l),
(1644,970,ls),
(1657,1043,o),
(1692,1077,o),
(1770,1077,cs),
(1857,1077,l),
(1883,1234,l),
(1792,1234,ls),
(1624,1234,o),
(1530,1156,o),
(1501,977,cs),
(1482,862,l),
(1604,807,l),
(1533,377,ls),
(1509,234,o),
(1395,134,o),
(1233,134,cs),
(1085,134,o),
(1015,234,o),
(1038,377,cs),
(1117,854,ls),
(1155,1088,o),
(1009,1248,o),
(755,1248,cs),
(501,1248,o),
(301,1088,o),
(263,854,cs),
(122,0,l),
(308,0,ls),
(454,0,o),
(538,83,o),
(557,196,cs),
(581,338,o),
(514,413,o),
(383,413,cs),
(330,413,l),
(348,357,l),
(429,848,ls),
(454,995,o),
(579,1097,o),
(738,1097,cs),
(887,1097,o),
(974,995,o),
(949,848,cs),
(870,368,ls),
(832,140,o),
(964,-15,o),
(1210,-15,cs)
);
},
{
closed = 1;
nodes = (
(303,111,l),
(336,310,l),
(357,310,ls),
(416,310,o),
(445,273,o),
(434,210,cs),
(424,148,o),
(384,111,o),
(328,111,cs)
);
}
);
width = 2606;
},
{
anchors = (
{
name = bottom;
pos = (1906,0);
},
{
name = bottomright;
pos = (2405,0);
},
{
name = top;
pos = (2111,1234);
},
{
name = topright;
pos = (2639,1234);
}
);
layerId = "D0EC06BF-13F9-4C88-A6F5-B8203AF6C77E";
shapes = (
{
closed = 1;
nodes = (
(1416,-15,o),
(1554,50,o),
(1680,197,c),
(1530,207,l),
(1602,53,o),
(1718,-15,o),
(1925,-15,cs),
(2240,-15,o),
(2458,143,o),
(2502,403,cs),
(2548,685,ls),
(2559,750,o),
(2533,770,o),
(2478,789,cs),
(2323,843,l),
(2354,736,l),
(2371,838,ls),
(2377,876,o),
(2401,895,o),
(2440,895,cs),
(2627,895,l),
(2683,1234,l),
(2472,1234,ls),
(2203,1234,o),
(2123,1082,o),
(2094,907,cs),
(2066,734,l),
(2155,690,l),
(2110,420,ls),
(2096,335,o),
(2034,279,o),
(1951,279,cs),
(1869,279,o),
(1826,335,o),
(1841,420,cs),
(1885,685,ls),
(1895,750,o),
(1869,770,o),
(1815,789,cs),
(1659,843,l),
(1690,736,l),
(1708,838,ls),
(1714,876,o),
(1738,895,o),
(1777,895,cs),
(1963,895,l),
(2019,1234,l),
(1808,1234,ls),
(1539,1234,o),
(1460,1082,o),
(1431,907,cs),
(1402,734,l),
(1491,690,l),
(1447,420,ls),
(1432,335,o),
(1369,279,o),
(1286,279,cs),
(1205,279,o),
(1163,334,o),
(1177,420,cs),
(1245,831,ls),
(1288,1089,o),
(1130,1249,o),
(783,1249,cs),
(437,1249,o),
(229,1089,o),
(186,831,cs),
(49,0,l),
(397,0,ls),
(545,0,o),
(627,63,o),
(648,192,cs),
(670,328,o),
(606,414,o),
(482,414,cs),
(476,414,l),
(502,357,l),
(578,815,ls),
(592,899,o),
(651,955,o),
(734,955,cs),
(817,955,o),
(862,899,o),
(848,815,cs),
(780,403,ls),
(736,143,o),
(901,-15,o),
(1215,-15,cs)
);
},
{
closed = 1;
nodes = (
(393,140,l),
(416,279,l),
(426,279,ls),
(465,279,o),
(484,252,o),
(477,207,cs),
(471,164,o),
(445,140,o),
(405,140,cs)
);
}
);
width = 2668;
}
);
script = khmer;
subCategory = Other;
unicode = 6024;
}
{
category = Letter;
glyphname = "nyo-khmer";
kernLeft = KH_PO;
layers = (
{
anchors = (
{
name = _nyoTail;
pos = (1566,73);
},
{
name = bottom;
pos = (942,-559);
},
{
name = bottomright;
pos = (1439,-559);
},
{
name = top;
pos = (1406,1234);
},
{
name = topright;
pos = (1751,1234);
}
);
layerId = "200BE2C5-40F6-4CF4-AF4F-A33C0CC0964F";
shapes = (
{
closed = 1;
nodes = (
(1358,-570,o),
(1482,-431,o),
(1519,-214,cs),
(1537,-105,l),
(1490,-105,l),
(1472,-214,ls),
(1441,-401,o),
(1337,-524,o),
(1145,-524,cs),
(883,-524,o),
(751,-293,o),
(388,-293,cs),
(301,-293,o),
(214,-306,o),
(123,-330,c),
(115,-378,l),
(207,-352,o),
(294,-340,o),
(377,-340,cs),
(738,-340,o),
(864,-570,o),
(1142,-570,cs)
);
},
{
ref = "nyo-khmer.less";
}
);
width = 1879;
},
{
anchors = (
{
name = _nyoTail;
pos = (1683,73);
},
{
name = bottom;
pos = (1162,-559);
},
{
name = bottomright;
pos = (1564,-559);
},
{
name = top;
pos = (1458,1234);
},
{
name = topright;
pos = (1861,1234);
}
);
layerId = "11F4534A-B963-4AB5-820F-DAF9A20CD933";
shapes = (
{
closed = 1;
nodes = (
(1451,-570,o),
(1595,-459,o),
(1632,-233,cs),
(1653,-105,l),
(1486,-105,l),
(1465,-233,ls),
(1443,-364,o),
(1361,-419,o),
(1217,-419,cs),
(944,-419,o),
(791,-239,o),
(410,-239,cs),
(312,-239,o),
(217,-252,o),
(116,-278,c),
(90,-430,l),
(196,-403,o),
(297,-391,o),
(399,-391,cs),
(747,-391,o),
(899,-570,o),
(1206,-570,cs)
);
},
{
ref = "nyo-khmer.less";
}
);
width = 1978;
},
{
anchors = (
{
name = _nyoTail;
pos = (1782,73);
},
{
name = bottom;
pos = (1154,-559);
},
{
name = bottomright;
pos = (1656,-559);
},
{
name = top;
pos = (1451,1234);
},
{
name = topright;
pos = (1960,1234);
}
);
layerId = "D0EC06BF-13F9-4C88-A6F5-B8203AF6C77E";
shapes = (
{
closed = 1;
nodes = (
(1571,-570,o),
(1692,-470,o),
(1724,-274,cs),
(1754,-92,l),
(1361,-92,l),
(1346,-186,ls),
(1338,-234,o),
(1304,-258,o),
(1246,-258,cs),
(972,-258,o),
(755,-134,o),
(350,-134,cs),
(253,-134,o),
(159,-144,o),
(65,-162,c),
(15,-466,l),
(116,-448,o),
(213,-438,o),
(314,-438,cs),
(714,-438,o),
(946,-570,o),
(1261,-570,cs)
);
},
{
ref = "nyo-khmer.less";
}
);
width = 2004;
}
);
script = khmer;
subCategory = Other;
unicode = 6025;
}
{
category = Letter;
glyphname = "da-khmer";
kernLeft = KH_DA;
layers = (
{
anchors = (
{
name = bottom;
pos = (527,0);
},
{
name = bottomright;
pos = (913,0);
},
{
name = top;
pos = (731,1234);
},
{
name = topright;
pos = (1118,1234);
}
);
layerId = "200BE2C5-40F6-4CF4-AF4F-A33C0CC0964F";
shapes = (
{
closed = 1;
nodes = (
(189,0,l),
(592,375,l),
(872,0,l),
(913,0,l),
(1037,745,l),
(990,745,l),
(878,71,l),
(875,71,l),
(612,424,l),
(583,424,l),
(202,71,l),
(199,71,l),
(311,745,l),
(264,745,l),
(140,0,l)
);
},
{
closed = 1;
nodes = (
(371,1016,o),
(343,1053,o),
(351,1106,cs),
(360,1160,o),
(401,1196,o),
(453,1196,cs),
(506,1196,o),
(535,1160,o),
(526,1106,cs),
(517,1053,o),
(476,1016,o),
(423,1016,cs)
);
},
{
closed = 1;
nodes = (
(918,873,o),
(1076,985,o),
(1110,1186,cs),
(1141,1374,l),
(1094,1374,l),
(1063,1186,ls),
(1035,1016,o),
(894,920,o),
(669,920,cs),
(533,920,o),
(443,950,o),
(418,987,c),
(417,976,l),
(455,976,o),
(554,1002,o),
(571,1106,cs),
(584,1185,o),
(535,1240,o),
(455,1240,cs),
(377,1240,o),
(319,1183,o),
(306,1107,cs),
(284,976,o),
(441,873,o),
(669,873,cs)
);
}
);
width = 1238;
},
{
anchors = (
{
name = bottom;
pos = (565,0);
},
{
name = bottomright;
pos = (1009,0);
},
{
name = top;
pos = (767,1234);
},
{
name = topright;
pos = (1208,1234);
}
);
layerId = "11F4534A-B963-4AB5-820F-DAF9A20CD933";
shapes = (
{
closed = 1;
nodes = (
(295,0,l),
(621,293,l),
(851,0,l),
(1009,0,l),
(1133,745,l),
(966,745,l),
(876,208,l),
(869,208,l),
(675,448,l),
(604,448,l),
(330,208,l),
(323,208,l),
(413,745,l),
(245,745,l),
(122,0,l)
);
},
{
closed = 1;
nodes = (
(424,1019,o),
(402,1048,o),
(407,1084,cs),
(413,1121,o),
(445,1149,o),
(480,1149,cs),
(515,1149,o),
(538,1121,o),
(533,1084,cs),
(527,1048,o),
(494,1019,o),
(459,1019,cs)
);
},
{
closed = 1;
nodes = (
(981,800,o),
(1171,939,o),
(1214,1196,cs),
(1244,1374,l),
(1077,1374,l),
(1049,1208,ls),
(1020,1031,o),
(894,939,o),
(699,939,cs),
(577,939,o),
(509,971,o),
(487,995,c),
(466,928,l),
(505,928,o),
(631,966,o),
(650,1084,cs),
(667,1182,o),
(602,1251,o),
(496,1251,cs),
(389,1251,o),
(303,1185,o),
(287,1090,cs),
(258,910,o),
(430,800,o),
(682,800,cs)
);
}
);
width = 1316;
},
{
anchors = (
{
name = bottom;
pos = (584,0);
},
{
name = bottomright;
pos = (1120,0);
},
{
name = top;
pos = (789,1234);
},
{
name = topright;
pos = (1324,1234);
}
);
layerId = "D0EC06BF-13F9-4C88-A6F5-B8203AF6C77E";
shapes = (
{
closed = 1;
nodes = (
(450,0,l),
(624,192,l),
(736,0,l),
(1120,0,l),
(1244,745,l),
(849,745,l),
(785,359,l),
(776,359,l),
(697,490,l),
(633,490,l),
(512,359,l),
(503,359,l),
(567,745,l),
(172,745,l),
(49,0,l)
);
},
{
closed = 1;
nodes = (
(429,1004,o),
(414,1024,o),
(418,1051,cs),
(423,1080,o),
(445,1099,o),
(472,1099,cs),
(499,1099,o),
(515,1079,o),
(510,1051,cs),
(506,1024,o),
(483,1004,o),
(456,1004,cs)
);
},
{
closed = 1;
nodes = (
(1140,800,o),
(1283,943,o),
(1316,1143,cs),
(1348,1336,l),
(961,1336,l),
(933,1166,ls),
(915,1057,o),
(856,1016,o),
(720,1016,cs),
(656,1016,o),
(593,1025,o),
(564,1030,c),
(570,886,l),
(586,886,o),
(676,922,o),
(696,1042,cs),
(717,1169,o),
(636,1249,o),
(481,1249,cs),
(341,1249,o),
(235,1198,o),
(212,1059,cs),
(186,896,o),
(317,800,o),
(680,800,cs)
);
}
);
width = 1353;
}
);
script = khmer;
subCategory = Other;
unicode = 6026;
}
{
category = Letter;
glyphname = "ttha-khmer";
layers = (
{
anchors = (
{
name = bottom;
pos = (530,0);
},
{
name = bottomright;
pos = (899,0);
},
{
name = top;
pos = (736,1234);
},
{
name = topright;
pos = (1118,1234);
}
);
layerId = "200BE2C5-40F6-4CF4-AF4F-A33C0CC0964F";
shapes = (
{
closed = 1;
nodes = (
(762,-15,o),
(934,122,o),
(968,329,cs),
(1062,896,ls),
(1065,917,o),
(1057,926,o),
(1042,931,cs),
(882,984,l),
(885,963,l),
(904,1076,ls),
(918,1159,o),
(964,1189,o),
(1031,1189,cs),
(1099,1189,ls),
(1168,1189,o),
(1195,1222,o),
(1205,1279,cs),
(1221,1374,l),
(1177,1374,l),
(1161,1279,ls),
(1156,1248,o),
(1139,1234,o),
(1106,1234,cs),
(1038,1234,ls),
(945,1234,o),
(878,1189,o),
(860,1076,cs),
(840,951,l),
(1015,895,l),
(921,329,ls),
(891,150,o),
(739,32,o),
(536,32,cs),
(332,32,o),
(220,153,o),
(249,329,cs),
(399,1234,l),
(336,1234,ls),
(231,1234,o),
(155,1166,o),
(137,1057,cs),
(116,931,o),
(170,860,o),
(274,860,cs),
(321,860,l),
(295,891,l),
(202,329,ls),
(167,112,o),
(317,-15,o),
(536,-15,cs)
);
},
{
closed = 1;
nodes = (
(201,901,o),
(162,959,o),
(178,1050,cs),
(193,1137,o),
(248,1193,o),
(330,1193,cs),
(346,1193,l),
(297,901,l),
(278,901,ls)
);
}
);
width = 1238;
},
{
anchors = (
{
name = bottom;
pos = (575,0);
},
{
name = bottomright;
pos = (1001,0);
},
{
name = top;
pos = (781,1234);
},
{
name = topright;
pos = (1220,1234);
}
);
layerId = "11F4534A-B963-4AB5-820F-DAF9A20CD933";
shapes = (
{
closed = 1;
nodes = (
(835,-15,o),
(1040,148,o),
(1079,384,cs),
(1151,816,ls),
(1158,859,o),
(1148,879,o),
(1107,894,cs),
(920,963,l),
(957,887,l),
(971,977,ls),
(983,1048,o),
(1020,1078,o),
(1087,1078,cs),
(1185,1078,ls),
(1255,1078,o),
(1291,1109,o),
(1302,1179,cs),
(1335,1374,l),
(1175,1374,l),
(1155,1253,ls),
(1153,1241,o),
(1145,1234,o),
(1133,1234,cs),
(1103,1234,ls),
(946,1234,o),
(859,1163,o),
(832,1001,cs),
(807,854,l),
(979,792,l),
(913,393,ls),
(888,241,o),
(755,137,o),
(588,137,cs),
(432,137,o),
(343,241,o),
(367,393,cs),
(507,1234,l),
(360,1234,ls),
(220,1234,o),
(138,1153,o),
(120,1043,cs),
(96,898,o),
(159,821,o),
(285,821,cs),
(334,821,l),
(282,888,l),
(199,384,ls),
(159,147,o),
(311,-15,o),
(573,-15,cs)
);
},
{
closed = 1;
nodes = (
(237,924,o),
(226,975,o),
(234,1028,cs),
(244,1091,o),
(284,1123,o),
(334,1123,cs),
(345,1123,l),
(311,924,l),
(305,924,ls)
);
}
);
width = 1323;
},
{
anchors = (
{
name = bottom;
pos = (602,0);
},
{
name = bottomright;
pos = (1123,0);
},
{
name = top;
pos = (811,1234);
},
{
name = topright;
pos = (1342,1234);
}
);
layerId = "D0EC06BF-13F9-4C88-A6F5-B8203AF6C77E";
shapes = (
{
closed = 1;
nodes = (
(952,-15,o),
(1162,145,o),
(1205,403,cs),
(1251,681,ls),
(1262,751,o),
(1229,769,o),
(1182,784,cs),
(1000,843,l),
(1016,736,l),
(1036,854,ls),
(1041,886,o),
(1061,902,o),
(1095,902,cs),
(1225,902,ls),
(1323,902,o),
(1385,963,o),
(1404,1075,cs),
(1447,1336,l),
(1075,1336,l),
(1062,1257,ls),
(1059,1239,o),
(1051,1234,o),
(1035,1234,cs),
(1014,1234,ls),
(877,1234,o),
(800,1159,o),
(777,1025,cs),
(730,737,l),
(856,677,l),
(813,419,ls),
(800,335,o),
(735,279,o),
(648,279,cs),
(562,279,o),
(517,335,o),
(530,419,cs),
(666,1234,l),
(376,1234,ls),
(226,1234,o),
(141,1178,o),
(119,1049,cs),
(98,922,o),
(158,835,o),
(279,835,cs),
(301,835,l),
(215,891,l),
(134,403,ls),
(91,144,o),
(249,-15,o),
(600,-15,cs)
);
},
{
closed = 1;
nodes = (
(285,963,o),
(276,998,o),
(282,1033,cs),
(290,1078,o),
(318,1101,o),
(348,1101,cs),
(362,1101,l),
(339,963,l),
(327,963,ls)
);
}
);
width = 1409;
}
);
script = khmer;
subCategory = Other;
unicode = 6027;
}
{
category = Letter;
glyphname = "do-khmer";
kernLeft = KH_DO;
layers = (
{
anchors = (
{
name = bottom;
pos = (497,0);
},
{
name = bottomright;
pos = (872,0);
},
{
name = top;
pos = (701,1234);
},
{
name = topright;
pos = (1091,1234);
}
);
layerId = "200BE2C5-40F6-4CF4-AF4F-A33C0CC0964F";
shapes = (
{
closed = 1;
nodes = (
(630,-15,o),
(784,87,o),
(859,220,c),
(864,220,l),
(827,0,l),
(872,0,l),
(946,443,l),
(901,443,l),
(895,406,ls),
(858,170,o),
(638,31,o),
(458,31,cs),
(272,31,o),
(167,138,o),
(194,295,cs),
(226,485,l),
(681,570,ls),
(875,607,o),
(1006,675,o),
(1040,878,cs),
(1074,1086,ls),
(1090,1181,o),
(1046,1239,o),
(958,1239,cs),
(899,1239,o),
(839,1218,o),
(751,1136,cs),
(671,1062,l),
(615,1133,ls),
(552,1213,o),
(501,1239,o),
(439,1239,cs),
(354,1239,o),
(295,1184,o),
(279,1089,cs),
(248,905,ls),
(235,827,o),
(276,780,o),
(357,780,cs),
(453,780,l),
(461,824,l),
(362,824,ls),
(310,824,o),
(285,850,o),
(294,901,cs),
(325,1086,ls),
(336,1156,o),
(379,1197,o),
(438,1197,cs),
(485,1197,o),
(532,1173,o),
(581,1108,cs),
(661,1005,l),
(667,1005,l),
(781,1105,ls),
(853,1169,o),
(908,1197,o),
(958,1197,cs),
(1014,1197,o),
(1040,1159,o),
(1028,1089,cs),
(994,881,ls),
(965,707,o),
(853,648,o),
(678,615,cs),
(185,522,l),
(148,298,ls),
(117,114,o),
(240,-15,o),
(458,-15,cs)
);
}
);
width = 1179;
},
{
anchors = (
{
name = bottom;
pos = (542,0);
},
{
name = bottomright;
pos = (961,0);
},
{
name = top;
pos = (747,1234);
},
{
name = topright;
pos = (1176,1234);
}
);
layerId = "11F4534A-B963-4AB5-820F-DAF9A20CD933";
shapes = (
{
closed = 1;
nodes = (
(647,-15,o),
(753,50,o),
(811,132,c),
(820,132,l),
(798,0,l),
(961,0,l),
(1033,429,l),
(867,429,l),
(859,386,ls),
(835,238,o),
(696,137,o),
(521,137,cs),
(383,137,o),
(301,222,o),
(322,347,cs),
(336,436,l),
(736,525,ls),
(997,584,o),
(1101,694,o),
(1128,858,cs),
(1158,1041,ls),
(1179,1169,o),
(1119,1240,o),
(999,1240,cs),
(934,1240,o),
(874,1226,o),
(770,1147,cs),
(721,1110,l),
(685,1147,ls),
(610,1225,o),
(557,1240,o),
(496,1240,cs),
(375,1240,o),
(292,1169,o),
(271,1041,cs),
(243,875,ls),
(226,773,o),
(274,722,o),
(383,722,cs),
(504,722,l),
(526,853,l),
(443,853,ls),
(417,853,o),
(406,864,o),
(410,888,cs),
(429,1008,ls),
(438,1057,o),
(469,1084,o),
(514,1084,cs),
(553,1084,o),
(586,1058,o),
(629,1008,cs),
(680,952,l),
(720,952,l),
(788,1008,ls),
(851,1059,o),
(891,1084,o),
(930,1084,cs),
(973,1084,o),
(994,1057,o),
(985,1008,cs),
(962,864,ls),
(936,713,o),
(827,677,o),
(696,648,cs),
(187,536,l),
(156,347,ls),
(119,122,o),
(248,-15,o),
(487,-15,cs)
);
}
);
width = 1262;
},
{
anchors = (
{
name = bottom;
pos = (573,0);
},
{
name = bottomright;
pos = (1081,0);
},
{
name = top;
pos = (777,1234);
},
{
name = topright;
pos = (1302,1234);
}
);
layerId = "D0EC06BF-13F9-4C88-A6F5-B8203AF6C77E";
shapes = (
{
closed = 1;
nodes = (
(586,-15,o),
(668,52,o),
(711,116,c),
(723,116,l),
(704,0,l),
(1081,0,l),
(1148,403,l),
(756,403,l),
(747,351,ls),
(735,276,o),
(678,224,o),
(595,224,cs),
(520,224,o),
(470,267,o),
(482,338,cs),
(497,429,l),
(789,458,ls),
(1025,481,o),
(1206,575,o),
(1242,789,cs),
(1278,1010,ls),
(1302,1158,o),
(1223,1240,o),
(1067,1240,cs),
(972,1240,o),
(897,1227,o),
(782,1147,cs),
(759,1131,l),
(741,1147,ls),
(656,1230,o),
(581,1240,o),
(487,1240,cs),
(330,1240,o),
(224,1158,o),
(200,1010,cs),
(173,848,ls),
(156,749,o),
(204,699,o),
(314,699,cs),
(643,699,l),
(671,868,l),
(609,868,ls),
(584,868,o),
(573,880,o),
(576,902,cs),
(578,914,ls),
(582,938,o),
(599,952,o),
(621,952,cs),
(642,952,o),
(659,941,o),
(682,914,cs),
(707,883,l),
(729,883,l),
(765,914,ls),
(797,942,o),
(819,952,o),
(839,952,cs),
(861,952,o),
(872,938,o),
(868,914,cs),
(853,821,ls),
(839,737,o),
(765,690,o),
(669,682,cs),
(138,638,l),
(87,329,ls),
(49,100,o),
(178,-15,o),
(422,-15,cs)
);
}
);
width = 1330;
},
{
anchors = (
{
name = bottom;
pos = (497,0);
},
{
name = bottomright;
pos = (872,0);
},
{
name = top;
pos = (701,1234);
},
{
name = topright;
pos = (1091,1234);
}
);
associatedMasterId = "200BE2C5-40F6-4CF4-AF4F-A33C0CC0964F";
attr = {
axisRules = (
{
min = 600;
}
);
};
color = 9;
layerId = "0B3DA936-0330-4AFC-9723-F74AB3BB477B";
name = "[600]";
shapes = (
{
closed = 1;
nodes = (
(629,-15,o),
(783,87,o),
(859,221,c),
(864,221,l),
(827,0,l),
(872,0,l),
(946,443,l),
(901,443,l),
(895,408,ls),
(856,172,o),
(638,31,o),
(459,31,cs),
(272,31,o),
(167,138,o),
(194,295,cs),
(228,500,l),
(683,585,ls),
(878,621,o),
(1008,685,o),
(1040,878,cs),
(1074,1086,ls),
(1090,1181,o),
(1046,1239,o),
(958,1239,cs),
(899,1239,o),
(839,1218,o),
(751,1136,cs),
(671,1062,l),
(615,1133,ls),
(552,1213,o),
(501,1239,o),
(439,1239,cs),
(354,1239,o),
(295,1184,o),
(279,1089,cs),
(235,824,l),
(282,824,l),
(325,1086,ls),
(336,1156,o),
(379,1197,o),
(438,1197,cs),
(485,1197,o),
(532,1173,o),
(581,1108,cs),
(661,1005,l),
(667,1005,l),
(781,1105,ls),
(853,1169,o),
(908,1197,o),
(958,1197,cs),
(1014,1197,o),
(1040,1159,o),
(1028,1089,cs),
(994,881,ls),
(967,716,o),
(855,662,o),
(681,629,cs),
(187,537,l),
(148,298,ls),
(118,114,o),
(240,-15,o),
(458,-15,cs)
);
}
);
width = 1179;
},
{
anchors = (
{
name = bottom;
pos = (634,0);
},
{
name = bottomright;
pos = (1054,0);
},
{
name = top;
pos = (839,1234);
},
{
name = topright;
pos = (1268,1234);
}
);
associatedMasterId = "11F4534A-B963-4AB5-820F-DAF9A20CD933";
attr = {
axisRules = (
{
min = 600;
}
);
};
background = {
anchors = (
{
name = bottom;
pos = (542,0);
},
{
name = bottomright;
pos = (961,0);
},
{
name = top;
pos = (746,1234);
},
{
name = topright;
pos = (1175,1234);
}
);
shapes = (
{
closed = 1;
nodes = (
(646,-15,o),
(753,50,o),
(811,132,c),
(820,132,l),
(798,0,l),
(961,0,l),
(1032,429,l),
(866,429,l),
(859,386,ls),
(834,238,o),
(702,137,o),
(536,137,cs),
(389,137,o),
(301,222,o),
(322,347,cs),
(338,450,l),
(737,538,ls),
(998,596,o),
(1103,702,o),
(1128,858,cs),
(1158,1041,ls),
(1179,1169,o),
(1118,1240,o),
(999,1240,cs),
(934,1240,o),
(877,1225,o),
(774,1147,cs),
(725,1110,l),
(689,1147,ls),
(613,1225,o),
(559,1240,o),
(496,1240,cs),
(375,1240,o),
(291,1169,o),
(270,1041,cs),
(233,815,l),
(397,815,l),
(429,1008,ls),
(437,1057,o),
(469,1084,o),
(513,1084,cs),
(552,1084,o),
(585,1059,o),
(629,1008,cs),
(680,952,l),
(719,952,l),
(788,1008,ls),
(844,1054,o),
(887,1084,o),
(929,1084,cs),
(972,1084,o),
(993,1057,o),
(985,1008,cs),
(961,864,ls),
(938,723,o),
(828,691,o),
(698,662,cs),
(189,550,l),
(155,344,ls),
(118,122,o),
(248,-15,o),
(486,-15,cs)
);
}
);
};
color = 3;
layerId = "D98D2DD9-D9AB-4E13-A593-4737B62053FE";
name = "[600]";
shapes = (
{
closed = 1;
nodes = (
(643,-15,o),
(752,50,o),
(811,132,c),
(820,132,l),
(798,0,l),
(961,0,l),
(1033,429,l),
(867,429,l),
(859,386,ls),
(835,238,o),
(696,137,o),
(521,137,cs),
(383,137,o),
(301,222,o),
(322,347,cs),
(338,450,l),
(738,538,ls),
(998,596,o),
(1102,701,o),
(1128,858,cs),
(1158,1041,ls),
(1179,1169,o),
(1119,1240,o),
(999,1240,cs),
(936,1240,o),
(869,1227,o),
(767,1147,cs),
(720,1110,l),
(684,1147,ls),
(608,1226,o),
(559,1240,o),
(496,1240,cs),
(375,1240,o),
(293,1169,o),
(271,1041,cs),
(233,815,l),
(397,815,l),
(429,1008,ls),
(437,1057,o),
(469,1084,o),
(514,1084,cs),
(553,1084,o),
(585,1057,o),
(629,1008,cs),
(680,952,l),
(720,952,l),
(788,1008,ls),
(850,1060,o),
(891,1084,o),
(930,1084,cs),
(973,1084,o),
(993,1057,o),
(985,1008,cs),
(962,864,ls),
(939,723,o),
(829,691,o),
(699,662,cs),
(189,550,l),
(156,351,ls),
(118,122,o),
(246,-15,o),
(480,-15,cs)
);
}
);
width = 1262;
},
{
anchors = (
{
name = bottom;
pos = (573,0);
},
{
name = bottomright;
pos = (1081,0);
},
{
name = top;
pos = (777,1234);
},
{
name = topright;
pos = (1302,1234);
}
);
associatedMasterId = "D0EC06BF-13F9-4C88-A6F5-B8203AF6C77E";
attr = {
axisRules = (
{
min = 600;
}
);
};
background = {
anchors = (
{
name = bottom;
pos = (661,0);
},
{
name = bottomright;
pos = (1167,0);
},
{
name = top;
pos = (661,1234);
},
{
name = topright;
pos = (1183,1234);
}
);
shapes = (
{
closed = 1;
nodes = (
(670,-15,o),
(749,54,o),
(786,118,c),
(797,118,l),
(797,0,l),
(1167,0,l),
(1167,404,l),
(783,404,l),
(783,353,ls),
(783,274,o),
(732,220,o),
(646,220,cs),
(568,220,o),
(509,265,o),
(509,338,cs),
(509,443,l),
(800,472,ls),
(1038,496,o),
(1205,594,o),
(1205,819,cs),
(1205,1052,ls),
(1205,1169,o),
(1121,1240,o),
(978,1240,cs),
(887,1240,o),
(826,1224,o),
(757,1163,cs),
(669,1085,l),
(582,1163,ls),
(513,1224,o),
(450,1240,o),
(361,1240,cs),
(212,1240,o),
(125,1170,o),
(125,1052,cs),
(125,813,l),
(511,813,l),
(511,975,l),
(520,975,l),
(656,872,l),
(674,872,l),
(811,975,l),
(819,975,l),
(819,835,ls),
(819,753,o),
(749,708,o),
(647,699,cs),
(125,653,l),
(125,328,ls),
(125,100,o),
(263,-15,o),
(488,-15,cs)
);
}
);
};
color = 9;
layerId = "45212DF7-EF4C-46C6-9F2C-3B673B43F74C";
name = "[600]";
shapes = (
{
closed = 1;
nodes = (
(584,-15,o),
(667,52,o),
(711,116,c),
(723,116,l),
(704,0,l),
(1081,0,l),
(1148,403,l),
(756,403,l),
(747,351,ls),
(735,276,o),
(678,224,o),
(595,224,cs),
(520,224,o),
(470,267,o),
(482,338,cs),
(498,437,l),
(790,466,ls),
(1027,490,o),
(1208,584,o),
(1244,798,cs),
(1278,1010,ls),
(1302,1158,o),
(1223,1240,o),
(1067,1240,cs),
(972,1240,o),
(897,1227,o),
(782,1147,cs),
(759,1131,l),
(741,1147,ls),
(656,1230,o),
(581,1240,o),
(487,1240,cs),
(330,1240,o),
(224,1158,o),
(200,1010,cs),
(166,803,l),
(560,803,l),
(578,914,ls),
(582,938,o),
(599,952,o),
(621,952,cs),
(642,952,o),
(659,941,o),
(682,914,cs),
(707,883,l),
(729,883,l),
(765,914,ls),
(797,942,o),
(819,952,o),
(839,952,cs),
(861,952,o),
(872,938,o),
(868,914,cs),
(854,830,ls),
(840,746,o),
(767,699,o),
(670,691,cs),
(140,647,l),
(87,329,ls),
(49,100,o),
(175,-15,o),
(415,-15,cs)
);
}
);
width = 1323;
}
);
script = khmer;
subCategory = Other;
unicode = 6028;
}
{
category = Letter;
glyphname = "ttho-khmer";
kernLeft = KH_PO;
layers = (
{
anchors = (
{
name = bottom;
pos = (1188,0);
},
{
name = bottomright;
pos = (1546,0);
},
{
name = top;
pos = (1392,1234);
},
{
name = topright;
pos = (1756,1234);
}
);
layerId = "200BE2C5-40F6-4CF4-AF4F-A33C0CC0964F";
shapes = (
{
closed = 1;
nodes = (
(140,0,l),
(213,0,ls),
(330,0,o),
(413,67,o),
(432,181,cs),
(452,302,o),
(389,374,o),
(272,374,cs),
(218,374,l),
(244,343,l),
(369,1100,ls),
(379,1161,o),
(414,1197,o),
(463,1197,cs),
(511,1197,o),
(546,1174,o),
(597,1108,cs),
(688,989,l),
(693,989,l),
(825,1105,ls),
(898,1169,o),
(942,1197,o),
(992,1197,cs),
(1038,1197,o),
(1059,1164,o),
(1049,1103,cs),
(923,343,l),
(944,374,l),
(917,374,ls),
(806,374,o),
(726,305,o),
(707,187,cs),
(688,70,o),
(747,0,o),
(858,0,cs),
(913,0,l),
(1095,1100,ls),
(1110,1188,o),
(1071,1239,o),
(993,1239,cs),
(933,1239,o),
(880,1215,o),
(796,1136,cs),
(699,1045,l),
(630,1133,ls),
(570,1211,o),
(527,1239,o),
(463,1239,cs),
(389,1239,o),
(338,1191,o),
(323,1103,cs)
);
},
{
closed = 1;
nodes = (
(194,41,l),
(242,333,l),
(271,333,ls),
(362,333,o),
(406,277,o),
(391,187,cs),
(376,98,o),
(309,41,o),
(217,41,cs)
);
},
{
closed = 1;
nodes = (
(776,41,o),
(733,95,o),
(748,181,cs),
(763,274,o),
(827,333,o),
(910,333,cs),
(922,333,l),
(873,41,l),
(862,41,ls)
);
},
{
closed = 1;
nodes = (
(1486,-7,o),
(1564,66,o),
(1584,185,cs),
(1701,895,ls),
(1705,915,o),
(1696,924,o),
(1680,931,cs),
(1544,984,l),
(1554,963,l),
(1568,1046,ls),
(1585,1148,o),
(1645,1187,o),
(1730,1187,cs),
(1811,1187,l),
(1818,1234,l),
(1735,1234,ls),
(1621,1234,o),
(1545,1182,o),
(1524,1049,cs),
(1509,952,l),
(1655,896,l),
(1537,188,ls),
(1522,97,o),
(1461,33,o),
(1382,33,cs),
(1321,33,o),
(1262,46,o),
(1147,175,cs),
(971,374,l),
(950,374,l),
(943,333,l),
(950,333,l),
(1122,140,ls),
(1240,9,o),
(1307,-7,o),
(1382,-7,cs)
);
}
);
width = 1879;
},
{
anchors = (
{
name = bottom;
pos = (1254,0);
},
{
name = bottomright;
pos = (1657,0);
},
{
name = top;
pos = (1458,1234);
},
{
name = topright;
pos = (1861,1234);
}
);
layerId = "11F4534A-B963-4AB5-820F-DAF9A20CD933";
shapes = (
{
closed = 1;
nodes = (
(122,0,l),
(308,0,ls),
(454,0,o),
(538,83,o),
(557,196,cs),
(581,338,o),
(514,413,o),
(383,413,cs),
(330,413,l),
(348,357,l),
(455,1008,ls),
(463,1057,o),
(494,1084,o),
(537,1084,cs),
(576,1084,o),
(608,1057,o),
(653,1008,cs),
(704,952,l),
(743,952,l),
(811,1008,ls),
(873,1060,o),
(914,1084,o),
(953,1084,cs),
(996,1084,o),
(1016,1057,o),
(1008,1008,cs),
(901,357,l),
(938,413,l),
(899,413,ls),
(771,413,o),
(683,338,o),
(664,225,cs),
(640,78,o),
(707,0,o),
(845,0,cs),
(1009,0,l),
(1182,1041,ls),
(1203,1169,o),
(1142,1240,o),
(1022,1240,cs),
(957,1240,o),
(895,1227,o),
(790,1147,cs),
(741,1110,l),
(706,1147,ls),
(632,1225,o),
(580,1240,o),
(519,1240,cs),
(399,1240,o),
(315,1169,o),
(294,1041,cs)
);
},
{
closed = 1;
nodes = (
(303,111,l),
(336,310,l),
(357,310,ls),
(416,310,o),
(445,273,o),
(434,210,cs),
(424,148,o),
(384,111,o),
(328,111,cs)
);
},
{
closed = 1;
nodes = (
(803,111,o),
(777,148,o),
(787,210,cs),
(797,273,o),
(837,310,o),
(895,310,cs),
(902,310,l),
(868,111,l),
(857,111,ls)
);
},
{
closed = 1;
nodes = (
(1572,-12,o),
(1682,70,o),
(1706,208,cs),
(1807,821,ls),
(1815,864,o),
(1803,880,o),
(1763,899,cs),
(1660,947,l),
(1664,887,l),
(1678,970,ls),
(1690,1043,o),
(1725,1077,o),
(1803,1077,cs),
(1890,1077,l),
(1917,1234,l),
(1826,1234,ls),
(1658,1234,o),
(1564,1156,o),
(1535,977,cs),
(1516,862,l),
(1638,807,l),
(1541,226,ls),
(1530,162,o),
(1485,130,o),
(1428,130,cs),
(1358,130,o),
(1313,170,o),
(1254,223,cs),
(1060,396,l),
(999,396,l),
(969,220,l),
(1030,220,l),
(1141,119,ls),
(1216,51,o),
(1296,-12,o),
(1428,-12,cs)
);
}
);
width = 1978;
},
{
anchors = (
{
name = bottom;
pos = (1263,0);
},
{
name = bottomright;
pos = (1777,0);
},
{
name = top;
pos = (1468,1234);
},
{
name = topright;
pos = (1996,1234);
}
);
layerId = "D0EC06BF-13F9-4C88-A6F5-B8203AF6C77E";
shapes = (
{
closed = 1;
nodes = (
(49,0,l),
(322,0,ls),
(472,0,o),
(559,59,o),
(581,192,cs),
(603,327,o),
(540,415,o),
(417,415,cs),
(396,415,l),
(500,341,l),
(594,913,ls),
(599,938,o),
(615,952,o),
(637,952,cs),
(659,952,o),
(677,938,o),
(698,914,cs),
(723,883,l),
(745,883,l),
(781,914,ls),
(813,942,o),
(835,952,o),
(855,952,cs),
(878,952,o),
(888,938,o),
(884,913,cs),
(787,330,l),
(920,413,l),
(885,413,ls),
(767,413,o),
(685,351,o),
(664,221,cs),
(642,87,o),
(703,0,o),
(854,0,cs),
(1127,0,l),
(1294,1010,ls),
(1319,1158,o),
(1262,1240,o),
(1083,1240,cs),
(1011,1240,o),
(914,1226,o),
(798,1147,cs),
(775,1131,l),
(757,1147,ls),
(677,1220,o),
(591,1240,o),
(504,1240,cs),
(328,1240,o),
(241,1158,o),
(216,1010,cs)
);
},
{
closed = 1;
nodes = (
(333,140,l),
(356,279,l),
(367,279,ls),
(415,279,o),
(423,240,o),
(417,207,cs),
(410,159,o),
(379,140,o),
(345,140,cs)
);
},
{
closed = 1;
nodes = (
(843,140,o),
(819,161,o),
(827,207,cs),
(832,242,o),
(854,279,o),
(902,279,cs),
(913,279,l),
(890,140,l),
(878,140,ls)
);
},
{
closed = 1;
nodes = (
(1689,-12,o),
(1805,79,o),
(1833,248,cs),
(1905,685,ls),
(1916,750,o),
(1889,770,o),
(1835,789,cs),
(1679,843,l),
(1711,736,l),
(1728,838,ls),
(1735,876,o),
(1757,895,o),
(1797,895,cs),
(1983,895,l),
(2039,1234,l),
(1829,1234,ls),
(1571,1234,o),
(1482,1097,o),
(1451,907,cs),
(1423,734,l),
(1511,690,l),
(1455,345,ls),
(1449,309,o),
(1425,290,o),
(1394,290,cs),
(1375,290,o),
(1344,297,o),
(1300,327,cs),
(1194,398,l),
(1145,398,l),
(1104,152,l),
(1153,152,l),
(1241,88,ls),
(1348,11,o),
(1435,-12,o),
(1519,-12,cs)
);
}
);
width = 2025;
}
);
metricRight = "=ba-khmer";
script = khmer;
subCategory = Other;
unicode = 6029;
}
{
category = Letter;
glyphname = "nno-khmer";
kernLeft = KH_LO;
layers = (
{
anchors = (
{
name = bottom;
pos = (1173,0);
},
{
name = bottomright;
pos = (1507,0);
},
{
name = top;
pos = (1377,1234);
},
{
name = topright;
pos = (2395,1234);
}
);
layerId = "200BE2C5-40F6-4CF4-AF4F-A33C0CC0964F";
shapes = (
{
closed = 1;
nodes = (
(212,0,ls),
(329,0,o),
(414,68,o),
(431,177,cs),
(453,303,o),
(391,374,o),
(274,374,cs),
(218,374,l),
(244,343,l),
(335,892,ls),
(365,1078,o),
(519,1201,o),
(720,1201,cs),
(907,1201,o),
(1017,1075,o),
(987,892,cs),
(839,0,l),
(890,0,l),
(1233,338,l),
(1463,0,l),
(1507,0,l),
(1655,892,ls),
(1685,1078,o),
(1839,1201,o),
(2040,1201,cs),
(2230,1201,o),
(2337,1075,o),
(2307,892,cs),
(2159,0,l),
(2205,0,l),
(2353,892,ls),
(2388,1103,o),
(2261,1247,o),
(2040,1247,cs),
(1815,1247,o),
(1644,1106,o),
(1608,892,cs),
(1472,69,l),
(1469,69,l),
(1250,389,l),
(1224,389,l),
(900,69,l),
(897,69,l),
(1033,892,ls),
(1068,1103,o),
(940,1247,o),
(720,1247,cs),
(495,1247,o),
(324,1106,o),
(288,892,cs),
(140,0,l)
);
},
{
closed = 1;
nodes = (
(242,333,l),
(270,333,ls),
(360,333,o),
(406,276,o),
(391,184,cs),
(376,96,o),
(310,41,o),
(218,41,cs),
(194,41,l)
);
}
);
width = 2531;
},
{
anchors = (
{
name = bottom;
pos = (1211,0);
},
{
name = bottomright;
pos = (1612,0);
},
{
name = top;
pos = (1415,1234);
},
{
name = topright;
pos = (2491,1234);
}
);
layerId = "11F4534A-B963-4AB5-820F-DAF9A20CD933";
shapes = (
{
closed = 1;
nodes = (
(308,0,ls),
(454,0,o),
(538,83,o),
(557,196,cs),
(581,338,o),
(514,413,o),
(383,413,cs),
(330,413,l),
(348,357,l),
(429,846,ls),
(454,998,o),
(582,1097,o),
(741,1097,cs),
(889,1097,o),
(975,998,o),
(950,846,cs),
(810,0,l),
(979,0,l),
(1261,282,l),
(1452,0,l),
(1612,0,l),
(1751,846,ls),
(1777,998,o),
(1905,1097,o),
(2064,1097,cs),
(2212,1097,o),
(2298,998,o),
(2272,846,cs),
(2133,0,l),
(2300,0,l),
(2441,853,ls),
(2482,1098,o),
(2332,1249,o),
(2079,1249,cs),
(1826,1249,o),
(1626,1098,o),
(1586,853,cs),
(1482,228,l),
(1475,228,l),
(1313,464,l),
(1263,464,l),
(1022,228,l),
(1015,228,l),
(1118,853,ls),
(1159,1098,o),
(1009,1249,o),
(756,1249,cs),
(503,1249,o),
(303,1098,o),
(263,853,cs),
(122,0,l)
);
},
{
closed = 1;
nodes = (
(336,310,l),
(357,310,ls),
(416,310,o),
(445,273,o),
(434,210,cs),
(424,148,o),
(384,111,o),
(328,111,cs),
(303,111,l)
);
}
);
width = 2606;
},
{
anchors = (
{
name = bottom;
pos = (1234,0);
},
{
name = bottomright;
pos = (1755,0);
},
{
name = top;
pos = (1439,1234);
},
{
name = topright;
pos = (2602,1234);
}
);
layerId = "D0EC06BF-13F9-4C88-A6F5-B8203AF6C77E";
shapes = (
{
closed = 1;
nodes = (
(397,0,ls),
(543,0,o),
(626,60,o),
(648,192,cs),
(670,326,o),
(608,414,o),
(482,414,cs),
(476,414,l),
(502,357,l),
(579,822,ls),
(592,902,o),
(653,955,o),
(736,955,cs),
(819,955,o),
(862,902,o),
(849,822,cs),
(713,0,l),
(1101,0,l),
(1270,178,l),
(1382,0,l),
(1755,0,l),
(1891,822,ls),
(1904,902,o),
(1966,955,o),
(2048,955,cs),
(2131,955,o),
(2174,902,o),
(2161,822,cs),
(2025,0,l),
(2419,0,l),
(2557,831,ls),
(2600,1090,o),
(2440,1249,o),
(2097,1249,cs),
(1754,1249,o),
(1547,1090,o),
(1504,831,cs),
(1425,358,l),
(1416,358,l),
(1338,474,l),
(1287,474,l),
(1171,358,l),
(1161,358,l),
(1239,831,ls),
(1282,1089,o),
(1129,1249,o),
(784,1249,cs),
(441,1249,o),
(229,1089,o),
(186,831,cs),
(49,0,l)
);
},
{
closed = 1;
nodes = (
(416,279,l),
(426,279,ls),
(475,279,o),
(483,240,o),
(477,207,cs),
(470,159,o),
(439,140,o),
(405,140,cs),
(393,140,l)
);
}
);
width = 2653;
}
);
script = khmer;
subCategory = Other;
unicode = 6030;
}
{
category = Letter;
glyphname = "ta-khmer";
layers = (
{
anchors = (
{
name = bottom;
pos = (527,0);
},
{
name = bottomright;
pos = (913,0);
},
{
name = top;
pos = (731,1234);
},
{
name = topright;
pos = (1118,1234);
}
);
layerId = "200BE2C5-40F6-4CF4-AF4F-A33C0CC0964F";
shapes = (
{
closed = 1;
nodes = (
(867,0,l),
(913,0,l),
(1009,581,ls),
(1047,809,o),
(921,955,o),
(685,955,cs),
(448,955,o),
(275,812,o),
(237,584,cs),
(140,0,l),
(213,0,ls),
(330,0,o),
(413,67,o),
(432,181,cs),
(453,302,o),
(389,374,o),
(272,374,cs),
(219,374,l),
(244,343,l),
(283,581,ls),
(316,781,o),
(468,908,o),
(685,908,cs),
(892,908,o),
(997,784,o),
(963,584,cs)
);
},
{
closed = 1;
nodes = (
(194,41,l),
(242,333,l),
(271,333,ls),
(362,333,o),
(406,277,o),
(391,187,cs),
(376,98,o),
(309,41,o),
(217,41,cs)
);
},
{
closed = 1;
nodes = (
(1117,1187,l),
(1125,1234,l),
(338,1234,l),
(330,1187,l)
);
}
);
width = 1238;
},
{
anchors = (
{
name = bottom;
pos = (565,0);
},
{
name = bottomright;
pos = (1009,0);
},
{
name = top;
pos = (770,1234);
},
{
name = topright;
pos = (1214,1234);
}
);
layerId = "11F4534A-B963-4AB5-820F-DAF9A20CD933";
shapes = (
{
closed = 1;
nodes = (
(842,0,l),
(1009,0,l),
(1094,514,ls),
(1134,755,o),
(982,920,o),
(717,920,cs),
(453,920,o),
(247,755,o),
(207,514,cs),
(122,0,l),
(308,0,ls),
(454,0,o),
(538,83,o),
(557,196,cs),
(581,338,o),
(514,413,o),
(383,413,cs),
(330,413,l),
(348,357,l),
(373,505,ls),
(398,661,o),
(533,768,o),
(703,768,cs),
(861,768,o),
(951,661,o),
(926,505,cs)
);
},
{
closed = 1;
nodes = (
(303,111,l),
(336,310,l),
(357,310,ls),
(416,310,o),
(445,273,o),
(434,210,cs),
(424,148,o),
(384,111,o),
(328,111,cs)
);
},
{
closed = 1;
nodes = (
(1195,1077,l),
(1221,1234,l),
(319,1234,l),
(293,1077,l)
);
}
);
width = 1316;
},
{
anchors = (
{
name = bottom;
pos = (584,0);
},
{
name = bottomright;
pos = (1120,0);
},
{
name = top;
pos = (789,1234);
},
{
name = topright;
pos = (1324,1234);
}
);
layerId = "D0EC06BF-13F9-4C88-A6F5-B8203AF6C77E";
shapes = (
{
closed = 1;
nodes = (
(725,0,l),
(1120,0,l),
(1188,414,ls),
(1230,672,o),
(1073,831,o),
(722,831,cs),
(371,831,o),
(159,672,o),
(117,414,cs),
(49,0,l),
(397,0,ls),
(543,0,o),
(626,60,o),
(648,192,cs),
(670,326,o),
(608,414,o),
(482,414,cs),
(476,414,l),
(502,357,l),
(509,397,ls),
(522,481,o),
(586,537,o),
(673,537,cs),
(760,537,o),
(805,481,o),
(791,397,cs)
);
},
{
closed = 1;
nodes = (
(393,140,l),
(416,279,l),
(426,279,ls),
(475,279,o),
(482,240,o),
(477,207,cs),
(470,159,o),
(439,140,o),
(405,140,cs)
);
},
{
closed = 1;
nodes = (
(1276,895,l),
(1332,1234,l),
(246,1234,l),
(190,895,l)
);
}
);
width = 1353;
}
);
script = khmer;
subCategory = Other;
unicode = 6031;
}
{
category = Letter;
glyphname = "tha-khmer";
kernLeft = KH_CA;
layers = (
{
anchors = (
{
name = bottom;
pos = (526,0);
},
{
name = bottomright;
pos = (898,0);
},
{
name = top;
pos = (731,1234);
},
{
name = topright;
pos = (1117,1234);
}
);
layerId = "200BE2C5-40F6-4CF4-AF4F-A33C0CC0964F";
shapes = (
{
closed = 1;
nodes = (
(757,-15,o),
(934,124,o),
(968,336,cs),
(1071,955,l),
(1000,955,ls),
(883,955,o),
(797,886,o),
(779,778,cs),
(758,651,o),
(820,581,o),
(937,581,cs),
(992,581,l),
(968,612,l),
(922,336,ls),
(891,153,o),
(734,32,o),
(526,32,cs),
(323,32,o),
(212,156,o),
(242,336,cs),
(338,915,ls),
(342,936,o),
(333,945,o),
(319,950,cs),
(215,984,l),
(225,963,l),
(238,1040,ls),
(256,1147,o),
(321,1187,o),
(414,1187,cs),
(1014,1187,ls),
(1080,1187,o),
(1113,1212,o),
(1123,1274,cs),
(1140,1374,l),
(1095,1374,l),
(1078,1274,ls),
(1073,1242,o),
(1056,1234,o),
(1023,1234,cs),
(422,1234,ls),
(300,1234,o),
(218,1178,o),
(194,1040,cs),
(180,952,l),
(291,914,l),
(196,336,ls),
(162,128,o),
(294,-15,o),
(523,-15,cs)
);
},
{
closed = 1;
nodes = (
(1017,914,l),
(969,621,l),
(942,621,ls),
(851,621,o),
(805,679,o),
(821,771,cs),
(835,859,o),
(901,914,o),
(992,914,cs)
);
}
);
width = 1238;
},
{
anchors = (
{
name = bottom;
pos = (565,0);
},
{
name = bottomright;
pos = (995,0);
},
{
name = top;
pos = (770,1234);
},
{
name = topright;
pos = (1214,1234);
}
);
layerId = "11F4534A-B963-4AB5-820F-DAF9A20CD933";
shapes = (
{
closed = 1;
nodes = (
(836,-15,o),
(1033,144,o),
(1072,377,cs),
(1161,920,l),
(975,920,ls),
(829,920,o),
(744,837,o),
(725,724,cs),
(702,582,o),
(768,506,o),
(899,506,cs),
(953,506,l),
(935,562,l),
(906,386,ls),
(880,234,o),
(755,127,o),
(576,127,cs),
(409,127,o),
(327,234,o),
(353,386,cs),
(423,813,ls),
(431,856,o),
(418,871,o),
(380,891,cs),
(270,950,l),
(296,887,l),
(311,974,ls),
(322,1044,o),
(360,1077,o),
(432,1077,cs),
(1001,1077,ls),
(1124,1077,o),
(1203,1131,o),
(1223,1247,cs),
(1244,1374,l),
(1080,1374,l),
(1062,1267,ls),
(1058,1243,o),
(1047,1234,o),
(1022,1234,cs),
(461,1234,ls),
(291,1234,o),
(196,1156,o),
(167,977,cs),
(148,862,l),
(254,801,l),
(184,377,ls),
(146,144,o),
(290,-15,o),
(563,-15,cs)
);
},
{
closed = 1;
nodes = (
(980,809,l),
(947,610,l),
(926,610,ls),
(867,610,o),
(838,647,o),
(848,709,cs),
(859,772,o),
(899,809,o),
(955,809,cs)
);
}
);
width = 1316;
},
{
anchors = (
{
name = bottom;
pos = (584,0);
},
{
name = bottomright;
pos = (1105,0);
},
{
name = top;
pos = (788,1234);
},
{
name = topright;
pos = (1324,1234);
}
);
layerId = "D0EC06BF-13F9-4C88-A6F5-B8203AF6C77E";
shapes = (
{
closed = 1;
nodes = (
(918,-15,o),
(1142,142,o),
(1187,407,cs),
(1254,819,l),
(906,819,ls),
(760,819,o),
(677,757,o),
(656,626,cs),
(634,492,o),
(696,405,o),
(821,405,cs),
(828,405,l),
(803,461,l),
(795,416,ls),
(781,335,o),
(712,278,o),
(629,278,cs),
(546,278,o),
(498,335,o),
(512,416,cs),
(556,685,ls),
(568,756,o),
(532,773,o),
(486,789,cs),
(330,843,l),
(364,736,l),
(381,838,ls),
(387,876,o),
(413,895,o),
(458,895,cs),
(999,895,ls),
(1177,895,o),
(1291,993,o),
(1321,1171,cs),
(1348,1336,l),
(961,1336,l),
(947,1254,ls),
(944,1237,o),
(936,1234,o),
(923,1234,cs),
(482,1234,ls),
(221,1234,o),
(131,1097,o),
(100,907,cs),
(72,737,l),
(163,693,l),
(116,407,ls),
(71,142,o),
(245,-15,o),
(581,-15,cs)
);
},
{
closed = 1;
nodes = (
(910,679,l),
(888,539,l),
(878,539,ls),
(829,539,o),
(820,578,o),
(826,612,cs),
(833,658,o),
(864,679,o),
(899,679,cs)
);
}
);
width = 1353;
}
);
script = khmer;
subCategory = Other;
unicode = 6032;
}
{
category = Letter;
glyphname = "to-khmer";
kernLeft = KH_TO;
kernRight = KH_TO;
layers = (
{
anchors = (
{
name = bottom;
pos = (474,0);
},
{
name = bottomright;
pos = (758,0);
},
{
name = top;
pos = (685,1234);
},
{
name = topright;
pos = (1070,1234);
}
);
layerId = "200BE2C5-40F6-4CF4-AF4F-A33C0CC0964F";
shapes = (
{
closed = 1;
nodes = (
(816,505,l),
(472,562,o),
(255,655,o),
(298,915,cs),
(325,1082,o),
(473,1202,o),
(688,1202,cs),
(877,1202,o),
(981,1108,o),
(1000,946,c),
(1046,960,l),
(1027,1134,o),
(907,1249,o),
(688,1249,cs),
(449,1249,o),
(282,1110,o),
(252,926,cs),
(202,627,o),
(431,522,o),
(809,461,c)
);
},
{
closed = 1;
nodes = (
(651,-15,o),
(789,92,o),
(815,252,cs),
(852,478,l),
(834,458,l),
(876,458,ls),
(956,458,o),
(1015,511,o),
(1028,590,cs),
(1043,680,o),
(1001,731,o),
(921,731,cs),
(848,731,l),
(807,485,l),
(768,252,ls),
(747,119,o),
(628,31,o),
(470,31,cs),
(324,31,o),
(239,122,o),
(260,252,cs),
(287,413,l),
(240,413,l),
(214,252,ls),
(188,94,o),
(292,-15,o),
(470,-15,cs)
);
},
{
closed = 1;
nodes = (
(856,499,l),
(887,690,l),
(914,690,ls),
(968,690,o),
(996,655,o),
(987,597,cs),
(976,536,o),
(939,499,o),
(886,499,cs)
);
}
);
width = 1174;
},
{
anchors = (
{
name = bottom;
pos = (477,0);
},
{
name = bottomright;
pos = (819,0);
},
{
name = top;
pos = (699,1234);
},
{
name = topright;
pos = (1110,1234);
}
);
layerId = "11F4534A-B963-4AB5-820F-DAF9A20CD933";
shapes = (
{
closed = 1;
nodes = (
(784,552,l),
(488,594,o),
(343,682,o),
(374,870,cs),
(397,1011,o),
(508,1099,o),
(675,1099,cs),
(829,1099,o),
(912,1022,o),
(919,894,c),
(1101,920,l),
(1089,1139,o),
(933,1249,o),
(688,1249,cs),
(413,1249,o),
(234,1099,o),
(201,895,cs),
(156,621,o),
(342,472,o),
(763,424,c)
);
},
{
closed = 1;
nodes = (
(688,-15,o),
(842,107,o),
(872,285,cs),
(902,465,l),
(837,412,l),
(888,412,ls),
(997,412,o),
(1067,473,o),
(1081,562,cs),
(1100,679,o),
(1051,739,o),
(941,739,cs),
(781,739,l),
(741,498,l),
(708,293,ls),
(692,196,o),
(614,131,o),
(490,131,cs),
(379,131,o),
(328,196,o),
(344,293,cs),
(363,410,l),
(197,410,l),
(178,293,ls),
(148,107,o),
(257,-15,o),
(472,-15,cs)
);
},
{
closed = 1;
nodes = (
(889,509,l),
(912,645,l),
(924,645,ls),
(962,645,o),
(983,619,o),
(976,576,cs),
(969,534,o),
(940,509,o),
(901,509,cs)
);
}
);
width = 1211;
},
{
anchors = (
{
name = bottom;
pos = (545,0);
},
{
name = bottomright;
pos = (1022,0);
},
{
name = top;
pos = (749,1234);
},
{
name = topright;
pos = (1266,1234);
}
);
layerId = "D0EC06BF-13F9-4C88-A6F5-B8203AF6C77E";
shapes = (
{
closed = 1;
nodes = (
(891,637,l),
(618,660,o),
(524,708,o),
(544,826,cs),
(559,915,o),
(624,955,o),
(700,955,cs),
(792,955,o),
(833,896,o),
(825,812,c),
(1218,812,l),
(1257,1090,o),
(1080,1249,o),
(733,1249,cs),
(442,1249,o),
(191,1123,o),
(146,861,cs),
(103,605,o),
(248,450,o),
(837,426,c)
);
},
{
closed = 1;
nodes = (
(865,-15,o),
(1045,101,o),
(1083,331,cs),
(1101,440,l),
(988,358,l),
(1010,358,ls),
(1108,358,o),
(1185,425,o),
(1202,526,cs),
(1219,627,o),
(1166,714,o),
(1024,714,cs),
(871,714,l),
(750,592,l),
(711,355,ls),
(701,296,o),
(657,261,o),
(598,261,cs),
(540,261,o),
(507,296,o),
(517,355,cs),
(525,403,l),
(132,403,l),
(123,346,ls),
(84,101,o),
(229,-15,o),
(551,-15,cs)
);
},
{
closed = 1;
nodes = (
(974,461,l),
(994,586,l),
(1005,586,ls),
(1040,586,o),
(1063,561,o),
(1056,523,cs),
(1051,486,o),
(1020,461,o),
(984,461,cs)
);
}
);
width = 1293;
}
);
script = khmer;
subCategory = Other;
unicode = 6033;
}
{
category = Letter;
glyphname = "tho-khmer";
kernLeft = KH_CA;
layers = (
{
anchors = (
{
name = bottom;
pos = (527,0);
},
{
name = bottomright;
pos = (913,0);
},
{
name = top;
pos = (731,1234);
},
{
name = topright;
pos = (1118,1234);
}
);
layerId = "200BE2C5-40F6-4CF4-AF4F-A33C0CC0964F";
shapes = (
{
closed = 1;
nodes = (
(190,0,l),
(593,375,l),
(872,0,l),
(913,0,l),
(1071,955,l),
(998,955,ls),
(881,955,o),
(799,888,o),
(780,775,cs),
(760,653,o),
(822,581,o),
(939,581,cs),
(992,581,l),
(967,612,l),
(878,71,l),
(875,71,l),
(611,424,l),
(582,424,l),
(201,71,l),
(199,71,l),
(338,914,ls),
(342,934,o),
(333,944,o),
(317,950,cs),
(215,984,l),
(226,963,l),
(238,1038,ls),
(255,1146,o),
(322,1187,o),
(416,1187,cs),
(1110,1187,l),
(1118,1234,l),
(421,1234,ls),
(299,1234,o),
(218,1179,o),
(195,1041,cs),
(180,952,l),
(292,914,l),
(140,0,l)
);
},
{
closed = 1;
nodes = (
(850,621,o),
(805,677,o),
(821,768,cs),
(835,857,o),
(903,914,o),
(995,914,cs),
(1018,914,l),
(969,621,l),
(940,621,ls)
);
}
);
width = 1238;
},
{
anchors = (
{
name = bottom;
pos = (565,0);
},
{
name = bottomright;
pos = (1009,0);
},
{
name = top;
pos = (770,1234);
},
{
name = topright;
pos = (1214,1234);
}
);
layerId = "11F4534A-B963-4AB5-820F-DAF9A20CD933";
shapes = (
{
closed = 1;
nodes = (
(296,0,l),
(617,269,l),
(849,0,l),
(1009,0,l),
(1161,920,l),
(975,920,ls),
(829,920,o),
(744,837,o),
(725,724,cs),
(702,582,o),
(768,506,o),
(899,506,cs),
(953,506,l),
(935,562,l),
(875,201,l),
(868,201,l),
(671,424,l),
(601,424,l),
(330,201,l),
(322,201,l),
(423,813,ls),
(431,856,o),
(418,871,o),
(380,891,cs),
(270,950,l),
(296,887,l),
(311,974,ls),
(322,1044,o),
(360,1077,o),
(432,1077,cs),
(1195,1077,l),
(1221,1234,l),
(461,1234,ls),
(291,1234,o),
(196,1156,o),
(167,977,cs),
(148,862,l),
(254,801,l),
(122,0,l)
);
},
{
closed = 1;
nodes = (
(867,610,o),
(838,647,o),
(848,709,cs),
(859,772,o),
(899,809,o),
(955,809,cs),
(980,809,l),
(947,610,l),
(926,610,ls)
);
}
);
width = 1316;
},
{
anchors = (
{
name = bottom;
pos = (584,0);
},
{
name = bottomright;
pos = (1119,0);
},
{
name = top;
pos = (788,1234);
},
{
name = topright;
pos = (1324,1234);
}
);
layerId = "D0EC06BF-13F9-4C88-A6F5-B8203AF6C77E";
shapes = (
{
closed = 1;
nodes = (
(445,0,l),
(616,154,l),
(736,0,l),
(1119,0,l),
(1254,819,l),
(906,819,ls),
(760,819,o),
(677,757,o),
(656,626,cs),
(634,492,o),
(696,405,o),
(821,405,cs),
(828,405,l),
(801,461,l),
(771,276,l),
(762,276,l),
(675,377,l),
(617,377,l),
(497,276,l),
(488,276,l),
(556,685,ls),
(567,750,o),
(538,771,o),
(486,789,cs),
(330,843,l),
(364,736,l),
(381,838,ls),
(388,876,o),
(413,895,o),
(458,895,cs),
(1268,895,l),
(1324,1234,l),
(482,1234,ls),
(221,1234,o),
(131,1097,o),
(100,907,cs),
(72,737,l),
(163,693,l),
(48,0,l)
);
},
{
closed = 1;
nodes = (
(829,539,o),
(820,578,o),
(826,612,cs),
(833,658,o),
(864,679,o),
(899,679,cs),
(910,679,l),
(888,539,l),
(878,539,ls)
);
}
);
width = 1353;
}
);
script = khmer;
subCategory = Other;
unicode = 6034;
}
{
category = Letter;
glyphname = "no-khmer";
kernLeft = KH_NO;
kernRight = KH_NO;
layers = (
{
anchors = (
{
name = bottom;
pos = (494,0);
},
{
name = bottomright;
pos = (874,0);
},
{
name = top;
pos = (691,1234);
},
{
name = topright;
pos = (1071,1234);
}
);
layerId = "200BE2C5-40F6-4CF4-AF4F-A33C0CC0964F";
shapes = (
{
closed = 1;
nodes = (
(750,-15,o),
(905,100,o),
(940,312,cs),
(968,482,o),
(878,598,o),
(692,626,cs),
(516,653,ls),
(363,677,o),
(268,739,o),
(295,904,cs),
(325,1081,o),
(471,1202,o),
(684,1202,cs),
(875,1202,o),
(980,1110,o),
(999,947,c),
(1045,959,l),
(1027,1132,o),
(904,1249,o),
(684,1249,cs),
(450,1249,o),
(282,1111,o),
(249,912,cs),
(216,713,o),
(333,635,o),
(504,609,cs),
(680,582,ls),
(840,557,o),
(918,461,o),
(895,321,cs),
(864,130,o),
(729,31,o),
(554,31,cs),
(363,31,o),
(187,167,o),
(226,403,cs),
(233,442,l),
(188,442,l),
(114,0,l),
(159,0,l),
(196,219,l),
(203,219,l),
(236,89,o),
(362,-15,o),
(552,-15,cs)
);
}
);
width = 1174;
},
{
anchors = (
{
name = bottom;
pos = (541,0);
},
{
name = bottomright;
pos = (951,0);
},
{
name = top;
pos = (767,1234);
},
{
name = topright;
pos = (1173,1234);
}
);
layerId = "11F4534A-B963-4AB5-820F-DAF9A20CD933";
shapes = (
{
closed = 1;
nodes = (
(855,-15,o),
(1027,94,o),
(1064,314,cs),
(1102,542,o),
(1001,648,o),
(787,670,cs),
(610,689,ls),
(489,702,o),
(405,765,o),
(425,885,cs),
(446,1011,o),
(574,1097,o),
(739,1097,cs),
(891,1097,o),
(975,1007,o),
(975,886,c),
(1154,917,l),
(1153,1109,o),
(1014,1249,o),
(746,1249,cs),
(480,1249,o),
(284,1105,o),
(250,899,cs),
(213,679,o),
(330,561,o),
(555,537,cs),
(755,516,ls),
(844,506,o),
(915,467,o),
(893,334,cs),
(872,204,o),
(780,137,o),
(640,137,cs),
(453,137,o),
(332,269,o),
(355,401,cs),
(359,426,l),
(195,426,l),
(124,0,l),
(287,0,l),
(315,167,l),
(324,167,l),
(357,63,o),
(450,-15,o),
(640,-15,cs)
);
}
);
width = 1276;
},
{
anchors = (
{
name = bottom;
pos = (566,0);
},
{
name = bottomright;
pos = (1067,0);
},
{
name = top;
pos = (781,1234);
},
{
name = topright;
pos = (1303,1234);
}
);
layerId = "D0EC06BF-13F9-4C88-A6F5-B8203AF6C77E";
shapes = (
{
closed = 1;
nodes = (
(957,-15,o),
(1112,87,o),
(1150,314,cs),
(1185,531,o),
(1082,667,o),
(838,688,cs),
(692,701,ls),
(592,710,o),
(538,754,o),
(552,832,cs),
(564,911,o),
(629,955,o),
(707,955,cs),
(795,955,o),
(840,900,o),
(832,812,c),
(1225,812,l),
(1264,1091,o),
(1078,1249,o),
(741,1249,cs),
(439,1249,o),
(198,1134,o),
(152,854,cs),
(111,608,o),
(263,493,o),
(496,469,cs),
(629,455,ls),
(734,445,o),
(771,399,o),
(761,338,cs),
(749,267,o),
(685,224,o),
(609,224,cs),
(527,224,o),
(488,275,o),
(501,351,cs),
(509,403,l),
(116,403,l),
(49,0,l),
(427,0,l),
(446,116,l),
(458,116,l),
(484,55,o),
(546,-15,o),
(733,-15,cs)
);
}
);
width = 1298;
}
);
script = khmer;
subCategory = Other;
unicode = 6035;
}
{
category = Letter;
glyphname = "ba-khmer";
kernLeft = KH_BA;
layers = (
{
anchors = (
{
name = bottom;
pos = (520,0);
},
{
name = bottomright;
pos = (884,0);
},
{
name = indpTail;
pos = (911,73);
},
{
name = top;
pos = (724,1234);
},
{
name = topright;
pos = (1103,1234);
}
);
layerId = "200BE2C5-40F6-4CF4-AF4F-A33C0CC0964F";
shapes = (
{
closed = 1;
nodes = (
(747,-15,o),
(919,122,o),
(953,327,cs),
(1047,895,ls),
(1051,915,o),
(1042,924,o),
(1026,931,cs),
(890,984,l),
(900,963,l),
(913,1046,ls),
(929,1148,o),
(991,1187,o),
(1076,1187,cs),
(1156,1187,l),
(1164,1234,l),
(1081,1234,ls),
(967,1234,o),
(892,1182,o),
(870,1049,cs),
(854,952,l),
(1000,896,l),
(907,330,ls),
(877,151,o),
(724,32,o),
(521,32,cs),
(322,32,o),
(212,151,o),
(242,327,cs),
(335,895,ls),
(339,915,o),
(330,924,o),
(314,931,cs),
(178,984,l),
(188,963,l),
(202,1046,ls),
(218,1148,o),
(279,1187,o),
(365,1187,cs),
(445,1187,l),
(453,1234,l),
(369,1234,ls),
(255,1234,o),
(180,1182,o),
(159,1049,cs),
(143,952,l),
(289,896,l),
(195,330,ls),
(161,126,o),
(293,-15,o),
(520,-15,cs)
);
}
);
width = 1224;
},
{
anchors = (
{
name = bottom;
pos = (561,0);
},
{
name = bottomright;
pos = (987,0);
},
{
name = indpTail;
pos = (1014,73);
},
{
name = top;
pos = (767,1234);
},
{
name = topright;
pos = (1206,1234);
}
);
layerId = "11F4534A-B963-4AB5-820F-DAF9A20CD933";
shapes = (
{
closed = 1;
nodes = (
(821,-15,o),
(1026,147,o),
(1065,384,cs),
(1138,821,ls),
(1145,864,o),
(1134,880,o),
(1094,899,cs),
(991,947,l),
(995,887,l),
(1008,970,ls),
(1021,1043,o),
(1056,1077,o),
(1134,1077,cs),
(1221,1077,l),
(1247,1234,l),
(1156,1234,ls),
(988,1234,o),
(894,1156,o),
(865,977,cs),
(846,862,l),
(968,807,l),
(899,393,ls),
(874,241,o),
(741,137,o),
(574,137,cs),
(418,137,o),
(328,241,o),
(354,393,cs),
(425,821,ls),
(432,864,o),
(421,880,o),
(381,899,cs),
(278,947,l),
(282,887,l),
(295,970,ls),
(308,1043,o),
(343,1077,o),
(421,1077,cs),
(508,1077,l),
(534,1234,l),
(443,1234,ls),
(275,1234,o),
(181,1156,o),
(152,977,cs),
(133,862,l),
(255,807,l),
(185,384,ls),
(146,147,o),
(298,-15,o),
(560,-15,cs)
);
}
);
width = 1308;
},
{
anchors = (
{
name = bottom;
pos = (583,0);
},
{
name = bottomright;
pos = (1104,0);
},
{
name = indpTail;
pos = (1133,73);
},
{
name = top;
pos = (791,1234);
},
{
name = topright;
pos = (1322,1234);
}
);
layerId = "D0EC06BF-13F9-4C88-A6F5-B8203AF6C77E";
shapes = (
{
closed = 1;
nodes = (
(931,-15,o),
(1142,144,o),
(1185,403,cs),
(1232,685,ls),
(1243,750,o),
(1217,770,o),
(1163,789,cs),
(1007,843,l),
(1038,736,l),
(1055,838,ls),
(1062,876,o),
(1085,895,o),
(1125,895,cs),
(1310,895,l),
(1366,1234,l),
(1156,1234,ls),
(899,1234,o),
(809,1097,o),
(778,907,cs),
(749,734,l),
(839,690,l),
(794,418,ls),
(780,334,o),
(715,278,o),
(629,278,cs),
(542,278,o),
(497,334,o),
(511,418,cs),
(555,685,ls),
(566,750,o),
(540,770,o),
(485,789,cs),
(330,843,l),
(361,736,l),
(378,838,ls),
(385,876,o),
(408,895,o),
(447,895,cs),
(634,895,l),
(690,1234,l),
(479,1234,ls),
(210,1234,o),
(130,1082,o),
(101,907,cs),
(73,734,l),
(162,690,l),
(114,403,ls),
(71,144,o),
(229,-15,o),
(580,-15,cs)
);
}
);
width = 1352;
}
);
script = khmer;
subCategory = Other;
unicode = 6036;
}
{
category = Letter;
glyphname = "pha-khmer";
kernLeft = KH_CA;
layers = (
{
anchors = (
{
name = bottom;
pos = (526,0);
},
{
name = bottomright;
pos = (912,0);
},
{
name = top;
pos = (731,1234);
},
{
name = topright;
pos = (1117,1234);
}
);
layerId = "200BE2C5-40F6-4CF4-AF4F-A33C0CC0964F";
shapes = (
{
closed = 1;
nodes = (
(188,0,l),
(592,375,l),
(871,0,l),
(912,0,l),
(1070,955,l),
(999,955,ls),
(882,955,o),
(797,886,o),
(779,778,cs),
(758,651,o),
(820,581,o),
(937,581,cs),
(992,581,l),
(967,612,l),
(878,71,l),
(875,71,l),
(611,424,l),
(582,424,l),
(201,71,l),
(198,71,l),
(338,915,ls),
(341,936,o),
(334,945,o),
(318,950,cs),
(215,984,l),
(225,963,l),
(238,1040,ls),
(256,1147,o),
(320,1187,o),
(414,1187,cs),
(1014,1187,ls),
(1080,1187,o),
(1113,1212,o),
(1123,1274,cs),
(1140,1374,l),
(1095,1374,l),
(1078,1274,ls),
(1073,1246,o),
(1061,1234,o),
(1023,1234,cs),
(422,1234,ls),
(300,1234,o),
(218,1178,o),
(194,1040,cs),
(180,952,l),
(291,914,l),
(140,0,l)
);
},
{
closed = 1;
nodes = (
(851,621,o),
(805,679,o),
(820,771,cs),
(835,859,o),
(901,914,o),
(992,914,cs),
(1017,914,l),
(968,621,l),
(941,621,ls)
);
}
);
width = 1238;
},
{
anchors = (
{
name = bottom;
pos = (565,0);
},
{
name = bottomright;
pos = (1009,0);
},
{
name = top;
pos = (770,1234);
},
{
name = topright;
pos = (1214,1234);
}
);
layerId = "11F4534A-B963-4AB5-820F-DAF9A20CD933";
shapes = (
{
closed = 1;
nodes = (
(296,0,l),
(617,269,l),
(849,0,l),
(1009,0,l),
(1161,920,l),
(975,920,ls),
(829,920,o),
(744,837,o),
(725,724,cs),
(702,582,o),
(768,506,o),
(899,506,cs),
(953,506,l),
(935,562,l),
(875,201,l),
(868,201,l),
(671,424,l),
(601,424,l),
(330,201,l),
(322,201,l),
(423,813,ls),
(431,856,o),
(418,871,o),
(380,891,cs),
(270,950,l),
(296,887,l),
(311,974,ls),
(322,1044,o),
(360,1077,o),
(432,1077,cs),
(1001,1077,ls),
(1124,1077,o),
(1203,1131,o),
(1223,1247,cs),
(1244,1374,l),
(1080,1374,l),
(1062,1267,ls),
(1057,1243,o),
(1047,1234,o),
(1022,1234,cs),
(461,1234,ls),
(291,1234,o),
(196,1156,o),
(167,977,cs),
(148,862,l),
(254,801,l),
(122,0,l)
);
},
{
closed = 1;
nodes = (
(867,610,o),
(838,647,o),
(848,709,cs),
(859,772,o),
(899,809,o),
(955,809,cs),
(980,809,l),
(947,610,l),
(926,610,ls)
);
}
);
width = 1316;
},
{
anchors = (
{
name = bottom;
pos = (584,0);
},
{
name = bottomright;
pos = (1119,0);
},
{
name = top;
pos = (788,1234);
},
{
name = topright;
pos = (1324,1234);
}
);
layerId = "D0EC06BF-13F9-4C88-A6F5-B8203AF6C77E";
shapes = (
{
closed = 1;
nodes = (
(445,0,l),
(616,154,l),
(736,0,l),
(1119,0,l),
(1254,819,l),
(906,819,ls),
(760,819,o),
(677,757,o),
(656,626,cs),
(634,492,o),
(696,405,o),
(821,405,cs),
(828,405,l),
(801,461,l),
(771,276,l),
(762,276,l),
(675,377,l),
(617,377,l),
(497,276,l),
(488,276,l),
(556,685,ls),
(568,756,o),
(532,773,o),
(486,789,cs),
(330,843,l),
(364,736,l),
(381,838,ls),
(388,876,o),
(413,895,o),
(458,895,cs),
(999,895,ls),
(1177,895,o),
(1292,993,o),
(1321,1171,cs),
(1348,1336,l),
(961,1336,l),
(947,1254,ls),
(944,1237,o),
(936,1234,o),
(923,1234,cs),
(482,1234,ls),
(221,1234,o),
(131,1097,o),
(100,907,cs),
(72,737,l),
(163,693,l),
(48,0,l)
);
},
{
closed = 1;
nodes = (
(829,539,o),
(820,578,o),
(826,612,cs),
(833,658,o),
(864,679,o),
(899,679,cs),
(910,679,l),
(888,539,l),
(878,539,ls)
);
}
);
width = 1353;
}
);
script = khmer;
subCategory = Other;
unicode = 6037;
}
{
category = Letter;
glyphname = "po-khmer";
kernLeft = KH_PO;
layers = (
{
anchors = (
{
name = bottom;
pos = (527,0);
},
{
name = bottomright;
pos = (913,0);
},
{
name = indpTail;
pos = (926,73);
},
{
name = top;
pos = (731,1234);
},
{
name = topright;
pos = (1118,1234);
}
);
layerId = "200BE2C5-40F6-4CF4-AF4F-A33C0CC0964F";
shapes = (
{
closed = 1;
nodes = (
(212,0,ls),
(329,0,o),
(414,68,o),
(431,177,cs),
(453,303,o),
(391,374,o),
(274,374,cs),
(218,374,l),
(244,343,l),
(370,1102,ls),
(380,1163,o),
(413,1197,o),
(460,1197,cs),
(509,1197,o),
(545,1171,o),
(596,1107,cs),
(688,989,l),
(693,989,l),
(824,1107,ls),
(897,1172,o),
(940,1197,o),
(990,1197,cs),
(1037,1197,o),
(1059,1163,o),
(1049,1102,cs),
(867,0,l),
(913,0,l),
(1096,1102,ls),
(1110,1190,o),
(1073,1239,o),
(997,1239,cs),
(935,1239,o),
(877,1215,o),
(793,1134,cs),
(700,1045,l),
(629,1134,ls),
(568,1212,o),
(529,1239,o),
(467,1239,cs),
(391,1239,o),
(338,1190,o),
(323,1102,cs),
(140,0,l)
);
},
{
closed = 1;
nodes = (
(242,333,l),
(270,333,ls),
(360,333,o),
(406,276,o),
(391,184,cs),
(376,96,o),
(310,41,o),
(218,41,cs),
(194,41,l)
);
}
);
width = 1238;
},
{
anchors = (
{
name = bottom;
pos = (565,0);
},
{
name = bottomright;
pos = (1009,0);
},
{
name = indpTail;
pos = (1021,73);
},
{
name = top;
pos = (770,1234);
},
{
name = topright;
pos = (1199,1234);
}
);
layerId = "11F4534A-B963-4AB5-820F-DAF9A20CD933";
shapes = (
{
closed = 1;
nodes = (
(308,0,ls),
(454,0,o),
(538,83,o),
(557,196,cs),
(581,338,o),
(514,413,o),
(383,413,cs),
(330,413,l),
(348,357,l),
(455,1008,ls),
(463,1057,o),
(494,1084,o),
(537,1084,cs),
(576,1084,o),
(608,1057,o),
(653,1008,cs),
(704,952,l),
(743,952,l),
(811,1008,ls),
(873,1060,o),
(914,1084,o),
(953,1084,cs),
(996,1084,o),
(1016,1057,o),
(1008,1008,cs),
(842,0,l),
(1009,0,l),
(1182,1041,ls),
(1203,1169,o),
(1142,1240,o),
(1022,1240,cs),
(957,1240,o),
(895,1227,o),
(790,1147,cs),
(741,1110,l),
(706,1147,ls),
(632,1225,o),
(580,1240,o),
(519,1240,cs),
(399,1240,o),
(315,1169,o),
(294,1041,cs),
(122,0,l)
);
},
{
closed = 1;
nodes = (
(336,310,l),
(357,310,ls),
(416,310,o),
(445,273,o),
(434,210,cs),
(424,148,o),
(384,111,o),
(328,111,cs),
(303,111,l)
);
}
);
width = 1316;
},
{
anchors = (
{
name = bottom;
pos = (588,0);
},
{
name = bottomright;
pos = (1127,0);
},
{
name = indpTail;
pos = (1139,73);
},
{
name = top;
pos = (792,1234);
},
{
name = topright;
pos = (1332,1234);
}
);
layerId = "D0EC06BF-13F9-4C88-A6F5-B8203AF6C77E";
shapes = (
{
closed = 1;
nodes = (
(397,0,ls),
(543,0,o),
(626,60,o),
(648,192,cs),
(670,326,o),
(608,414,o),
(482,414,cs),
(476,414,l),
(502,357,l),
(594,913,ls),
(599,938,o),
(615,952,o),
(637,952,cs),
(659,952,o),
(677,938,o),
(698,914,cs),
(723,883,l),
(745,883,l),
(781,914,ls),
(813,942,o),
(835,952,o),
(855,952,cs),
(878,952,o),
(888,938,o),
(884,913,cs),
(733,0,l),
(1127,0,l),
(1294,1010,ls),
(1319,1158,o),
(1262,1240,o),
(1083,1240,cs),
(1011,1240,o),
(914,1226,o),
(798,1147,cs),
(775,1131,l),
(757,1147,ls),
(677,1220,o),
(591,1240,o),
(504,1240,cs),
(328,1240,o),
(241,1158,o),
(216,1010,cs),
(49,0,l)
);
},
{
closed = 1;
nodes = (
(416,279,l),
(426,279,ls),
(475,279,o),
(483,240,o),
(477,207,cs),
(470,159,o),
(439,140,o),
(405,140,cs),
(393,140,l)
);
}
);
width = 1361;
}
);
script = khmer;
subCategory = Other;
unicode = 6038;
}
{
category = Letter;
glyphname = "pho-khmer";
kernLeft = KH_PHO;
layers = (
{
anchors = (
{
name = bottom;
pos = (538,0);
},
{
name = bottomright;
pos = (928,0);
},
{
name = top;
pos = (742,1234);
},
{
name = topright;
pos = (1133,1234);
}
);
layerId = "200BE2C5-40F6-4CF4-AF4F-A33C0CC0964F";
shapes = (
{
closed = 1;
nodes = (
(202,0,l),
(298,582,ls),
(332,783,o),
(484,908,o),
(700,908,cs),
(907,908,o),
(1011,783,o),
(978,582,cs),
(882,0,l),
(928,0,l),
(1025,582,ls),
(1062,811,o),
(936,955,o),
(700,955,cs),
(463,955,o),
(289,811,o),
(252,582,cs),
(210,328,l),
(244,359,l),
(192,359,ls),
(92,359,o),
(19,292,o),
(1,184,cs),
(-18,65,o),
(33,0,o),
(132,0,cs)
);
},
{
closed = 1;
nodes = (
(65,41,o),
(28,93,o),
(42,177,cs),
(57,264,o),
(110,319,o),
(183,319,cs),
(210,319,l),
(164,41,l),
(139,41,ls)
);
},
{
closed = 1;
nodes = (
(1132,1187,l),
(1140,1234,l),
(353,1234,l),
(345,1187,l)
);
}
);
width = 1253;
},
{
anchors = (
{
name = bottom;
pos = (568,0);
},
{
name = bottomright;
pos = (1012,0);
},
{
name = top;
pos = (773,1234);
},
{
name = topright;
pos = (1217,1234);
}
);
layerId = "11F4534A-B963-4AB5-820F-DAF9A20CD933";
shapes = (
{
closed = 1;
nodes = (
(306,0,l),
(390,505,ls),
(416,661,o),
(548,768,o),
(713,768,cs),
(867,768,o),
(955,661,o),
(928,505,cs),
(845,0,l),
(1012,0,l),
(1097,514,ls),
(1137,755,o),
(987,920,o),
(728,920,cs),
(468,920,o),
(265,755,o),
(224,514,cs),
(198,357,l),
(251,413,l),
(226,413,ls),
(96,413,o),
(7,338,o),
(-12,225,cs),
(-36,78,o),
(28,0,o),
(158,0,cs)
);
},
{
closed = 1;
nodes = (
(122,111,o),
(92,151,o),
(103,210,cs),
(112,269,o),
(155,310,o),
(208,310,cs),
(214,310,l),
(180,111,l),
(175,111,ls)
);
},
{
closed = 1;
nodes = (
(1198,1077,l),
(1224,1234,l),
(322,1234,l),
(295,1077,l)
);
}
);
width = 1318;
},
{
anchors = (
{
name = bottom;
pos = (604,0);
},
{
name = bottomright;
pos = (1142,0);
},
{
name = top;
pos = (808,1234);
},
{
name = topright;
pos = (1346,1234);
}
);
layerId = "D0EC06BF-13F9-4C88-A6F5-B8203AF6C77E";
shapes = (
{
closed = 1;
nodes = (
(461,0,l),
(527,397,ls),
(541,481,o),
(605,537,o),
(692,537,cs),
(780,537,o),
(827,481,o),
(813,397,cs),
(747,0,l),
(1142,0,l),
(1210,414,ls),
(1253,672,o),
(1093,831,o),
(741,831,cs),
(389,831,o),
(178,672,o),
(135,414,cs),
(124,343,l),
(229,399,l),
(207,399,ls),
(86,399,o),
(1,341,o),
(-20,214,cs),
(-41,85,o),
(22,0,o),
(172,0,cs)
);
},
{
closed = 1;
nodes = (
(158,133,o),
(138,156,o),
(145,202,cs),
(151,236,o),
(170,271,o),
(214,271,cs),
(225,271,l),
(202,133,l),
(188,133,ls)
);
},
{
closed = 1;
nodes = (
(1297,895,l),
(1353,1234,l),
(265,1234,l),
(209,895,l)
);
}
);
width = 1375;
}
);
script = khmer;
subCategory = Other;
unicode = 6039;
}
{
category = Letter;
glyphname = "yo-khmer";
layers = (
{
anchors = (
{
name = bottom;
pos = (1188,0);
},
{
name = bottomright;
pos = (1540,0);
},
{
name = top;
pos = (1393,1234);
},
{
name = topright;
pos = (1758,1234);
}
);
layerId = "200BE2C5-40F6-4CF4-AF4F-A33C0CC0964F";
shapes = (
{
closed = 1;
nodes = (
(704,-15,o),
(859,84,o),
(920,234,c),
(914,234,l),
(920,85,o),
(1029,-15,o),
(1202,-15,cs),
(1413,-15,o),
(1575,121,o),
(1609,326,cs),
(1703,896,ls),
(1707,917,o),
(1700,926,o),
(1684,931,cs),
(1545,984,l),
(1556,963,l),
(1570,1047,ls),
(1587,1150,o),
(1645,1187,o),
(1730,1187,cs),
(1813,1187,l),
(1821,1234,l),
(1738,1234,ls),
(1625,1234,o),
(1548,1180,o),
(1527,1047,cs),
(1511,952,l),
(1657,896,l),
(1562,326,ls),
(1533,148,o),
(1390,32,o),
(1202,32,cs),
(1026,32,o),
(926,151,o),
(954,326,cs),
(1049,896,ls),
(1052,917,o),
(1045,926,o),
(1029,931,cs),
(891,984,l),
(901,963,l),
(915,1047,ls),
(932,1150,o),
(990,1187,o),
(1075,1187,cs),
(1158,1187,l),
(1166,1234,l),
(1083,1234,ls),
(970,1234,o),
(894,1180,o),
(872,1047,cs),
(856,952,l),
(1002,896,l),
(907,326,ls),
(879,151,o),
(715,32,o),
(517,32,cs),
(322,32,o),
(212,151,o),
(241,326,cs),
(335,891,l),
(299,860,l),
(356,860,ls),
(469,860,o),
(551,931,o),
(570,1043,cs),
(590,1166,o),
(530,1234,o),
(418,1234,cs),
(345,1234,l),
(194,326,ls),
(161,123,o),
(292,-15,o),
(517,-15,cs)
);
},
{
closed = 1;
nodes = (
(337,901,l),
(386,1193,l),
(411,1193,ls),
(498,1193,o),
(543,1138,o),
(528,1050,cs),
(513,958,o),
(451,901,o),
(365,901,cs)
);
}
);
width = 1881;
},
{
anchors = (
{
name = bottom;
pos = (1242,0);
},
{
name = bottomright;
pos = (1657,0);
},
{
name = top;
pos = (1447,1234);
},
{
name = topright;
pos = (1876,1234);
}
);
layerId = "11F4534A-B963-4AB5-820F-DAF9A20CD933";
shapes = (
{
closed = 1;
nodes = (
(747,-15,o),
(896,68,o),
(979,203,c),
(936,203,l),
(969,72,o),
(1081,-15,o),
(1262,-15,cs),
(1510,-15,o),
(1695,144,o),
(1734,377,cs),
(1807,821,ls),
(1815,864,o),
(1803,880,o),
(1763,899,cs),
(1660,947,l),
(1664,887,l),
(1678,970,ls),
(1690,1043,o),
(1725,1077,o),
(1803,1077,cs),
(1890,1077,l),
(1917,1234,l),
(1826,1234,ls),
(1658,1234,o),
(1564,1156,o),
(1535,977,cs),
(1516,862,l),
(1638,807,l),
(1568,386,ls),
(1543,238,o),
(1429,134,o),
(1270,134,cs),
(1120,134,o),
(1049,238,o),
(1073,386,cs),
(1145,821,ls),
(1153,864,o),
(1141,880,o),
(1101,899,cs),
(998,947,l),
(1002,887,l),
(1016,970,ls),
(1027,1043,o),
(1063,1077,o),
(1141,1077,cs),
(1228,1077,l),
(1254,1234,l),
(1163,1234,ls),
(995,1234,o),
(902,1156,o),
(872,977,cs),
(854,862,l),
(976,807,l),
(906,386,ls),
(881,238,o),
(757,134,o),
(578,134,cs),
(410,134,o),
(328,238,o),
(353,386,cs),
(432,868,l),
(397,821,l),
(451,821,ls),
(582,821,o),
(673,898,o),
(692,1013,cs),
(715,1153,o),
(659,1234,o),
(512,1234,cs),
(326,1234,l),
(184,377,ls),
(146,144,o),
(290,-15,o),
(556,-15,cs)
);
},
{
closed = 1;
nodes = (
(439,924,l),
(472,1123,l),
(498,1123,ls),
(552,1123,o),
(581,1091,o),
(571,1028,cs),
(562,975,o),
(532,924,o),
(460,924,cs)
);
}
);
width = 1978;
},
{
anchors = (
{
name = bottom;
pos = (1242,0);
},
{
name = bottomright;
pos = (1740,0);
},
{
name = top;
pos = (1447,1234);
},
{
name = topright;
pos = (1975,1234);
}
);
layerId = "D0EC06BF-13F9-4C88-A6F5-B8203AF6C77E";
shapes = (
{
closed = 1;
nodes = (
(763,-15,o),
(904,49,o),
(1030,196,c),
(880,196,l),
(951,54,o),
(1064,-15,o),
(1268,-15,cs),
(1579,-15,o),
(1794,143,o),
(1837,403,cs),
(1884,685,ls),
(1895,750,o),
(1868,770,o),
(1814,789,cs),
(1658,843,l),
(1690,736,l),
(1707,838,ls),
(1713,876,o),
(1736,895,o),
(1776,895,cs),
(1962,895,l),
(2018,1234,l),
(1807,1234,ls),
(1550,1234,o),
(1461,1097,o),
(1430,907,cs),
(1401,734,l),
(1490,690,l),
(1446,420,ls),
(1431,335,o),
(1372,279,o),
(1294,279,cs),
(1217,279,o),
(1177,334,o),
(1191,420,cs),
(1235,685,ls),
(1246,757,o),
(1212,772,o),
(1165,789,cs),
(1010,843,l),
(1041,736,l),
(1058,838,ls),
(1064,876,o),
(1088,895,o),
(1128,895,cs),
(1313,895,l),
(1369,1234,l),
(1159,1234,ls),
(902,1234,o),
(812,1097,o),
(781,907,cs),
(752,734,l),
(841,690,l),
(797,420,ls),
(782,334,o),
(717,279,o),
(630,279,cs),
(544,279,o),
(498,334,o),
(513,420,cs),
(589,886,l),
(501,835,l),
(522,835,ls),
(651,835,o),
(731,899,o),
(750,1020,cs),
(773,1155,o),
(702,1234,o),
(557,1234,cs),
(253,1234,l),
(116,403,ls),
(72,143,o),
(239,-15,o),
(559,-15,cs)
);
},
{
closed = 1;
nodes = (
(490,967,l),
(512,1095,l),
(525,1095,ls),
(561,1095,o),
(579,1073,o),
(573,1034,cs),
(567,992,o),
(539,967,o),
(501,967,cs)
);
}
);
width = 2004;
}
);
metricRight = "ba-khmer";
script = khmer;
subCategory = Other;
unicode = 6041;
}
{
category = Letter;
glyphname = "ro-khmer";
kernLeft = KH_RO;
layers = (
{
anchors = (
{
name = bottom;
pos = (230,0);
},
{
name = bottomright;
pos = (318,0);
},
{
name = top;
pos = (453,1234);
},
{
name = topright;
pos = (779,1234);
}
);
layerId = "200BE2C5-40F6-4CF4-AF4F-A33C0CC0964F";
shapes = (
{
closed = 1;
nodes = (
(318,0,l),
(466,896,ls),
(470,917,o),
(463,926,o),
(447,931,cs),
(301,984,l),
(311,963,l),
(325,1047,ls),
(343,1150,o),
(400,1187,o),
(486,1187,cs),
(576,1187,l),
(584,1234,l),
(494,1234,ls),
(381,1234,o),
(304,1180,o),
(282,1047,cs),
(266,951,l),
(420,895,l),
(328,343,l),
(362,374,l),
(314,374,ls),
(202,374,o),
(119,303,o),
(101,191,cs),
(81,68,o),
(140,0,o),
(252,0,cs)
);
},
{
closed = 1;
nodes = (
(172,41,o),
(127,96,o),
(142,184,cs),
(157,276,o),
(219,333,o),
(305,333,cs),
(327,333,l),
(278,41,l),
(259,41,ls)
);
}
);
width = 650;
},
{
anchors = (
{
name = bottom;
pos = (261,0);
},
{
name = bottomright;
pos = (415,0);
},
{
name = top;
pos = (480,1234);
},
{
name = topright;
pos = (860,1234);
}
);
layerId = "11F4534A-B963-4AB5-820F-DAF9A20CD933";
shapes = (
{
closed = 1;
nodes = (
(415,0,l),
(551,816,ls),
(558,859,o),
(548,878,o),
(506,894,cs),
(371,947,l),
(376,887,l),
(391,974,ls),
(402,1046,o),
(444,1077,o),
(520,1077,cs),
(617,1077,l),
(643,1234,l),
(538,1234,ls),
(370,1234,o),
(276,1156,o),
(247,977,cs),
(227,855,l),
(380,795,l),
(307,357,l),
(344,413,l),
(317,413,ls),
(185,413,o),
(103,336,o),
(84,221,cs),
(61,81,o),
(113,0,o),
(257,0,cs)
);
},
{
closed = 1;
nodes = (
(218,111,o),
(191,143,o),
(202,206,cs),
(211,259,o),
(239,310,o),
(305,310,cs),
(316,310,l),
(282,111,l),
(267,111,ls)
);
}
);
width = 715;
},
{
anchors = (
{
name = bottom;
pos = (303,0);
},
{
name = bottomright;
pos = (548,0);
},
{
name = top;
pos = (518,1234);
},
{
name = topright;
pos = (976,1234);
}
);
layerId = "D0EC06BF-13F9-4C88-A6F5-B8203AF6C77E";
shapes = (
{
closed = 1;
nodes = (
(548,0,l),
(661,685,ls),
(672,750,o),
(644,771,o),
(592,789,cs),
(410,851,l),
(441,736,l),
(458,838,ls),
(464,876,o),
(490,895,o),
(536,895,cs),
(724,895,l),
(780,1234,l),
(574,1234,ls),
(304,1234,o),
(212,1090,o),
(179,891,cs),
(154,737,l),
(266,678,l),
(212,357,l),
(284,414,l),
(262,414,ls),
(128,414,o),
(45,346,o),
(24,221,cs),
(1,81,o),
(76,0,o),
(232,0,cs)
);
},
{
closed = 1;
nodes = (
(226,138,o),
(207,163,o),
(214,206,cs),
(221,252,o),
(251,282,o),
(290,282,cs),
(301,282,l),
(276,138,l),
(264,138,ls)
);
}
);
width = 811;
}
);
script = khmer;
subCategory = Other;
unicode = 6042;
}
{
category = Letter;
glyphname = "lo-khmer";
kernLeft = KH_LO;
layers = (
{
anchors = (
{
name = bottom;
pos = (1196,0);
},
{
name = bottomright;
pos = (1539,0);
},
{
name = top;
pos = (1401,1234);
},
{
name = topright;
pos = (1758,1234);
}
);
layerId = "200BE2C5-40F6-4CF4-AF4F-A33C0CC0964F";
shapes = (
{
closed = 1;
nodes = (
(1409,-15,o),
(1575,127,o),
(1610,341,cs),
(1702,896,ls),
(1706,917,o),
(1698,926,o),
(1682,931,cs),
(1544,984,l),
(1554,963,l),
(1569,1047,ls),
(1586,1150,o),
(1644,1187,o),
(1729,1187,cs),
(1811,1187,l),
(1819,1234,l),
(1737,1234,ls),
(1623,1234,o),
(1548,1180,o),
(1525,1047,cs),
(1509,952,l),
(1655,896,l),
(1564,341,ls),
(1533,154,o),
(1386,32,o),
(1194,32,cs),
(1013,32,o),
(912,157,o),
(942,341,cs),
(1033,892,ls),
(1068,1103,o),
(940,1247,o),
(719,1247,cs),
(495,1247,o),
(324,1106,o),
(288,892,cs),
(140,0,l),
(212,0,ls),
(329,0,o),
(414,68,o),
(431,177,cs),
(453,303,o),
(391,374,o),
(274,374,cs),
(218,374,l),
(244,343,l),
(335,892,ls),
(365,1078,o),
(518,1201,o),
(719,1201,cs),
(910,1201,o),
(1017,1075,o),
(987,892,cs),
(896,341,ls),
(861,130,o),
(983,-15,o),
(1194,-15,cs)
);
},
{
closed = 1;
nodes = (
(194,41,l),
(242,333,l),
(270,333,ls),
(360,333,o),
(406,276,o),
(391,184,cs),
(376,96,o),
(311,41,o),
(219,41,cs)
);
}
);
width = 1879;
},
{
anchors = (
{
name = bottom;
pos = (1242,0);
},
{
name = bottomright;
pos = (1657,0);
},
{
name = top;
pos = (1447,1234);
},
{
name = topright;
pos = (1876,1234);
}
);
layerId = "11F4534A-B963-4AB5-820F-DAF9A20CD933";
shapes = (
{
closed = 1;
nodes = (
(1496,-15,o),
(1695,144,o),
(1734,376,cs),
(1807,821,ls),
(1815,864,o),
(1803,880,o),
(1763,899,cs),
(1660,947,l),
(1664,887,l),
(1678,970,ls),
(1690,1043,o),
(1725,1077,o),
(1803,1077,cs),
(1890,1077,l),
(1917,1234,l),
(1826,1234,ls),
(1658,1234,o),
(1564,1156,o),
(1535,977,cs),
(1516,862,l),
(1638,807,l),
(1568,386,ls),
(1543,238,o),
(1416,137,o),
(1257,137,cs),
(1110,137,o),
(1025,238,o),
(1050,386,cs),
(1128,857,ls),
(1166,1089,o),
(1017,1248,o),
(760,1248,cs),
(504,1248,o),
(302,1089,o),
(263,857,cs),
(122,0,l),
(308,0,ls),
(454,0,o),
(538,83,o),
(557,196,cs),
(581,338,o),
(514,413,o),
(383,413,cs),
(330,413,l),
(348,357,l),
(429,848,ls),
(453,995,o),
(582,1097,o),
(744,1097,cs),
(896,1097,o),
(983,995,o),
(959,848,cs),
(881,376,ls),
(843,144,o),
(989,-15,o),
(1242,-15,cs)
);
},
{
closed = 1;
nodes = (
(303,111,l),
(336,310,l),
(357,310,ls),
(416,310,o),
(445,273,o),
(434,210,cs),
(424,148,o),
(384,111,o),
(328,111,cs)
);
}
);
width = 1978;
},
{
anchors = (
{
name = bottom;
pos = (1242,0);
},
{
name = bottomright;
pos = (1740,0);
},
{
name = top;
pos = (1447,1234);
},
{
name = topright;
pos = (1975,1234);
}
);
layerId = "D0EC06BF-13F9-4C88-A6F5-B8203AF6C77E";
shapes = (
{
closed = 1;
nodes = (
(1586,-15,o),
(1794,145,o),
(1837,403,cs),
(1884,685,ls),
(1895,750,o),
(1869,770,o),
(1814,789,cs),
(1658,843,l),
(1690,736,l),
(1707,838,ls),
(1714,876,o),
(1736,895,o),
(1776,895,cs),
(1962,895,l),
(2018,1234,l),
(1807,1234,ls),
(1550,1234,o),
(1461,1097,o),
(1430,907,cs),
(1401,734,l),
(1490,690,l),
(1445,418,ls),
(1431,335,o),
(1370,279,o),
(1287,279,cs),
(1204,279,o),
(1162,335,o),
(1176,418,cs),
(1244,831,ls),
(1287,1090,o),
(1129,1249,o),
(783,1249,cs),
(437,1249,o),
(229,1090,o),
(186,831,cs),
(49,0,l),
(397,0,ls),
(543,0,o),
(626,60,o),
(648,192,cs),
(670,326,o),
(608,414,o),
(482,414,cs),
(476,414,l),
(502,357,l),
(578,815,ls),
(592,899,o),
(651,955,o),
(734,955,cs),
(817,955,o),
(862,899,o),
(848,815,cs),
(780,403,ls),
(737,144,o),
(892,-15,o),
(1238,-15,cs)
);
},
{
closed = 1;
nodes = (
(393,140,l),
(416,279,l),
(426,279,ls),
(475,279,o),
(483,240,o),
(477,207,cs),
(470,159,o),
(439,140,o),
(405,140,cs)
);
}
);
width = 2004;
}
);
metricRight = "ba-khmer";
script = khmer;
subCategory = Other;
unicode = 6043;
}
{
category = Letter;
glyphname = "vo-khmer";
kernLeft = KH_VO;
layers = (
{
anchors = (
{
name = bottom;
pos = (302,0);
},
{
name = bottomright;
pos = (325,0);
},
{
name = top;
pos = (460,1234);
},
{
name = topright;
pos = (785,1234);
}
);
layerId = "200BE2C5-40F6-4CF4-AF4F-A33C0CC0964F";
shapes = (
{
closed = 1;
nodes = (
(325,0,l),
(473,896,ls),
(477,917,o),
(469,926,o),
(453,931,cs),
(293,984,l),
(296,963,l),
(315,1076,ls),
(329,1158,o),
(375,1189,o),
(442,1189,cs),
(507,1189,ls),
(571,1189,o),
(603,1217,o),
(613,1279,cs),
(629,1374,l),
(586,1374,l),
(570,1279,ls),
(565,1248,o),
(548,1234,o),
(514,1234,cs),
(450,1234,ls),
(354,1234,o),
(290,1189,o),
(271,1076,cs),
(250,951,l),
(426,895,l),
(335,343,l),
(369,374,l),
(321,374,ls),
(208,374,o),
(126,303,o),
(108,191,cs),
(87,68,o),
(146,0,o),
(259,0,cs)
);
},
{
closed = 1;
nodes = (
(178,41,o),
(134,96,o),
(148,184,cs),
(164,276,o),
(226,333,o),
(311,333,cs),
(333,333,l),
(285,41,l),
(266,41,ls)
);
}
);
width = 658;
},
{
anchors = (
{
name = bottom;
pos = (260,0);
},
{
name = bottomright;
pos = (415,0);
},
{
name = top;
pos = (480,1234);
},
{
name = topright;
pos = (859,1234);
}
);
layerId = "11F4534A-B963-4AB5-820F-DAF9A20CD933";
shapes = (
{
closed = 1;
nodes = (
(415,0,l),
(550,816,ls),
(557,859,o),
(547,879,o),
(506,894,cs),
(333,958,l),
(356,887,l),
(370,977,ls),
(382,1048,o),
(419,1078,o),
(486,1078,cs),
(584,1078,ls),
(654,1078,o),
(690,1109,o),
(701,1179,cs),
(734,1374,l),
(574,1374,l),
(554,1253,ls),
(552,1241,o),
(544,1234,o),
(532,1234,cs),
(502,1234,ls),
(345,1234,o),
(258,1163,o),
(231,1001,cs),
(206,854,l),
(378,792,l),
(306,357,l),
(343,413,l),
(316,413,ls),
(184,413,o),
(102,336,o),
(83,221,cs),
(60,81,o),
(112,0,o),
(256,0,cs)
);
},
{
closed = 1;
nodes = (
(218,111,o),
(191,143,o),
(202,206,cs),
(210,259,o),
(239,310,o),
(304,310,cs),
(315,310,l),
(282,111,l),
(266,111,ls)
);
}
);
width = 722;
},
{
anchors = (
{
name = bottom;
pos = (311,0);
},
{
name = bottomright;
pos = (557,0);
},
{
name = top;
pos = (494,1234);
},
{
name = topright;
pos = (982,1234);
}
);
layerId = "D0EC06BF-13F9-4C88-A6F5-B8203AF6C77E";
shapes = (
{
closed = 1;
nodes = (
(557,0,l),
(669,681,ls),
(680,747,o),
(652,768,o),
(600,784,cs),
(418,843,l),
(435,736,l),
(456,862,ls),
(461,894,o),
(481,911,o),
(515,911,cs),
(645,911,ls),
(743,911,o),
(805,972,o),
(824,1084,cs),
(866,1336,l),
(494,1336,l),
(481,1257,ls),
(478,1239,o),
(469,1234,o),
(453,1234,cs),
(432,1234,ls),
(295,1234,o),
(218,1158,o),
(195,1025,cs),
(148,737,l),
(274,677,l),
(221,357,l),
(293,414,l),
(271,414,ls),
(137,414,o),
(54,346,o),
(33,221,cs),
(9,81,o),
(85,0,o),
(241,0,cs)
);
},
{
closed = 1;
nodes = (
(234,138,o),
(215,163,o),
(223,206,cs),
(230,252,o),
(260,282,o),
(299,282,cs),
(309,282,l),
(285,138,l),
(273,138,ls)
);
}
);
width = 828;
}
);
script = khmer;
subCategory = Other;
unicode = 6044;
}
{
category = Letter;
glyphname = "sha-khmer";
layers = (
{
anchors = (
{
name = bottom;
pos = (527,0);
},
{
name = bottomright;
pos = (913,0);
},
{
name = top;
pos = (731,1234);
},
{
name = topright;
pos = (1118,1234);
}
);
layerId = "200BE2C5-40F6-4CF4-AF4F-A33C0CC0964F";
shapes = (
{
closed = 1;
nodes = (
(140,0,l),
(187,0,l),
(210,139,ls),
(238,305,o),
(332,393,o),
(448,393,cs),
(489,393,o),
(521,382,o),
(552,368,c),
(560,416,l),
(531,429,o),
(496,437,o),
(461,437,cs),
(382,437,o),
(301,405,o),
(244,319,c),
(239,319,l),
(283,582,ls),
(317,783,o),
(469,908,o),
(685,908,cs),
(889,908,o),
(996,785,o),
(963,582,cs),
(867,0,l),
(913,0,l),
(1009,582,ls),
(1047,811,o),
(920,955,o),
(685,955,cs),
(448,955,o),
(274,811,o),
(236,582,cs)
);
},
{
closed = 1;
nodes = (
(1131,373,l),
(1138,416,l),
(676,416,l),
(669,373,l)
);
},
{
closed = 1;
nodes = (
(1117,1187,l),
(1125,1234,l),
(338,1234,l),
(330,1187,l)
);
}
);
width = 1238;
},
{
anchors = (
{
name = bottom;
pos = (565,0);
},
{
name = bottomright;
pos = (1009,0);
},
{
name = top;
pos = (770,1234);
},
{
name = topright;
pos = (1214,1234);
}
);
layerId = "11F4534A-B963-4AB5-820F-DAF9A20CD933";
shapes = (
{
closed = 1;
nodes = (
(122,0,l),
(289,0,l),
(307,109,ls),
(325,222,o),
(415,312,o),
(540,312,cs),
(576,312,o),
(605,303,o),
(632,290,c),
(656,437,l),
(631,448,o),
(600,455,o),
(568,455,cs),
(488,455,o),
(408,421,o),
(351,329,c),
(343,329,l),
(373,505,ls),
(398,661,o),
(533,768,o),
(703,768,cs),
(861,768,o),
(951,661,o),
(926,505,cs),
(842,0,l),
(1009,0,l),
(1094,514,ls),
(1134,755,o),
(982,920,o),
(717,920,cs),
(453,920,o),
(247,755,o),
(207,514,cs)
);
},
{
closed = 1;
nodes = (
(1214,301,l),
(1235,429,l),
(769,429,l),
(748,301,l)
);
},
{
closed = 1;
nodes = (
(1195,1077,l),
(1221,1234,l),
(319,1234,l),
(293,1077,l)
);
}
);
width = 1316;
},
{
anchors = (
{
name = bottom;
pos = (584,0);
},
{
name = bottomright;
pos = (1120,0);
},
{
name = top;
pos = (789,1234);
},
{
name = topright;
pos = (1324,1234);
}
);
layerId = "D0EC06BF-13F9-4C88-A6F5-B8203AF6C77E";
shapes = (
{
closed = 1;
nodes = (
(49,0,l),
(443,0,l),
(447,26,ls),
(461,112,o),
(509,162,o),
(580,162,cs),
(605,162,o),
(629,156,o),
(651,149,c),
(691,391,l),
(673,396,o),
(649,399,o),
(630,399,cs),
(581,399,o),
(544,378,o),
(503,306,c),
(494,306,l),
(509,400,ls),
(523,484,o),
(586,540,o),
(673,540,cs),
(760,540,o),
(805,484,o),
(792,400,cs),
(725,0,l),
(1120,0,l),
(1189,417,ls),
(1231,675,o),
(1073,834,o),
(722,834,cs),
(372,834,o),
(161,675,o),
(118,417,cs)
);
},
{
closed = 1;
nodes = (
(1244,191,l),
(1270,350,l),
(723,350,l),
(696,191,l)
);
},
{
closed = 1;
nodes = (
(1276,895,l),
(1332,1234,l),
(246,1234,l),
(190,895,l)
);
}
);
width = 1351;
}
);
script = khmer;
subCategory = Other;
unicode = 6045;
}
{
category = Letter;
glyphname = "sso-khmer";
kernLeft = KH_BA;
layers = (
{
anchors = (
{
name = bottom;
pos = (519,0);
},
{
name = bottomright;
pos = (883,0);
},
{
name = top;
pos = (723,1234);
},
{
name = topright;
pos = (1102,1234);
}
);
layerId = "200BE2C5-40F6-4CF4-AF4F-A33C0CC0964F";
shapes = (
{
closed = 1;
nodes = (
(1163,572,l),
(1170,616,l),
(708,616,l),
(701,572,l)
);
},
{
closed = 1;
nodes = (
(745,-15,o),
(918,122,o),
(952,329,cs),
(1046,896,ls),
(1050,917,o),
(1043,926,o),
(1027,931,cs),
(888,984,l),
(899,963,l),
(913,1047,ls),
(930,1150,o),
(988,1187,o),
(1073,1187,cs),
(1155,1187,l),
(1163,1234,l),
(1081,1234,ls),
(968,1234,o),
(891,1180,o),
(870,1047,cs),
(854,952,l),
(1000,896,l),
(906,329,ls),
(876,150,o),
(721,32,o),
(516,32,cs),
(320,32,o),
(212,153,o),
(241,329,cs),
(335,896,ls),
(338,917,o),
(331,926,o),
(315,931,cs),
(177,984,l),
(187,963,l),
(202,1047,ls),
(218,1150,o),
(276,1187,o),
(362,1187,cs),
(444,1187,l),
(452,1234,l),
(370,1234,ls),
(256,1234,o),
(180,1180,o),
(158,1047,cs),
(142,952,l),
(288,896,l),
(194,329,ls),
(161,124,o),
(290,-15,o),
(516,-15,cs)
);
}
);
width = 1224;
},
{
anchors = (
{
name = bottom;
pos = (562,0);
},
{
name = bottomright;
pos = (988,0);
},
{
name = top;
pos = (768,1234);
},
{
name = topright;
pos = (1207,1234);
}
);
layerId = "11F4534A-B963-4AB5-820F-DAF9A20CD933";
shapes = (
{
closed = 1;
nodes = (
(1240,500,l),
(1262,638,l),
(689,638,l),
(667,500,l)
);
},
{
closed = 1;
nodes = (
(822,-15,o),
(1027,147,o),
(1066,384,cs),
(1139,821,ls),
(1146,864,o),
(1134,880,o),
(1094,899,cs),
(992,947,l),
(995,887,l),
(1009,970,ls),
(1021,1043,o),
(1057,1077,o),
(1134,1077,cs),
(1222,1077,l),
(1248,1234,l),
(1157,1234,ls),
(989,1234,o),
(896,1156,o),
(866,977,cs),
(847,862,l),
(969,807,l),
(900,393,ls),
(875,241,o),
(742,137,o),
(575,137,cs),
(419,137,o),
(330,241,o),
(354,393,cs),
(426,821,ls),
(433,864,o),
(421,880,o),
(381,899,cs),
(279,947,l),
(282,887,l),
(296,970,ls),
(308,1043,o),
(343,1077,o),
(421,1077,cs),
(509,1077,l),
(535,1234,l),
(444,1234,ls),
(276,1234,o),
(183,1156,o),
(153,977,cs),
(134,862,l),
(256,807,l),
(186,384,ls),
(146,147,o),
(298,-15,o),
(560,-15,cs)
);
}
);
width = 1308;
},
{
anchors = (
{
name = bottom;
pos = (583,0);
},
{
name = bottomright;
pos = (1104,0);
},
{
name = top;
pos = (791,1234);
},
{
name = topright;
pos = (1322,1234);
}
);
layerId = "D0EC06BF-13F9-4C88-A6F5-B8203AF6C77E";
shapes = (
{
closed = 1;
nodes = (
(1285,449,l),
(1311,608,l),
(698,608,l),
(672,449,l)
);
},
{
closed = 1;
nodes = (
(931,-15,o),
(1142,144,o),
(1185,403,cs),
(1232,685,ls),
(1243,750,o),
(1217,770,o),
(1163,789,cs),
(1007,843,l),
(1038,736,l),
(1055,838,ls),
(1062,876,o),
(1085,895,o),
(1125,895,cs),
(1310,895,l),
(1366,1234,l),
(1156,1234,ls),
(899,1234,o),
(809,1097,o),
(778,907,cs),
(749,734,l),
(839,690,l),
(794,418,ls),
(780,334,o),
(715,278,o),
(629,278,cs),
(542,278,o),
(497,334,o),
(511,418,cs),
(555,685,ls),
(566,750,o),
(540,770,o),
(485,789,cs),
(330,843,l),
(361,736,l),
(378,838,ls),
(385,876,o),
(408,895,o),
(447,895,cs),
(634,895,l),
(690,1234,l),
(479,1234,ls),
(210,1234,o),
(130,1082,o),
(101,907,cs),
(73,734,l),
(162,690,l),
(114,403,ls),
(71,144,o),
(229,-15,o),
(580,-15,cs)
);
}
);
width = 1350;
}
);
script = khmer;
subCategory = Other;
unicode = 6046;
}
{
category = Letter;
glyphname = "sa-khmer";
kernLeft = KH_SA;
layers = (
{
anchors = (
{
name = bottom;
pos = (1197,0);
},
{
name = bottomright;
pos = (1539,0);
},
{
name = top;
pos = (1403,1234);
},
{
name = topright;
pos = (1758,1234);
}
);
layerId = "200BE2C5-40F6-4CF4-AF4F-A33C0CC0964F";
shapes = (
{
closed = 1;
nodes = (
(1409,-15,o),
(1575,125,o),
(1610,338,cs),
(1702,896,ls),
(1706,917,o),
(1698,926,o),
(1682,931,cs),
(1544,984,l),
(1554,963,l),
(1569,1047,ls),
(1586,1150,o),
(1644,1187,o),
(1729,1187,cs),
(1811,1187,l),
(1819,1234,l),
(1737,1234,ls),
(1623,1234,o),
(1548,1180,o),
(1525,1047,cs),
(1509,952,l),
(1655,896,l),
(1563,338,ls),
(1532,154,o),
(1386,32,o),
(1194,32,cs),
(1013,32,o),
(912,156,o),
(942,338,cs),
(982,585,ls),
(1017,796,o),
(888,940,o),
(667,940,cs),
(447,940,o),
(272,796,o),
(237,585,cs),
(140,0,l),
(212,0,ls),
(329,0,o),
(414,68,o),
(431,177,cs),
(453,303,o),
(391,374,o),
(274,374,cs),
(218,374,l),
(244,343,l),
(284,585,ls),
(314,768,o),
(467,894,o),
(667,894,cs),
(858,894,o),
(966,768,o),
(936,585,cs),
(895,338,ls),
(861,128,o),
(983,-15,o),
(1194,-15,cs)
);
},
{
closed = 1;
nodes = (
(194,41,l),
(242,333,l),
(270,333,ls),
(360,333,o),
(406,276,o),
(391,184,cs),
(376,96,o),
(311,41,o),
(219,41,cs)
);
},
{
closed = 1;
nodes = (
(562,921,l),
(410,998,l),
(421,977,l),
(432,1047,ls),
(449,1150,o),
(507,1187,o),
(592,1187,cs),
(1043,1187,l),
(1051,1234,l),
(600,1234,ls),
(487,1234,o),
(412,1180,o),
(389,1047,cs),
(375,968,l),
(530,887,l)
);
}
);
width = 1879;
},
{
anchors = (
{
name = bottom;
pos = (1242,0);
},
{
name = bottomright;
pos = (1657,0);
},
{
name = top;
pos = (1447,1234);
},
{
name = topright;
pos = (1876,1234);
}
);
layerId = "11F4534A-B963-4AB5-820F-DAF9A20CD933";
shapes = (
{
closed = 1;
nodes = (
(1504,-15,o),
(1695,141,o),
(1732,369,cs),
(1807,821,ls),
(1815,864,o),
(1803,880,o),
(1763,899,cs),
(1660,947,l),
(1664,887,l),
(1678,970,ls),
(1690,1043,o),
(1725,1077,o),
(1803,1077,cs),
(1890,1077,l),
(1917,1234,l),
(1826,1234,ls),
(1658,1234,o),
(1564,1156,o),
(1535,977,cs),
(1516,862,l),
(1638,807,l),
(1567,378,ls),
(1543,236,o),
(1421,137,o),
(1255,137,cs),
(1104,137,o),
(1027,236,o),
(1050,378,cs),
(1076,536,ls),
(1114,764,o),
(972,920,o),
(705,920,cs),
(439,920,o),
(248,764,o),
(210,536,cs),
(122,0,l),
(308,0,ls),
(454,0,o),
(538,83,o),
(557,196,cs),
(581,338,o),
(514,413,o),
(383,413,cs),
(330,413,l),
(348,357,l),
(376,527,ls),
(399,670,o),
(522,771,o),
(691,771,cs),
(848,771,o),
(931,670,o),
(907,527,cs),
(881,369,ls),
(843,141,o),
(980,-15,o),
(1241,-15,cs)
);
},
{
closed = 1;
nodes = (
(303,111,l),
(336,310,l),
(357,310,ls),
(416,310,o),
(445,273,o),
(434,210,cs),
(424,148,o),
(384,111,o),
(328,111,cs)
);
},
{
closed = 1;
nodes = (
(587,872,l),
(479,958,l),
(487,887,l),
(500,966,ls),
(512,1042,o),
(555,1077,o),
(633,1077,cs),
(1099,1077,l),
(1125,1234,l),
(659,1234,ls),
(484,1234,o),
(387,1156,o),
(357,977,cs),
(344,899,l),
(461,804,l)
);
}
);
width = 1978;
},
{
anchors = (
{
name = bottom;
pos = (1241,0);
},
{
name = bottomright;
pos = (1756,0);
},
{
name = top;
pos = (1445,1234);
},
{
name = topright;
pos = (1975,1234);
}
);
layerId = "D0EC06BF-13F9-4C88-A6F5-B8203AF6C77E";
shapes = (
{
closed = 1;
nodes = (
(1588,-15,o),
(1791,127,o),
(1829,358,cs),
(1884,685,ls),
(1895,750,o),
(1869,770,o),
(1814,789,cs),
(1658,843,l),
(1690,736,l),
(1707,838,ls),
(1714,876,o),
(1736,895,o),
(1776,895,cs),
(1962,895,l),
(2018,1234,l),
(1807,1234,ls),
(1550,1234,o),
(1461,1097,o),
(1430,907,cs),
(1401,734,l),
(1490,690,l),
(1441,388,ls),
(1430,322,o),
(1373,278,o),
(1294,278,cs),
(1217,278,o),
(1177,322,o),
(1187,388,cs),
(1201,481,ls),
(1233,683,o),
(1093,819,o),
(719,819,cs),
(346,819,o),
(162,683,o),
(128,481,cs),
(49,0,l),
(397,0,ls),
(545,0,o),
(627,63,o),
(648,192,cs),
(670,326,o),
(608,414,o),
(482,414,cs),
(476,414,l),
(502,357,l),
(515,434,ls),
(526,497,o),
(586,538,o),
(673,538,cs),
(760,538,o),
(811,497,o),
(800,434,cs),
(787,358,ls),
(747,127,o),
(904,-15,o),
(1246,-15,cs)
);
},
{
closed = 1;
nodes = (
(393,140,l),
(416,279,l),
(426,279,ls),
(465,279,o),
(484,252,o),
(477,207,cs),
(471,164,o),
(445,140,o),
(405,140,cs)
);
},
{
closed = 1;
nodes = (
(587,774,l),
(488,851,l),
(509,773,l),
(520,838,ls),
(528,882,o),
(548,895,o),
(582,895,cs),
(1116,895,l),
(1172,1234,l),
(635,1234,ls),
(366,1234,o),
(274,1090,o),
(241,891,cs),
(221,773,l),
(305,701,l)
);
}
);
width = 2004;
}
);
metricRight = "ba-khmer";
script = khmer;
subCategory = Other;
unicode = 6047;
}
{
category = Letter;
glyphname = "ha-khmer";
kernLeft = KH_BA;
layers = (
{
anchors = (
{
name = bottom;
pos = (1181,0);
},
{
name = bottomright;
pos = (1553,0);
},
{
name = top;
pos = (1387,1234);
},
{
name = topright;
pos = (1743,1234);
}
);
layerId = "200BE2C5-40F6-4CF4-AF4F-A33C0CC0964F";
shapes = (
{
closed = 1;
nodes = (
(710,-15,o),
(876,127,o),
(911,341,cs),
(1002,892,ls),
(1033,1078,o),
(1186,1201,o),
(1388,1201,cs),
(1577,1201,o),
(1684,1078,o),
(1654,892,cs),
(1506,0,l),
(1553,0,l),
(1700,892,ls),
(1735,1103,o),
(1608,1247,o),
(1388,1247,cs),
(1163,1247,o),
(990,1106,o),
(955,892,cs),
(864,341,ls),
(834,154,o),
(686,32,o),
(494,32,cs),
(313,32,o),
(212,157,o),
(243,341,cs),
(335,896,ls),
(338,917,o),
(331,926,o),
(315,931,cs),
(177,984,l),
(187,963,l),
(202,1047,ls),
(219,1150,o),
(276,1187,o),
(362,1187,cs),
(444,1187,l),
(452,1234,l),
(370,1234,ls),
(256,1234,o),
(180,1180,o),
(158,1047,cs),
(142,952,l),
(288,896,l),
(196,341,ls),
(162,130,o),
(283,-15,o),
(494,-15,cs)
);
}
);
width = 1879;
},
{
anchors = (
{
name = bottom;
pos = (1236,0);
},
{
name = bottomright;
pos = (1671,0);
},
{
name = top;
pos = (1440,1234);
},
{
name = topright;
pos = (1861,1234);
}
);
layerId = "11F4534A-B963-4AB5-820F-DAF9A20CD933";
shapes = (
{
closed = 1;
nodes = (
(805,-15,o),
(990,144,o),
(1028,376,cs),
(1106,848,ls),
(1130,994,o),
(1256,1097,o),
(1427,1097,cs),
(1586,1097,o),
(1668,994,o),
(1644,848,cs),
(1504,0,l),
(1671,0,l),
(1813,857,ls),
(1852,1089,o),
(1711,1248,o),
(1442,1248,cs),
(1174,1248,o),
(979,1089,o),
(940,857,cs),
(862,386,ls),
(837,239,o),
(723,137,o),
(564,137,cs),
(409,137,o),
(328,239,o),
(353,386,cs),
(425,821,ls),
(432,864,o),
(421,880,o),
(381,899,cs),
(278,947,l),
(282,887,l),
(295,970,ls),
(307,1043,o),
(343,1077,o),
(421,1077,cs),
(508,1077,l),
(534,1234,l),
(443,1234,ls),
(275,1234,o),
(182,1156,o),
(152,977,cs),
(133,862,l),
(255,807,l),
(184,376,ls),
(146,144,o),
(285,-15,o),
(549,-15,cs)
);
}
);
width = 1978;
},
{
anchors = (
{
name = bottom;
pos = (1241,0);
},
{
name = bottomright;
pos = (1769,0);
},
{
name = top;
pos = (1446,1234);
},
{
name = topright;
pos = (1951,1234);
}
);
layerId = "D0EC06BF-13F9-4C88-A6F5-B8203AF6C77E";
shapes = (
{
closed = 1;
nodes = (
(920,-15,o),
(1131,144,o),
(1174,403,cs),
(1241,815,ls),
(1255,899,o),
(1316,955,o),
(1399,955,cs),
(1482,955,o),
(1523,899,o),
(1509,815,cs),
(1374,0,l),
(1769,0,l),
(1906,831,ls),
(1949,1089,o),
(1794,1249,o),
(1448,1249,cs),
(1102,1249,o),
(893,1090,o),
(850,831,cs),
(781,418,ls),
(768,334,o),
(707,278,o),
(624,278,cs),
(540,278,o),
(497,334,o),
(511,418,cs),
(555,685,ls),
(566,750,o),
(540,770,o),
(485,789,cs),
(330,843,l),
(361,736,l),
(378,838,ls),
(385,876,o),
(408,895,o),
(447,895,cs),
(634,895,l),
(690,1234,l),
(479,1234,ls),
(210,1234,o),
(130,1082,o),
(101,907,cs),
(73,734,l),
(162,690,l),
(114,403,ls),
(71,145,o),
(228,-15,o),
(575,-15,cs)
);
}
);
width = 2002;
}
);
script = khmer;
subCategory = Other;
unicode = 6048;
}
{
category = Letter;
glyphname = "la-khmer";
kernLeft = KH_TO;
layers = (
{
anchors = (
{
name = bottom;
pos = (940,-559);
},
{
name = bottomright;
pos = (1254,-559);
},
{
name = top;
pos = (1266,1234);
},
{
name = topright;
pos = (1551,1234);
}
);
layerId = "200BE2C5-40F6-4CF4-AF4F-A33C0CC0964F";
shapes = (
{
closed = 1;
nodes = (
(675,-559,l),
(987,-292,l),
(1212,-559,l),
(1254,-559,l),
(1495,896,ls),
(1498,917,o),
(1491,926,o),
(1475,931,cs),
(1337,984,l),
(1347,963,l),
(1361,1047,ls),
(1377,1150,o),
(1436,1187,o),
(1521,1187,cs),
(1604,1187,l),
(1612,1234,l),
(1529,1234,ls),
(1416,1234,o),
(1339,1180,o),
(1317,1047,cs),
(1302,952,l),
(1448,896,l),
(1218,-492,l),
(1215,-492,l),
(1007,-244,l),
(978,-244,l),
(687,-492,l),
(684,-492,l),
(748,-105,l),
(601,-105,l),
(594,-148,l),
(694,-148,l),
(626,-559,l)
);
},
{
ref = "to-khmer";
}
);
width = 1671;
},
{
anchors = (
{
name = bottom;
pos = (979,-559);
},
{
name = bottomright;
pos = (1364,-559);
},
{
name = top;
pos = (1302,1234);
},
{
name = topright;
pos = (1661,1234);
}
);
background = {
anchors = (
{
name = bottom;
pos = (979,-559);
},
{
name = bottomright;
pos = (1364,-559);
},
{
name = top;
pos = (1302,1234);
},
{
name = topright;
pos = (1661,1234);
}
);
shapes = (
{
closed = 1;
nodes = (
(763,-559,l),
(1019,-358,l),
(1211,-559,l),
(1364,-559,l),
(1593,821,ls),
(1600,864,o),
(1588,880,o),
(1548,899,cs),
(1446,947,l),
(1449,887,l),
(1463,970,ls),
(1476,1043,o),
(1511,1077,o),
(1588,1077,cs),
(1676,1077,l),
(1702,1234,l),
(1611,1234,ls),
(1443,1234,o),
(1349,1156,o),
(1320,977,cs),
(1301,862,l),
(1423,807,l),
(1227,-378,l),
(1221,-378,l),
(1059,-215,l),
(1011,-215,l),
(797,-378,l),
(792,-378,l),
(837,-105,l),
(669,-105,ls),
(581,-105,o),
(529,-157,o),
(518,-222,cs),
(504,-311,o),
(546,-358,o),
(627,-358,cs),
(663,-358,l),
(632,-327,l),
(593,-559,l)
);
},
{
closed = 1;
nodes = (
(613,-289,o),
(602,-265,o),
(608,-229,cs),
(613,-195,o),
(637,-175,o),
(667,-175,cs),
(672,-175,l),
(653,-289,l),
(648,-289,ls)
);
},
{
ref = "to-khmer";
}
);
};
layerId = "11F4534A-B963-4AB5-820F-DAF9A20CD933";
shapes = (
{
closed = 1;
nodes = (
(763,-559,l),
(1019,-358,l),
(1211,-559,l),
(1364,-559,l),
(1593,821,ls),
(1600,864,o),
(1588,880,o),
(1548,899,cs),
(1446,947,l),
(1449,887,l),
(1463,970,ls),
(1476,1043,o),
(1511,1077,o),
(1588,1077,cs),
(1676,1077,l),
(1702,1234,l),
(1611,1234,ls),
(1443,1234,o),
(1349,1156,o),
(1320,977,cs),
(1301,862,l),
(1423,807,l),
(1226,-381,l),
(1220,-381,l),
(1059,-215,l),
(1011,-215,l),
(797,-381,l),
(791,-381,l),
(837,-105,l),
(578,-105,l),
(559,-220,l),
(650,-220,l),
(594,-559,l)
);
},
{
ref = "to-khmer";
}
);
width = 1763;
},
{
anchors = (
{
name = bottom;
pos = (1086,-559);
},
{
name = bottomright;
pos = (1612,-559);
},
{
name = top;
pos = (1390,1234);
},
{
name = topright;
pos = (1909,1234);
}
);
background = {
anchors = (
{
name = bottom;
pos = (1086,-559);
},
{
name = bottomright;
pos = (1612,-559);
},
{
name = top;
pos = (1390,1234);
},
{
name = topright;
pos = (1909,1234);
}
);
shapes = (
{
closed = 1;
nodes = (
(939,-559,l),
(1110,-407,l),
(1233,-559,l),
(1612,-559,l),
(1818,685,ls),
(1830,757,o),
(1796,772,o),
(1748,789,cs),
(1593,843,l),
(1624,736,l),
(1642,838,ls),
(1648,876,o),
(1671,895,o),
(1711,895,cs),
(1896,895,l),
(1952,1234,l),
(1742,1234,ls),
(1484,1234,o),
(1396,1097,o),
(1364,907,cs),
(1336,734,l),
(1425,690,l),
(1265,-277,l),
(1257,-277,l),
(1168,-176,l),
(1131,-176,l),
(1008,-277,l),
(1000,-277,l),
(1031,-92,l),
(686,-92,ls),
(590,-92,o),
(515,-149,o),
(498,-249,cs),
(482,-349,o),
(538,-405,o),
(634,-405,cs),
(662,-405,l),
(604,-382,l),
(575,-559,l)
);
},
{
closed = 1;
nodes = (
(625,-307,o),
(617,-278,o),
(621,-249,cs),
(627,-213,o),
(656,-195,o),
(688,-195,cs),
(698,-195,l),
(679,-307,l),
(670,-307,ls)
);
},
{
pos = (1,0);
ref = "to-khmer";
}
);
};
layerId = "D0EC06BF-13F9-4C88-A6F5-B8203AF6C77E";
shapes = (
{
closed = 1;
nodes = (
(947,-559,l),
(1118,-407,l),
(1240,-559,l),
(1612,-559,l),
(1818,685,ls),
(1830,757,o),
(1796,772,o),
(1748,789,cs),
(1593,843,l),
(1624,736,l),
(1642,838,ls),
(1648,876,o),
(1671,895,o),
(1711,895,cs),
(1896,895,l),
(1952,1234,l),
(1742,1234,ls),
(1484,1234,o),
(1396,1097,o),
(1364,907,cs),
(1336,734,l),
(1425,690,l),
(1265,-277,l),
(1257,-277,l),
(1168,-176,l),
(1131,-176,l),
(1008,-277,l),
(1001,-277,l),
(1032,-93,l),
(553,-93,l),
(526,-255,l),
(626,-255,l),
(576,-559,l)
);
},
{
pos = (1,0);
ref = "to-khmer";
}
);
width = 1938;
},
{
anchors = (
{
name = bottom;
pos = (1075,-559);
},
{
name = bottomright;
pos = (1602,-559);
},
{
name = top;
pos = (1380,1234);
},
{
name = topright;
pos = (1899,1234);
}
);
associatedMasterId = "D0EC06BF-13F9-4C88-A6F5-B8203AF6C77E";
color = 3;
layerId = "2EE3CFEC-D1C4-4ADE-8B9F-8116D295B19D";
name = "Apr 6 22, 12:14";
shapes = (
{
closed = 1;
nodes = (
(936,-559,l),
(1107,-407,l),
(1230,-559,l),
(1602,-559,l),
(1808,685,ls),
(1820,757,o),
(1786,772,o),
(1738,789,cs),
(1583,843,l),
(1614,736,l),
(1631,838,ls),
(1638,876,o),
(1660,895,o),
(1700,895,cs),
(1886,895,l),
(1942,1234,l),
(1732,1234,ls),
(1474,1234,o),
(1385,1097,o),
(1354,907,cs),
(1326,734,l),
(1415,690,l),
(1254,-277,l),
(1247,-277,l),
(1158,-176,l),
(1121,-176,l),
(998,-277,l),
(990,-277,l),
(1021,-92,l),
(676,-92,ls),
(580,-92,o),
(505,-149,o),
(490,-242,cs),
(472,-349,o),
(528,-405,o),
(624,-405,cs),
(652,-405,l),
(594,-382,l),
(565,-559,l)
);
},
{
closed = 1;
nodes = (
(615,-307,o),
(607,-278,o),
(611,-249,cs),
(617,-213,o),
(646,-195,o),
(678,-195,cs),
(688,-195,l),
(669,-307,l),
(660,-307,ls)
);
},
{
pos = (1,0);
ref = "to-khmer";
}
);
width = 1924;
},
{
anchors = (
{
name = bottom;
pos = (940,-559);
},
{
name = bottomright;
pos = (1254,-559);
},
{
name = top;
pos = (1266,1234);
},
{
name = topright;
pos = (1551,1234);
}
);
associatedMasterId = "200BE2C5-40F6-4CF4-AF4F-A33C0CC0964F";
background = {
anchors = (
{
name = bottom;
pos = (944,-536);
},
{
name = bottomright;
pos = (1258,-536);
},
{
name = top;
pos = (1266,1234);
},
{
name = topright;
pos = (1551,1234);
}
);
shapes = (
{
closed = 1;
nodes = (
(676,-536,l),
(988,-268,l),
(1213,-536,l),
(1258,-536,l),
(1495,896,ls),
(1498,917,o),
(1490,926,o),
(1475,931,cs),
(1337,984,l),
(1347,963,l),
(1361,1047,ls),
(1377,1150,o),
(1437,1187,o),
(1521,1187,cs),
(1604,1187,l),
(1612,1234,l),
(1529,1234,ls),
(1416,1234,o),
(1339,1180,o),
(1317,1047,cs),
(1302,952,l),
(1448,896,l),
(1222,-469,l),
(1220,-469,l),
(1011,-220,l),
(982,-220,l),
(691,-469,l),
(688,-469,l),
(749,-105,l),
(688,-105,ls),
(605,-105,o),
(547,-166,o),
(547,-253,cs),
(547,-314,o),
(584,-349,o),
(647,-349,cs),
(683,-349,l),
(665,-328,l),
(631,-536,l)
);
},
{
closed = 1;
nodes = (
(613,-309,o),
(590,-285,o),
(590,-245,cs),
(590,-186,o),
(627,-146,o),
(680,-146,cs),
(695,-146,l),
(668,-309,l),
(653,-309,ls)
);
},
{
ref = "to-khmer";
}
);
};
color = 3;
layerId = "91FB6CC4-656F-40B1-82FA-BDF168C2B9A7";
name = "Apr 6 22, 12:53";
shapes = (
{
closed = 1;
nodes = (
(675,-559,l),
(988,-292,l),
(1212,-559,l),
(1254,-559,l),
(1495,896,ls),
(1498,917,o),
(1491,926,o),
(1475,931,cs),
(1337,984,l),
(1347,963,l),
(1361,1047,ls),
(1377,1150,o),
(1436,1187,o),
(1521,1187,cs),
(1604,1187,l),
(1612,1234,l),
(1529,1234,ls),
(1416,1234,o),
(1339,1180,o),
(1317,1047,cs),
(1302,952,l),
(1448,896,l),
(1218,-492,l),
(1215,-492,l),
(1007,-244,l),
(978,-244,l),
(687,-492,l),
(684,-492,l),
(748,-105,l),
(687,-105,ls),
(615,-105,o),
(562,-149,o),
(551,-217,cs),
(536,-303,o),
(575,-349,o),
(647,-349,cs),
(683,-349,l),
(664,-328,l),
(626,-559,l)
);
},
{
closed = 1;
nodes = (
(605,-309,o),
(583,-276,o),
(592,-224,cs),
(600,-175,o),
(634,-146,o),
(680,-146,cs),
(695,-146,l),
(668,-309,l),
(653,-309,ls)
);
},
{
ref = "to-khmer";
}
);
width = 1671;
}
);
script = khmer;
subCategory = Other;
unicode = 6049;
}
{
category = Letter;
glyphname = "qa-khmer";
layers = (
{
anchors = (
{
name = bottom;
pos = (585,0);
},
{
name = bottomright;
pos = (1008,0);
},
{
name = top;
pos = (789,1234);
},
{
name = topright;
pos = (1212,1234);
}
);
layerId = "200BE2C5-40F6-4CF4-AF4F-A33C0CC0964F";
shapes = (
{
closed = 1;
nodes = (
(1078,572,l),
(1085,616,l),
(395,616,l),
(388,572,l)
);
},
{
closed = 1;
nodes = (
(311,0,l),
(459,896,ls),
(463,917,o),
(455,926,o),
(439,931,cs),
(294,984,l),
(304,963,l),
(318,1047,ls),
(335,1150,o),
(393,1187,o),
(479,1187,cs),
(568,1187,l),
(576,1234,l),
(487,1234,ls),
(373,1234,o),
(297,1180,o),
(274,1047,cs),
(258,951,l),
(413,895,l),
(321,343,l),
(355,374,l),
(307,374,ls),
(194,374,o),
(112,303,o),
(94,191,cs),
(73,68,o),
(132,0,o),
(245,0,cs)
);
},
{
closed = 1;
nodes = (
(164,41,o),
(120,96,o),
(135,184,cs),
(150,276,o),
(212,333,o),
(298,333,cs),
(319,333,l),
(271,41,l),
(252,41,ls)
);
},
{
closed = 1;
nodes = (
(1008,0,l),
(1156,896,ls),
(1160,917,o),
(1153,926,o),
(1137,931,cs),
(991,984,l),
(1001,963,l),
(1015,1047,ls),
(1033,1150,o),
(1090,1187,o),
(1176,1187,cs),
(1265,1187,l),
(1273,1234,l),
(1184,1234,ls),
(1070,1234,o),
(994,1180,o),
(971,1047,cs),
(955,951,l),
(1110,895,l),
(1018,343,l),
(1052,374,l),
(1004,374,ls),
(891,374,o),
(809,303,o),
(791,191,cs),
(771,68,o),
(829,0,o),
(942,0,cs)
);
},
{
closed = 1;
nodes = (
(862,41,o),
(817,96,o),
(832,184,cs),
(847,276,o),
(909,333,o),
(995,333,cs),
(1016,333,l),
(968,41,l),
(949,41,ls)
);
}
);
width = 1333;
},
{
anchors = (
{
name = bottom;
pos = (612,0);
},
{
name = bottomright;
pos = (1092,0);
},
{
name = top;
pos = (816,1234);
},
{
name = topright;
pos = (1297,1234);
}
);
layerId = "11F4534A-B963-4AB5-820F-DAF9A20CD933";
shapes = (
{
closed = 1;
nodes = (
(1057,514,l),
(1080,653,l),
(435,653,l),
(413,514,l)
);
},
{
closed = 1;
nodes = (
(415,0,l),
(551,816,ls),
(558,859,o),
(548,878,o),
(506,894,cs),
(371,947,l),
(376,887,l),
(391,974,ls),
(402,1046,o),
(444,1077,o),
(520,1077,cs),
(617,1077,l),
(643,1234,l),
(538,1234,ls),
(370,1234,o),
(276,1156,o),
(247,977,cs),
(227,855,l),
(380,795,l),
(307,357,l),
(344,413,l),
(317,413,ls),
(185,413,o),
(103,336,o),
(84,221,cs),
(61,81,o),
(113,0,o),
(257,0,cs)
);
},
{
closed = 1;
nodes = (
(218,111,o),
(191,143,o),
(202,206,cs),
(211,259,o),
(239,310,o),
(305,310,cs),
(316,310,l),
(282,111,l),
(267,111,ls)
);
},
{
closed = 1;
nodes = (
(1092,0,l),
(1228,816,ls),
(1235,859,o),
(1225,878,o),
(1183,894,cs),
(1048,947,l),
(1053,887,l),
(1067,974,ls),
(1079,1046,o),
(1121,1077,o),
(1196,1077,cs),
(1294,1077,l),
(1320,1234,l),
(1215,1234,ls),
(1047,1234,o),
(953,1156,o),
(923,977,cs),
(904,855,l),
(1057,795,l),
(984,357,l),
(1021,413,l),
(993,413,ls),
(862,413,o),
(779,336,o),
(760,221,cs),
(738,81,o),
(789,0,o),
(934,0,cs)
);
},
{
closed = 1;
nodes = (
(895,111,o),
(868,143,o),
(879,206,cs),
(888,259,o),
(916,310,o),
(982,310,cs),
(992,310,l),
(959,111,l),
(944,111,ls)
);
}
);
width = 1391;
},
{
anchors = (
{
name = bottom;
pos = (646,0);
},
{
name = bottomright;
pos = (1228,0);
},
{
name = top;
pos = (851,1234);
},
{
name = topright;
pos = (1432,1234);
}
);
layerId = "D0EC06BF-13F9-4C88-A6F5-B8203AF6C77E";
shapes = (
{
closed = 1;
nodes = (
(1156,458,l),
(1185,632,l),
(514,632,l),
(485,458,l)
);
},
{
closed = 1;
nodes = (
(548,0,l),
(661,685,ls),
(672,750,o),
(644,771,o),
(592,789,cs),
(410,851,l),
(441,736,l),
(458,838,ls),
(464,876,o),
(490,895,o),
(536,895,cs),
(724,895,l),
(780,1234,l),
(574,1234,ls),
(304,1234,o),
(212,1090,o),
(179,891,cs),
(154,737,l),
(266,678,l),
(212,357,l),
(284,414,l),
(262,414,ls),
(128,414,o),
(45,346,o),
(24,221,cs),
(1,81,o),
(76,0,o),
(232,0,cs)
);
},
{
closed = 1;
nodes = (
(226,138,o),
(207,163,o),
(214,206,cs),
(221,252,o),
(251,282,o),
(290,282,cs),
(301,282,l),
(276,138,l),
(264,138,ls)
);
},
{
closed = 1;
nodes = (
(1226,0,l),
(1340,685,ls),
(1350,750,o),
(1322,771,o),
(1270,789,cs),
(1089,851,l),
(1119,736,l),
(1137,838,ls),
(1142,876,o),
(1169,895,o),
(1214,895,cs),
(1402,895,l),
(1458,1234,l),
(1252,1234,ls),
(982,1234,o),
(890,1090,o),
(857,891,cs),
(832,737,l),
(944,678,l),
(891,357,l),
(962,414,l),
(940,414,ls),
(806,414,o),
(723,346,o),
(702,221,cs),
(679,81,o),
(755,0,o),
(910,0,cs)
);
},
{
closed = 1;
nodes = (
(904,138,o),
(885,163,o),
(892,206,cs),
(899,252,o),
(929,282,o),
(968,282,cs),
(979,282,l),
(955,138,l),
(942,138,ls)
);
}
);
width = 1460;
}
);
script = khmer;
subCategory = Other;
unicode = 6050;
}
{
category = Letter;
glyphname = "qi-khmer";
layers = (
{
layerId = "200BE2C5-40F6-4CF4-AF4F-A33C0CC0964F";
shapes = (
{
closed = 1;
nodes = (
(867,0,l),
(913,0,l),
(1009,582,ls),
(1047,811,o),
(921,955,o),
(685,955,cs),
(448,955,o),
(274,811,o),
(236,582,cs),
(140,0,l),
(212,0,ls),
(329,0,o),
(414,68,o),
(431,177,cs),
(453,303,o),
(391,374,o),
(274,374,cs),
(218,374,l),
(244,343,l),
(283,582,ls),
(317,783,o),
(469,908,o),
(685,908,cs),
(891,908,o),
(996,783,o),
(963,582,cs)
);
},
{
closed = 1;
nodes = (
(194,41,l),
(242,333,l),
(270,333,ls),
(360,333,o),
(406,276,o),
(391,184,cs),
(376,96,o),
(310,41,o),
(218,41,cs)
);
},
{
closed = 1;
nodes = (
(993,1187,ls),
(1079,1187,o),
(1123,1220,o),
(1136,1303,cs),
(1148,1374,l),
(1103,1374,l),
(1091,1303,ls),
(1083,1254,o),
(1062,1234,o),
(1002,1234,cs),
(338,1234,l),
(330,1187,l)
);
}
);
width = 1238;
},
{
layerId = "11F4534A-B963-4AB5-820F-DAF9A20CD933";
shapes = (
{
closed = 1;
nodes = (
(842,0,l),
(1009,0,l),
(1094,514,ls),
(1134,755,o),
(982,920,o),
(717,920,cs),
(453,920,o),
(247,755,o),
(207,514,cs),
(122,0,l),
(308,0,ls),
(454,0,o),
(537,72,o),
(557,196,cs),
(579,327,o),
(514,413,o),
(383,413,cs),
(330,413,l),
(348,357,l),
(373,505,ls),
(398,661,o),
(539,768,o),
(703,768,cs),
(867,768,o),
(951,661,o),
(926,505,cs)
);
},
{
closed = 1;
nodes = (
(303,111,l),
(336,310,l),
(357,310,ls),
(416,310,o),
(445,273,o),
(434,210,cs),
(424,148,o),
(384,111,o),
(328,111,cs)
);
},
{
closed = 1;
nodes = (
(1001,1077,ls),
(1124,1077,o),
(1203,1131,o),
(1223,1247,cs),
(1244,1374,l),
(1080,1374,l),
(1062,1267,ls),
(1058,1243,o),
(1047,1234,o),
(1022,1234,cs),
(319,1234,l),
(293,1077,l)
);
}
);
width = 1316;
},
{
layerId = "D0EC06BF-13F9-4C88-A6F5-B8203AF6C77E";
shapes = (
{
closed = 1;
nodes = (
(725,0,l),
(1120,0,l),
(1188,414,ls),
(1231,672,o),
(1073,831,o),
(722,831,cs),
(371,831,o),
(160,672,o),
(117,414,cs),
(49,0,l),
(397,0,ls),
(543,0,o),
(626,60,o),
(648,192,cs),
(670,326,o),
(608,414,o),
(482,414,cs),
(476,414,l),
(502,357,l),
(509,397,ls),
(522,481,o),
(586,537,o),
(673,537,cs),
(760,537,o),
(805,481,o),
(791,397,cs)
);
},
{
closed = 1;
nodes = (
(393,140,l),
(416,279,l),
(426,279,ls),
(475,279,o),
(483,240,o),
(477,207,cs),
(470,159,o),
(439,140,o),
(405,140,cs)
);
},
{
closed = 1;
nodes = (
(1000,895,ls),
(1178,895,o),
(1292,993,o),
(1321,1171,cs),
(1348,1336,l),
(961,1336,l),
(947,1254,ls),
(946,1242,o),
(937,1234,o),
(926,1234,cs),
(246,1234,l),
(190,895,l)
);
}
);
width = 1353;
}
);
script = khmer;
subCategory = Other;
unicode = 6053;
}
{
category = Letter;
glyphname = "qii-khmer";
layers = (
{
layerId = "200BE2C5-40F6-4CF4-AF4F-A33C0CC0964F";
shapes = (
{
closed = 1;
nodes = (
(1008,-559,ls),
(1208,-559,o),
(1287,-458,o),
(1314,-293,cs),
(1610,1494,ls),
(1636,1648,o),
(1553,1770,o),
(1377,1770,cs),
(1231,1770,o),
(1145,1682,o),
(1109,1630,c),
(1103,1630,l),
(1150,1909,l),
(1105,1909,l),
(1031,1467,l),
(1076,1467,l),
(1078,1475,ls),
(1105,1623,o),
(1224,1724,o),
(1377,1724,cs),
(1526,1724,o),
(1585,1620,o),
(1564,1494,cs),
(1268,-293,ls),
(1241,-458,o),
(1163,-514,o),
(1016,-514,cs),
(743,-514,l),
(736,-559,l)
);
},
{
closed = 1;
nodes = (
(191,-358,l),
(216,-358,ls),
(271,-358,o),
(298,-389,o),
(290,-439,cs),
(282,-489,o),
(242,-520,o),
(186,-520,cs),
(164,-520,l)
);
},
{
closed = 1;
nodes = (
(180,-559,ls),
(260,-559,o),
(317,-516,o),
(328,-447,cs),
(342,-363,o),
(299,-320,o),
(219,-320,cs),
(188,-320,l),
(191,-352,l),
(194,-335,ls),
(215,-207,o),
(341,-138,o),
(512,-138,cs),
(674,-138,o),
(769,-207,o),
(748,-335,cs),
(711,-559,l),
(756,-559,l),
(793,-335,ls),
(819,-178,o),
(700,-93,o),
(512,-93,cs),
(322,-93,o),
(176,-178,o),
(150,-335,cs),
(113,-559,l)
);
},
{
closed = 1;
nodes = (
(242,333,l),
(270,333,ls),
(360,333,o),
(406,276,o),
(391,184,cs),
(376,96,o),
(310,41,o),
(218,41,cs),
(194,41,l)
);
},
{
closed = 1;
nodes = (
(212,0,ls),
(329,0,o),
(414,68,o),
(431,177,cs),
(453,303,o),
(391,374,o),
(274,374,cs),
(218,374,l),
(244,343,l),
(332,876,ls),
(366,1083,o),
(516,1202,o),
(727,1202,cs),
(944,1202,o),
(1045,1077,o),
(1011,876,cs),
(867,0,l),
(913,0,l),
(1058,876,ls),
(1096,1105,o),
(971,1249,o),
(729,1249,cs),
(503,1249,o),
(327,1125,o),
(285,876,cs),
(140,0,l)
);
}
);
width = 1688;
},
{
layerId = "11F4534A-B963-4AB5-820F-DAF9A20CD933";
shapes = (
{
closed = 1;
nodes = (
(1071,-559,ls),
(1335,-559,o),
(1469,-441,o),
(1505,-224,cs),
(1789,1490,ls),
(1819,1676,o),
(1687,1803,o),
(1486,1803,cs),
(1345,1803,o),
(1254,1741,o),
(1204,1672,c),
(1195,1672,l),
(1243,1956,l),
(1080,1956,l),
(999,1467,l),
(1168,1467,l),
(1169,1473,ls),
(1182,1582,o),
(1304,1655,o),
(1440,1655,cs),
(1578,1655,o),
(1636,1579,o),
(1618,1467,cs),
(1339,-215,ls),
(1318,-345,o),
(1240,-425,o),
(1093,-425,cs),
(749,-425,l),
(728,-559,l)
);
},
{
closed = 1;
nodes = (
(270,-386,l),
(289,-386,ls),
(317,-386,o),
(334,-406,o),
(329,-436,cs),
(324,-466,o),
(301,-486,o),
(272,-486,cs),
(253,-486,l)
);
},
{
closed = 1;
nodes = (
(275,-559,ls),
(358,-559,o),
(414,-520,o),
(426,-444,cs),
(439,-368,o),
(398,-318,o),
(315,-318,cs),
(273,-318,l),
(285,-373,l),
(287,-362,ls),
(305,-279,o),
(399,-223,o),
(537,-223,cs),
(674,-223,o),
(736,-279,o),
(721,-371,cs),
(690,-559,l),
(847,-559,l),
(880,-360,ls),
(907,-191,o),
(797,-93,o),
(550,-93,cs),
(303,-93,o),
(159,-191,o),
(132,-360,cs),
(99,-559,l)
);
},
{
closed = 1;
nodes = (
(336,310,l),
(357,310,ls),
(416,310,o),
(445,273,o),
(434,210,cs),
(424,148,o),
(384,111,o),
(328,111,cs),
(303,111,l)
);
},
{
closed = 1;
nodes = (
(308,0,ls),
(454,0,o),
(537,72,o),
(557,196,cs),
(579,327,o),
(514,413,o),
(383,413,cs),
(330,413,l),
(348,357,l),
(426,831,ls),
(453,987,o),
(593,1094,o),
(757,1094,cs),
(920,1094,o),
(1006,987,o),
(979,831,cs),
(842,0,l),
(1009,0,l),
(1148,840,ls),
(1188,1081,o),
(1035,1246,o),
(771,1246,cs),
(507,1246,o),
(301,1081,o),
(260,840,cs),
(122,0,l)
);
}
);
width = 1848;
},
{
layerId = "D0EC06BF-13F9-4C88-A6F5-B8203AF6C77E";
shapes = (
{
closed = 1;
nodes = (
(1199,-559,ls),
(1553,-559,o),
(1695,-429,o),
(1728,-231,cs),
(2005,1442,ls),
(2048,1704,o),
(1909,1831,o),
(1692,1831,cs),
(1503,1831,o),
(1401,1735,o),
(1357,1661,c),
(1345,1661,l),
(1393,1956,l),
(1023,1956,l),
(934,1417,l),
(1305,1417,l),
(1307,1425,ls),
(1321,1513,o),
(1393,1559,o),
(1479,1559,cs),
(1573,1559,o),
(1620,1503,o),
(1607,1425,cs),
(1340,-188,ls),
(1322,-297,o),
(1273,-359,o),
(1171,-359,cs),
(834,-359,l),
(801,-559,l)
);
},
{
closed = 1;
nodes = (
(349,-387,l),
(359,-387,ls),
(389,-387,o),
(404,-402,o),
(399,-432,cs),
(394,-463,o),
(374,-479,o),
(343,-479,cs),
(334,-479,l)
);
},
{
closed = 1;
nodes = (
(379,-559,ls),
(458,-559,o),
(509,-520,o),
(522,-439,cs),
(535,-358,o),
(497,-314,o),
(419,-314,cs),
(413,-314,l),
(413,-355,l),
(428,-355,l),
(435,-314,o),
(472,-278,o),
(542,-278,cs),
(615,-278,o),
(645,-317,o),
(634,-378,cs),
(605,-559,l),
(968,-559,l),
(999,-369,ls),
(1030,-186,o),
(914,-78,o),
(574,-78,cs),
(234,-78,o),
(81,-187,o),
(52,-369,cs),
(20,-559,l)
);
},
{
closed = 1;
nodes = (
(416,279,l),
(426,279,ls),
(475,279,o),
(483,240,o),
(477,207,cs),
(470,159,o),
(439,140,o),
(405,140,cs),
(393,140,l)
);
},
{
closed = 1;
nodes = (
(397,0,ls),
(543,0,o),
(626,60,o),
(648,192,cs),
(670,326,o),
(608,414,o),
(482,414,cs),
(476,414,l),
(502,357,l),
(578,816,ls),
(592,899,o),
(658,955,o),
(749,955,cs),
(841,955,o),
(889,899,o),
(876,816,cs),
(741,0,l),
(1134,0,l),
(1272,832,ls),
(1315,1090,o),
(1154,1249,o),
(798,1249,cs),
(442,1249,o),
(229,1090,o),
(186,832,cs),
(49,0,l)
);
}
);
width = 2000;
}
);
script = khmer;
subCategory = Other;
unicode = 6054;
}
{
category = Letter;
glyphname = "qu-khmer";
layers = (
{
layerId = "200BE2C5-40F6-4CF4-AF4F-A33C0CC0964F";
shapes = (
{
closed = 1;
nodes = (
(634,-15,o),
(783,91,o),
(857,223,c),
(864,223,l),
(827,0,l),
(872,0,l),
(945,443,l),
(900,443,l),
(894,405,ls),
(854,168,o),
(637,31,o),
(447,31,cs),
(268,31,o),
(172,149,o),
(198,319,cs),
(220,468,o),
(322,553,o),
(485,577,cs),
(685,607,ls),
(867,634,o),
(1013,715,o),
(1045,910,cs),
(1078,1113,o),
(952,1249,o),
(717,1249,cs),
(501,1249,o),
(339,1131,o),
(263,960,c),
(306,946,l),
(379,1105,o),
(527,1202,o),
(717,1202,cs),
(919,1202,o),
(1027,1094,o),
(998,916,cs),
(963,695,o),
(763,663,o),
(685,651,cs),
(485,621,ls),
(287,592,o),
(179,490,o),
(152,326,cs),
(119,122,o),
(240,-15,o),
(450,-15,cs)
);
}
);
width = 1174;
},
{
layerId = "11F4534A-B963-4AB5-820F-DAF9A20CD933";
shapes = (
{
closed = 1;
nodes = (
(658,-15,o),
(762,63,o),
(826,167,c),
(835,167,l),
(807,0,l),
(973,0,l),
(1043,426,l),
(876,426,l),
(872,399,ls),
(850,268,o),
(673,137,o),
(492,137,cs),
(356,137,o),
(294,210,o),
(314,331,cs),
(335,455,o),
(420,504,o),
(512,516,cs),
(721,544,ls),
(955,575,o),
(1107,670,o),
(1140,870,cs),
(1177,1096,o),
(1031,1249,o),
(757,1249,cs),
(496,1249,o),
(309,1109,o),
(247,917,c),
(415,886,l),
(454,1007,o),
(570,1097,o),
(733,1097,cs),
(889,1097,o),
(986,1013,o),
(965,885,cs),
(945,767,o),
(843,710,o),
(717,694,cs),
(524,669,ls),
(312,642,o),
(177,551,o),
(143,346,cs),
(104,115,o),
(239,-15,o),
(474,-15,cs)
);
}
);
width = 1282;
},
{
layerId = "D0EC06BF-13F9-4C88-A6F5-B8203AF6C77E";
shapes = (
{
closed = 1;
nodes = (
(569,-15,o),
(657,53,o),
(702,116,c),
(714,116,l),
(695,0,l),
(1073,0,l),
(1139,403,l),
(747,403,l),
(738,351,ls),
(725,276,o),
(669,224,o),
(586,224,cs),
(511,224,o),
(461,268,o),
(473,338,cs),
(483,399,o),
(534,445,o),
(645,455,cs),
(782,469,ls),
(1027,494,o),
(1208,584,o),
(1248,824,cs),
(1294,1106,o),
(1083,1249,o),
(765,1249,cs),
(447,1249,o),
(218,1091,o),
(166,812,c),
(559,812,l),
(578,896,o),
(640,955,o),
(730,955,cs),
(808,955,o),
(859,911,o),
(846,832,cs),
(832,753,o),
(765,710,o),
(663,701,cs),
(512,688,ls),
(263,667,o),
(117,565,o),
(81,343,cs),
(44,119,o),
(160,-15,o),
(399,-15,cs)
);
}
);
width = 1307;
}
);
script = khmer;
subCategory = Other;
unicode = 6055;
}
{
category = Letter;
glyphname = "quk-khmer";
layers = (
{
layerId = "200BE2C5-40F6-4CF4-AF4F-A33C0CC0964F";
shapes = (
{
closed = 1;
nodes = (
(1129,1511,l),
(1137,1557,l),
(393,1557,l),
(385,1511,l)
);
},
{
ref = "qu-khmer";
}
);
width = 1174;
},
{
layerId = "11F4534A-B963-4AB5-820F-DAF9A20CD933";
shapes = (
{
closed = 1;
nodes = (
(1217,1467,l),
(1242,1618,l),
(405,1618,l),
(381,1467,l)
);
},
{
ref = "qu-khmer";
}
);
width = 1282;
},
{
layerId = "D0EC06BF-13F9-4C88-A6F5-B8203AF6C77E";
shapes = (
{
closed = 1;
nodes = (
(1314,1394,l),
(1356,1643,l),
(343,1643,l),
(302,1394,l)
);
},
{
ref = "qu-khmer";
}
);
width = 1307;
}
);
metricWidth = "qu-khmer";
script = khmer;
subCategory = Other;
unicode = 6056;
}
{
category = Letter;
glyphname = "quu-khmer";
layers = (
{
layerId = "200BE2C5-40F6-4CF4-AF4F-A33C0CC0964F";
shapes = (
{
closed = 1;
nodes = (
(592,-15,o),
(725,84,o),
(798,212,c),
(805,212,l),
(769,0,l),
(814,0,l),
(888,442,l),
(843,442,l),
(836,405,ls),
(799,189,o),
(624,31,o),
(425,31,cs),
(267,31,o),
(169,140,o),
(198,317,cs),
(223,465,o),
(322,553,o),
(485,577,cs),
(685,607,ls),
(867,634,o),
(1013,715,o),
(1044,904,cs),
(1083,1135,o),
(930,1249,o),
(717,1249,cs),
(502,1249,o),
(340,1131,o),
(264,960,c),
(306,946,l),
(380,1105,o),
(520,1202,o),
(711,1202,cs),
(910,1202,o),
(1028,1097,o),
(998,913,cs),
(961,694,o),
(761,662,o),
(685,651,cs),
(485,621,ls),
(290,592,o),
(179,486,o),
(152,325,cs),
(118,119,o),
(231,-15,o),
(425,-15,cs)
);
},
{
closed = 1;
nodes = (
(989,0,l),
(1062,442,l),
(1017,442,l),
(944,0,l)
);
}
);
width = 1174;
},
{
layerId = "11F4534A-B963-4AB5-820F-DAF9A20CD933";
shapes = (
{
closed = 1;
nodes = (
(594,-15,o),
(675,57,o),
(742,145,c),
(751,145,l),
(727,0,l),
(878,0,l),
(949,426,l),
(796,426,l),
(792,401,ls),
(770,268,o),
(616,134,o),
(453,134,cs),
(338,134,o),
(294,205,o),
(313,322,cs),
(333,439,o),
(399,501,o),
(512,516,cs),
(721,544,ls),
(955,575,o),
(1106,664,o),
(1139,867,cs),
(1179,1107,o),
(1015,1249,o),
(757,1249,cs),
(501,1249,o),
(309,1109,o),
(247,917,c),
(415,886,l),
(454,1007,o),
(573,1097,o),
(734,1097,cs),
(888,1097,o),
(987,1016,o),
(965,885,cs),
(945,766,o),
(843,710,o),
(717,694,cs),
(524,669,ls),
(302,641,o),
(175,537,o),
(140,333,cs),
(106,124,o),
(210,-15,o),
(434,-15,cs)
);
},
{
closed = 1;
nodes = (
(1130,0,l),
(1201,426,l),
(1049,426,l),
(979,0,l)
);
}
);
width = 1282;
},
{
layerId = "D0EC06BF-13F9-4C88-A6F5-B8203AF6C77E";
shapes = (
{
closed = 1;
nodes = (
(581,-15,o),
(669,54,o),
(713,116,c),
(725,116,l),
(706,0,l),
(911,0,l),
(978,403,l),
(757,403,l),
(749,351,ls),
(736,275,o),
(680,224,o),
(597,224,cs),
(520,224,o),
(470,268,o),
(482,338,cs),
(492,400,o),
(543,445,o),
(653,455,cs),
(791,469,ls),
(1035,494,o),
(1217,588,o),
(1257,824,cs),
(1304,1110,o),
(1081,1249,o),
(773,1249,cs),
(445,1249,o),
(226,1091,o),
(175,817,c),
(568,817,l),
(589,902,o),
(653,955,o),
(739,955,cs),
(816,955,o),
(867,911,o),
(854,832,cs),
(841,753,o),
(774,710,o),
(672,701,cs),
(521,688,ls),
(271,667,o),
(125,561,o),
(89,343,cs),
(52,114,o),
(171,-15,o),
(408,-15,cs)
);
},
{
closed = 1;
nodes = (
(1187,0,l),
(1254,403,l),
(1065,403,l),
(998,0,l)
);
}
);
width = 1307;
}
);
metricWidth = "qu-khmer";
script = khmer;
subCategory = Other;
unicode = 6057;
}
{
category = Letter;
glyphname = "quuv-khmer";
layers = (
{
layerId = "200BE2C5-40F6-4CF4-AF4F-A33C0CC0964F";
shapes = (
{
closed = 1;
nodes = (
(362,1342,l),
(402,1501,o),
(482,1585,o),
(597,1585,cs),
(778,1585,o),
(830,1397,o),
(982,1397,cs),
(1063,1397,o),
(1120,1450,o),
(1135,1541,cs),
(1158,1676,l),
(1111,1676,l),
(1089,1543,ls),
(1079,1479,o),
(1038,1442,o),
(982,1442,cs),
(859,1442,o),
(797,1630,o),
(597,1630,cs),
(469,1630,o),
(365,1540,o),
(319,1353,c)
);
},
{
ref = "qu-khmer";
}
);
width = 1174;
},
{
layerId = "11F4534A-B963-4AB5-820F-DAF9A20CD933";
shapes = (
{
closed = 1;
nodes = (
(437,1321,l),
(469,1437,o),
(536,1500,o),
(624,1500,cs),
(747,1500,o),
(812,1374,o),
(979,1374,cs),
(1112,1374,o),
(1218,1454,o),
(1241,1591,cs),
(1259,1700,l),
(1099,1700,l),
(1083,1602,ls),
(1073,1544,o),
(1030,1519,o),
(984,1519,cs),
(883,1519,o),
(819,1646,o),
(639,1646,cs),
(476,1646,o),
(338,1542,o),
(290,1355,c)
);
},
{
alignment = -1;
ref = "qu-khmer";
}
);
width = 1282;
},
{
layerId = "D0EC06BF-13F9-4C88-A6F5-B8203AF6C77E";
shapes = (
{
closed = 1;
nodes = (
(537,1275,l),
(562,1376,o),
(619,1433,o),
(696,1433,cs),
(796,1433,o),
(893,1336,o),
(1066,1336,cs),
(1233,1336,o),
(1324,1426,o),
(1348,1570,cs),
(1377,1748,l),
(1028,1748,l),
(1014,1666,ls),
(1011,1644,o),
(996,1633,o),
(976,1633,cs),
(918,1633,o),
(831,1719,o),
(664,1719,cs),
(444,1719,o),
(292,1571,o),
(239,1347,c)
);
},
{
ref = "qu-khmer";
}
);
width = 1307;
}
);
metricWidth = "qu-khmer";
script = khmer;
subCategory = Other;
unicode = 6058;
}
{
category = Letter;
glyphname = "ry-khmer";
layers = (
{
anchors = (
{
name = _indpTail;
pos = (911,73);
}
);
layerId = "200BE2C5-40F6-4CF4-AF4F-A33C0CC0964F";
shapes = (
{
closed = 1;
nodes = (
(688,-530,o),
(829,-418,o),
(860,-237,cs),
(869,-183,o),
(867,-144,o),
(859,-105,c),
(815,-105,l),
(823,-144,o),
(825,-183,o),
(817,-230,cs),
(791,-388,o),
(664,-486,o),
(469,-486,cs),
(339,-486,o),
(217,-445,o),
(89,-358,c),
(86,-358,l),
(77,-410,l),
(183,-473,o),
(309,-530,o),
(469,-530,cs)
);
},
{
ref = "ba-khmer";
}
);
width = 1224;
},
{
anchors = (
{
name = _indpTail;
pos = (1014,73);
}
);
layerId = "11F4534A-B963-4AB5-820F-DAF9A20CD933";
shapes = (
{
closed = 1;
nodes = (
(759,-556,o),
(928,-449,o),
(963,-231,cs),
(971,-189,o),
(971,-147,o),
(965,-105,c),
(797,-105,l),
(803,-141,o),
(804,-178,o),
(798,-215,cs),
(776,-347,o),
(671,-409,o),
(489,-409,cs),
(362,-409,o),
(239,-365,o),
(110,-271,c),
(104,-271,l),
(76,-438,l),
(186,-504,o),
(314,-556,o),
(488,-556,cs)
);
},
{
ref = "ba-khmer";
}
);
width = 1308;
},
{
anchors = (
{
name = _indpTail;
pos = (1133,73);
}
);
layerId = "D0EC06BF-13F9-4C88-A6F5-B8203AF6C77E";
shapes = (
{
closed = 1;
nodes = (
(854,-565,o),
(1045,-462,o),
(1087,-203,cs),
(1094,-161,o),
(1094,-130,o),
(1091,-92,c),
(701,-92,l),
(705,-117,o),
(707,-141,o),
(703,-165,cs),
(691,-242,o),
(634,-271,o),
(493,-271,cs),
(357,-271,o),
(219,-244,o),
(76,-183,c),
(68,-183,l),
(17,-487,l),
(146,-537,o),
(298,-565,o),
(488,-565,cs)
);
},
{
ref = "ba-khmer";
}
);
width = 1352;
}
);
production = uni17AB;
script = khmer;
subCategory = Other;
unicode = 6059;
}
{
category = Letter;
glyphname = "ryy-khmer";
layers = (
{
anchors = (
{
name = _indpTail;
pos = (911,73);
}
);
layerId = "200BE2C5-40F6-4CF4-AF4F-A33C0CC0964F";
shapes = (
{
closed = 1;
nodes = (
(632,-530,o),
(743,-455,o),
(800,-346,c),
(804,-346,l),
(821,-410,o),
(853,-463,o),
(933,-517,c),
(965,-484,l),
(886,-438,o),
(832,-359,o),
(836,-274,c),
(841,-244,ls),
(851,-185,o),
(848,-146,o),
(837,-106,c),
(795,-103,l),
(807,-143,o),
(809,-182,o),
(802,-227,cs),
(776,-386,o),
(653,-486,o),
(467,-486,cs),
(340,-486,o),
(218,-445,o),
(87,-359,c),
(86,-358,l),
(79,-409,l),
(183,-472,o),
(306,-530,o),
(466,-530,cs)
);
},
{
ref = "ba-khmer";
}
);
width = 1224;
},
{
anchors = (
{
name = _indpTail;
pos = (1014,73);
}
);
layerId = "11F4534A-B963-4AB5-820F-DAF9A20CD933";
shapes = (
{
closed = 1;
nodes = (
(650,-556,o),
(748,-491,o),
(816,-415,c),
(822,-415,l),
(839,-459,o),
(870,-506,o),
(938,-547,c),
(1060,-440,l),
(979,-397,o),
(928,-315,o),
(938,-256,c),
(944,-220,ls),
(951,-176,o),
(950,-140,o),
(940,-105,c),
(774,-105,l),
(783,-140,o),
(785,-175,o),
(779,-211,cs),
(760,-329,o),
(642,-409,o),
(493,-409,cs),
(364,-409,o),
(240,-365,o),
(110,-271,c),
(104,-271,l),
(76,-438,l),
(181,-504,o),
(304,-556,o),
(472,-556,cs)
);
},
{
ref = "ba-khmer";
}
);
width = 1308;
},
{
anchors = (
{
name = _indpTail;
pos = (1133,73);
}
);
layerId = "D0EC06BF-13F9-4C88-A6F5-B8203AF6C77E";
shapes = (
{
closed = 1;
nodes = (
(565,-565,o),
(691,-527,o),
(794,-435,c),
(803,-435,l),
(813,-474,o),
(832,-513,o),
(867,-551,c),
(1162,-433,l),
(1112,-365,o),
(1086,-259,o),
(1086,-217,c),
(1091,-180,ls),
(1096,-152,o),
(1096,-122,o),
(1089,-92,c),
(702,-92,l),
(706,-117,o),
(708,-140,o),
(704,-166,cs),
(691,-249,o),
(632,-284,o),
(490,-284,cs),
(356,-284,o),
(219,-252,o),
(76,-183,c),
(68,-183,l),
(17,-487,l),
(130,-537,o),
(254,-565,o),
(397,-565,cs)
);
},
{
ref = "ba-khmer";
}
);
width = 1352;
}
);
production = uni17AC;
script = khmer;
subCategory = Other;
unicode = 6060;
}
{
category = Letter;
glyphname = "ly-khmer";
layers = (
{
anchors = (
{
name = _indpTail;
pos = (926,73);
}
);
layerId = "200BE2C5-40F6-4CF4-AF4F-A33C0CC0964F";
shapes = (
{
closed = 1;
nodes = (
(702,-530,o),
(844,-418,o),
(875,-237,cs),
(883,-183,o),
(881,-144,o),
(873,-105,c),
(829,-105,l),
(837,-144,o),
(840,-183,o),
(832,-230,cs),
(805,-388,o),
(679,-486,o),
(483,-486,cs),
(354,-486,o),
(231,-445,o),
(103,-358,c),
(100,-358,l),
(92,-410,l),
(197,-473,o),
(323,-530,o),
(483,-530,cs)
);
},
{
ref = "po-khmer";
}
);
width = 1238;
},
{
anchors = (
{
name = _indpTail;
pos = (1021,73);
}
);
layerId = "11F4534A-B963-4AB5-820F-DAF9A20CD933";
shapes = (
{
closed = 1;
nodes = (
(765,-556,o),
(934,-449,o),
(970,-231,cs),
(977,-189,o),
(977,-147,o),
(971,-105,c),
(803,-105,l),
(809,-141,o),
(811,-178,o),
(805,-215,cs),
(783,-347,o),
(677,-409,o),
(496,-409,cs),
(368,-409,o),
(245,-365,o),
(116,-271,c),
(111,-271,l),
(83,-438,l),
(193,-504,o),
(321,-556,o),
(495,-556,cs)
);
},
{
ref = "po-khmer";
}
);
width = 1316;
},
{
anchors = (
{
name = _indpTail;
pos = (1139,73);
}
);
layerId = "D0EC06BF-13F9-4C88-A6F5-B8203AF6C77E";
shapes = (
{
closed = 1;
nodes = (
(860,-565,o),
(1051,-462,o),
(1094,-203,cs),
(1101,-161,o),
(1100,-130,o),
(1097,-92,c),
(708,-92,l),
(712,-117,o),
(713,-141,o),
(709,-165,cs),
(697,-242,o),
(641,-271,o),
(499,-271,cs),
(363,-271,o),
(226,-244,o),
(83,-183,c),
(74,-183,l),
(24,-487,l),
(152,-537,o),
(304,-565,o),
(494,-565,cs)
);
},
{
ref = "po-khmer";
}
);
width = 1361;
}
);
production = uni17AD;
script = khmer;
subCategory = Other;
unicode = 6061;
}
{
category = Letter;
glyphname = "lyy-khmer";
layers = (
{
anchors = (
{
name = _indpTail;
pos = (926,73);
}
);
layerId = "200BE2C5-40F6-4CF4-AF4F-A33C0CC0964F";
shapes = (
{
closed = 1;
nodes = (
(646,-530,o),
(757,-455,o),
(815,-346,c),
(819,-346,l),
(836,-410,o),
(867,-463,o),
(947,-517,c),
(979,-484,l),
(900,-438,o),
(846,-359,o),
(851,-274,c),
(856,-244,ls),
(865,-185,o),
(863,-146,o),
(852,-106,c),
(810,-103,l),
(821,-143,o),
(824,-182,o),
(816,-227,cs),
(790,-386,o),
(668,-486,o),
(482,-486,cs),
(354,-486,o),
(232,-445,o),
(102,-359,c),
(100,-358,l),
(93,-409,l),
(198,-472,o),
(321,-530,o),
(480,-530,cs)
);
},
{
ref = "po-khmer";
}
);
width = 1238;
},
{
anchors = (
{
name = _indpTail;
pos = (1021,73);
}
);
layerId = "11F4534A-B963-4AB5-820F-DAF9A20CD933";
shapes = (
{
closed = 1;
nodes = (
(657,-556,o),
(755,-491,o),
(823,-415,c),
(829,-415,l),
(846,-459,o),
(877,-506,o),
(944,-547,c),
(1067,-440,l),
(986,-397,o),
(934,-315,o),
(944,-256,c),
(950,-220,ls),
(958,-176,o),
(956,-140,o),
(947,-105,c),
(781,-105,l),
(789,-140,o),
(792,-175,o),
(786,-211,cs),
(766,-329,o),
(648,-409,o),
(499,-409,cs),
(370,-409,o),
(247,-365,o),
(116,-271,c),
(111,-271,l),
(83,-438,l),
(188,-504,o),
(311,-556,o),
(478,-556,cs)
);
},
{
ref = "po-khmer";
}
);
width = 1316;
},
{
anchors = (
{
name = _indpTail;
pos = (1139,73);
}
);
layerId = "D0EC06BF-13F9-4C88-A6F5-B8203AF6C77E";
shapes = (
{
closed = 1;
nodes = (
(571,-565,o),
(698,-527,o),
(800,-435,c),
(809,-435,l),
(820,-474,o),
(838,-513,o),
(873,-551,c),
(1169,-433,l),
(1118,-365,o),
(1092,-259,o),
(1092,-217,c),
(1098,-180,ls),
(1102,-152,o),
(1102,-122,o),
(1095,-92,c),
(709,-92,l),
(712,-117,o),
(715,-140,o),
(710,-166,cs),
(697,-249,o),
(639,-284,o),
(497,-284,cs),
(362,-284,o),
(226,-252,o),
(83,-183,c),
(74,-183,l),
(24,-487,l),
(137,-537,o),
(260,-565,o),
(404,-565,cs)
);
},
{
ref = "po-khmer";
}
);
width = 1361;
}
);
production = uni17AE;
script = khmer;
subCategory = Other;
unicode = 6062;
}
{
category = Letter;
glyphname = "qe-khmer";
layers = (
{
layerId = "200BE2C5-40F6-4CF4-AF4F-A33C0CC0964F";
shapes = (
{
closed = 1;
nodes = (
(140,0,l),
(189,0,l),
(591,374,l),
(594,374,l),
(872,0,l),
(913,0,l),
(1057,867,ls),
(1091,1078,o),
(964,1222,o),
(733,1222,cs),
(538,1222,o),
(416,1126,o),
(366,1046,c),
(360,1046,l),
(415,1374,l),
(368,1374,l),
(289,896,l),
(335,896,l),
(337,906,ls),
(362,1067,o),
(531,1177,o),
(733,1177,cs),
(931,1177,o),
(1041,1051,o),
(1010,867,cs),
(878,71,l),
(875,71,l),
(612,424,l),
(583,424,l),
(202,71,l),
(199,71,l),
(276,543,ls),
(288,611,o),
(258,652,o),
(180,652,cs),
(106,652,l),
(98,608,l),
(172,608,ls),
(222,608,o),
(237,583,o),
(230,540,cs)
);
}
);
width = 1238;
},
{
layerId = "11F4534A-B963-4AB5-820F-DAF9A20CD933";
shapes = (
{
closed = 1;
nodes = (
(122,0,l),
(295,0,l),
(617,284,l),
(623,284,l),
(851,0,l),
(1009,0,l),
(1150,853,ls),
(1187,1075,o),
(1048,1221,o),
(805,1221,cs),
(639,1221,o),
(536,1153,o),
(472,1075,c),
(463,1075,l),
(512,1374,l),
(349,1374,l),
(260,838,l),
(429,838,l),
(430,844,ls),
(447,979,o),
(592,1070,o),
(757,1070,cs),
(930,1070,o),
(1003,972,o),
(979,829,cs),
(875,204,l),
(867,204,l),
(662,459,l),
(620,459,l),
(331,204,l),
(322,204,l),
(373,509,ls),
(387,593,o),
(352,640,o),
(255,640,cs),
(127,640,l),
(105,504,l),
(160,504,ls),
(192,504,o),
(202,487,o),
(197,458,cs)
);
}
);
width = 1316;
},
{
layerId = "D0EC06BF-13F9-4C88-A6F5-B8203AF6C77E";
shapes = (
{
closed = 1;
nodes = (
(48,0,l),
(446,0,l),
(617,186,l),
(626,186,l),
(735,0,l),
(1119,0,l),
(1265,878,ls),
(1302,1099,o),
(1174,1220,o),
(940,1220,cs),
(752,1220,o),
(660,1142,o),
(616,1081,c),
(605,1081,l),
(647,1336,l),
(269,1336,l),
(186,830,l),
(578,830,l),
(579,837,ls),
(596,922,o),
(661,969,o),
(743,969,cs),
(832,969,o),
(876,913,o),
(864,838,cs),
(784,359,l),
(776,359,l),
(695,490,l),
(630,490,l),
(508,359,l),
(498,359,l),
(521,496,ls),
(538,605,o),
(495,664,o),
(366,664,cs),
(68,664,l),
(29,427,l),
(87,427,ls),
(108,427,o),
(117,416,o),
(114,396,cs)
);
}
);
width = 1353;
}
);
production = uni17AF;
script = khmer;
subCategory = Other;
unicode = 6063;
}
{
category = Letter;
glyphname = "qai-khmer";
layers = (
{
background = {
shapes = (
{
closed = 1;
nodes = (
(332,-559,o),
(373,-533,o),
(424,-484,cs),
(513,-397,l),
(480,-397,l),
(534,-477,ls),
(577,-541,o),
(631,-549,o),
(674,-549,cs),
(765,-549,o),
(834,-480,o),
(848,-391,cs),
(1095,1102,ls),
(1110,1190,o),
(1073,1239,o),
(997,1239,cs),
(930,1239,o),
(875,1207,o),
(797,1134,cs),
(699,1045,l),
(632,1134,ls),
(577,1207,o),
(535,1239,o),
(467,1239,cs),
(391,1239,o),
(337,1190,o),
(322,1102,cs),
(140,0,l),
(212,0,ls),
(329,0,o),
(413,68,o),
(432,184,cs),
(453,303,o),
(391,374,o),
(274,374,cs),
(218,374,l),
(244,343,l),
(369,1102,ls),
(379,1163,o),
(413,1197,o),
(460,1197,cs),
(515,1197,o),
(551,1163,o),
(595,1107,cs),
(688,989,l),
(693,989,l),
(824,1107,ls),
(887,1163,o),
(934,1197,o),
(990,1197,cs),
(1037,1197,o),
(1059,1163,o),
(1049,1102,cs),
(844,-132,l),
(865,-109,l),
(167,-192,l),
(131,-407,ls),
(115,-502,o),
(175,-559,o),
(258,-559,cs)
);
},
{
closed = 1;
nodes = (
(206,-515,o),
(168,-468,o),
(179,-405,cs),
(208,-228,l),
(841,-153,l),
(802,-389,ls),
(792,-453,o),
(745,-505,o),
(681,-505,cs),
(635,-505,o),
(602,-495,o),
(573,-453,cs),
(512,-367,l),
(490,-367,l),
(397,-456,ls),
(351,-500,o),
(313,-515,o),
(271,-515,cs)
);
},
{
closed = 1;
nodes = (
(242,333,l),
(269,333,ls),
(359,333,o),
(405,276,o),
(390,184,cs),
(375,96,o),
(310,41,o),
(218,41,cs),
(194,41,l)
);
}
);
};
layerId = "200BE2C5-40F6-4CF4-AF4F-A33C0CC0964F";
shapes = (
{
closed = 1;
nodes = (
(330,-570,o),
(372,-544,o),
(422,-496,cs),
(512,-409,l),
(479,-409,l),
(533,-489,ls),
(575,-552,o),
(629,-560,o),
(672,-560,cs),
(763,-560,o),
(832,-491,o),
(846,-403,cs),
(1095,1102,ls),
(1110,1190,o),
(1073,1239,o),
(997,1239,cs),
(930,1239,o),
(872,1207,o),
(793,1134,cs),
(696,1045,l),
(629,1134,ls),
(573,1207,o),
(535,1239,o),
(467,1239,cs),
(391,1239,o),
(337,1190,o),
(322,1102,cs),
(140,0,l),
(212,0,ls),
(329,0,o),
(413,68,o),
(431,177,cs),
(453,303,o),
(391,374,o),
(274,374,cs),
(218,374,l),
(244,343,l),
(369,1102,ls),
(379,1163,o),
(413,1197,o),
(460,1197,cs),
(515,1197,o),
(552,1163,o),
(596,1107,cs),
(688,989,l),
(693,989,l),
(824,1107,ls),
(888,1163,o),
(934,1197,o),
(990,1197,cs),
(1037,1197,o),
(1059,1163,o),
(1049,1102,cs),
(843,-144,l),
(863,-121,l),
(164,-204,l),
(129,-419,ls),
(113,-514,o),
(173,-570,o),
(257,-570,cs)
);
},
{
closed = 1;
nodes = (
(200,-527,o),
(167,-480,o),
(177,-416,cs),
(206,-242,l),
(839,-166,l),
(800,-400,ls),
(790,-464,o),
(739,-517,o),
(672,-517,cs),
(629,-517,o),
(600,-506,o),
(570,-464,cs),
(511,-378,l),
(489,-378,l),
(395,-468,ls),
(347,-514,o),
(303,-527,o),
(257,-527,cs)
);
},
{
closed = 1;
nodes = (
(242,333,l),
(270,333,ls),
(360,333,o),
(406,276,o),
(391,184,cs),
(376,96,o),
(310,41,o),
(218,41,cs),
(194,41,l)
);
}
);
width = 1238;
},
{
background = {
shapes = (
{
closed = 1;
nodes = (
(367,-547,o),
(427,-529,o),
(496,-469,cs),
(565,-409,l),
(508,-409,l),
(561,-466,ls),
(605,-512,o),
(659,-526,o),
(718,-526,cs),
(843,-526,o),
(933,-458,o),
(952,-339,cs),
(1181,1041,ls),
(1202,1169,o),
(1142,1240,o),
(1022,1240,cs),
(952,1240,o),
(891,1220,o),
(797,1147,cs),
(749,1110,l),
(712,1147,ls),
(642,1219,o),
(589,1240,o),
(519,1240,cs),
(399,1240,o),
(314,1169,o),
(293,1041,cs),
(121,0,l),
(307,0,ls),
(460,0,o),
(562,102,o),
(562,255,cs),
(562,355,o),
(497,413,o),
(383,413,cs),
(329,413,l),
(350,373,l),
(455,1008,ls),
(463,1057,o),
(494,1084,o),
(536,1084,cs),
(576,1084,o),
(608,1059,o),
(653,1008,cs),
(703,952,l),
(742,952,l),
(811,1008,ls),
(873,1059,o),
(913,1084,o),
(952,1084,cs),
(995,1084,o),
(1016,1057,o),
(1008,1008,cs),
(814,-164,l),
(934,-71,l),
(162,-162,l),
(127,-367,ls),
(109,-477,o),
(178,-547,o),
(295,-547,cs)
);
},
{
closed = 1;
nodes = (
(308,-418,o),
(279,-389,o),
(287,-343,cs),
(302,-253,l),
(822,-188,l),
(800,-319,ls),
(792,-367,o),
(753,-397,o),
(706,-397,cs),
(677,-397,o),
(647,-385,o),
(619,-357,cs),
(576,-312,l),
(528,-312,l),
(470,-362,ls),
(424,-402,o),
(386,-418,o),
(352,-418,cs)
);
},
{
closed = 1;
nodes = (
(335,310,l),
(357,310,ls),
(407,310,o),
(436,282,o),
(436,234,cs),
(436,163,o),
(391,111,o),
(327,111,cs),
(302,111,l)
);
}
);
};
layerId = "11F4534A-B963-4AB5-820F-DAF9A20CD933";
shapes = (
{
closed = 1;
nodes = (
(356,-570,o),
(419,-556,o),
(492,-493,cs),
(561,-432,l),
(504,-432,l),
(557,-489,ls),
(608,-543,o),
(649,-559,o),
(705,-559,cs),
(824,-559,o),
(928,-487,o),
(949,-362,cs),
(1181,1041,ls),
(1202,1169,o),
(1152,1240,o),
(1022,1240,cs),
(966,1240,o),
(894,1227,o),
(789,1147,cs),
(741,1110,l),
(705,1147,ls),
(631,1225,o),
(576,1240,o),
(518,1240,cs),
(394,1240,o),
(314,1169,o),
(293,1041,cs),
(121,0,l),
(307,0,ls),
(453,0,o),
(536,72,o),
(557,196,cs),
(578,327,o),
(514,413,o),
(383,413,cs),
(329,413,l),
(347,357,l),
(455,1008,ls),
(463,1057,o),
(496,1084,o),
(536,1084,cs),
(578,1084,o),
(608,1057,o),
(652,1008,cs),
(703,952,l),
(742,952,l),
(811,1008,ls),
(872,1060,o),
(912,1084,o),
(952,1084,cs),
(995,1084,o),
(1016,1057,o),
(1008,1008,cs),
(813,-169,l),
(933,-76,l),
(160,-166,l),
(125,-375,ls),
(104,-501,o),
(172,-570,o),
(298,-570,cs)
);
},
{
closed = 1;
nodes = (
(303,-441,o),
(276,-412,o),
(283,-366,cs),
(301,-259,l),
(820,-196,l),
(796,-342,ls),
(787,-397,o),
(744,-429,o),
(700,-429,cs),
(666,-429,o),
(646,-410,o),
(616,-380,cs),
(572,-335,l),
(524,-335,l),
(466,-386,ls),
(418,-426,o),
(381,-441,o),
(349,-441,cs)
);
},
{
closed = 1;
nodes = (
(335,310,l),
(357,310,ls),
(415,310,o),
(444,273,o),
(434,210,cs),
(423,148,o),
(383,111,o),
(327,111,cs),
(302,111,l)
);
}
);
width = 1316;
},
{
layerId = "D0EC06BF-13F9-4C88-A6F5-B8203AF6C77E";
shapes = (
{
closed = 1;
nodes = (
(385,-570,o),
(468,-546,o),
(530,-487,cs),
(585,-434,l),
(516,-434,l),
(557,-485,ls),
(599,-536,o),
(650,-560,o),
(747,-560,cs),
(923,-560,o),
(1048,-480,o),
(1073,-329,cs),
(1294,1010,ls),
(1318,1158,o),
(1262,1240,o),
(1083,1240,cs),
(1011,1240,o),
(913,1227,o),
(798,1147,cs),
(775,1131,l),
(757,1147,ls),
(677,1220,o),
(589,1240,o),
(504,1240,cs),
(328,1240,o),
(240,1158,o),
(216,1010,cs),
(49,0,l),
(397,0,ls),
(543,0,o),
(626,60,o),
(648,192,cs),
(670,326,o),
(608,414,o),
(482,414,cs),
(476,414,l),
(502,357,l),
(594,913,ls),
(598,938,o),
(614,952,o),
(637,952,cs),
(657,952,o),
(675,941,o),
(698,914,cs),
(723,883,l),
(745,883,l),
(781,914,ls),
(813,942,o),
(836,952,o),
(855,952,cs),
(878,952,o),
(888,938,o),
(884,913,cs),
(709,-143,l),
(768,-90,l),
(84,-136,l),
(51,-340,ls),
(27,-485,o),
(103,-570,o),
(286,-570,cs)
);
},
{
closed = 1;
nodes = (
(424,-383,o),
(405,-360,o),
(412,-320,cs),
(424,-244,l),
(733,-222,l),
(719,-305,ls),
(712,-345,o),
(687,-369,o),
(650,-369,cs),
(634,-369,o),
(613,-365,o),
(602,-355,cs),
(573,-330,l),
(549,-330,l),
(515,-359,ls),
(498,-374,o),
(476,-383,o),
(456,-383,cs)
);
},
{
closed = 1;
nodes = (
(416,279,l),
(426,279,ls),
(475,279,o),
(483,240,o),
(477,207,cs),
(470,159,o),
(439,140,o),
(405,140,cs),
(393,140,l)
);
}
);
width = 1361;
}
);
production = uni17B0;
script = khmer;
subCategory = Other;
unicode = 6064;
}
{
category = Letter;
glyphname = "qoo-khmer";
layers = (
{
layerId = "200BE2C5-40F6-4CF4-AF4F-A33C0CC0964F";
shapes = (
{
closed = 1;
nodes = (
(363,1342,l),
(406,1505,o),
(527,1590,o),
(694,1590,cs),
(869,1590,o),
(984,1531,o),
(1113,1433,c),
(1115,1433,l),
(1125,1490,l),
(1008,1575,o),
(876,1636,o),
(694,1636,cs),
(517,1636,o),
(367,1543,o),
(319,1353,c)
);
},
{
ref = "qu-khmer";
}
);
width = 1174;
},
{
layerId = "11F4534A-B963-4AB5-820F-DAF9A20CD933";
shapes = (
{
closed = 1;
nodes = (
(450,1321,l),
(495,1471,o),
(570,1557,o),
(743,1557,cs),
(885,1557,o),
(1038,1498,o),
(1170,1402,c),
(1176,1402,l),
(1203,1568,l),
(1088,1647,o),
(936,1706,o),
(764,1706,cs),
(520,1706,o),
(361,1588,o),
(301,1355,c)
);
},
{
ref = "qu-khmer";
}
);
width = 1282;
},
{
layerId = "D0EC06BF-13F9-4C88-A6F5-B8203AF6C77E";
shapes = (
{
closed = 1;
nodes = (
(537,1275,l),
(572,1375,o),
(615,1455,o),
(776,1455,cs),
(904,1455,o),
(1105,1405,o),
(1253,1327,c),
(1262,1327,l),
(1317,1660,l),
(1194,1708,o),
(1018,1741,o),
(843,1741,cs),
(512,1741,o),
(319,1621,o),
(239,1347,c)
);
},
{
ref = "qu-khmer";
}
);
width = 1307;
}
);
metricWidth = "qu-khmer";
production = uni17B1;
script = khmer;
subCategory = Other;
unicode = 6065;
}
{
category = Letter;
glyphname = "qooVariant-khmer";
layers = (
{
layerId = "200BE2C5-40F6-4CF4-AF4F-A33C0CC0964F";
shapes = (
{
closed = 1;
nodes = (
(773,-15,o),
(944,99,o),
(975,284,cs),
(1007,477,o),
(880,546,o),
(804,566,c),
(805,572,l),
(899,605,o),
(1033,676,o),
(1057,821,cs),
(1082,976,o),
(995,1077,o),
(822,1077,cs),
(759,1077,o),
(695,1062,o),
(650,1049,c),
(642,1000,l),
(693,1016,o),
(763,1032,o),
(821,1032,cs),
(966,1032,o),
(1030,950,o),
(1011,828,cs),
(987,683,o),
(827,592,o),
(702,592,cs),
(601,592,l),
(594,546,l),
(695,546,ls),
(823,546,o),
(958,464,o),
(929,291,cs),
(902,128,o),
(751,32,o),
(549,32,cs),
(335,32,o),
(211,142,o),
(241,322,cs),
(357,1024,ls),
(389,1222,o),
(537,1339,o),
(752,1339,cs),
(856,1339,o),
(969,1313,o),
(1045,1263,c),
(1054,1317,l),
(964,1358,o),
(874,1385,o),
(752,1385,cs),
(511,1385,o),
(348,1252,o),
(310,1024,cs),
(194,322,ls),
(160,114,o),
(302,-15,o),
(549,-15,cs)
);
}
);
width = 1228;
},
{
layerId = "11F4534A-B963-4AB5-820F-DAF9A20CD933";
shapes = (
{
closed = 1;
nodes = (
(836,-15,o),
(1027,96,o),
(1059,294,cs),
(1086,459,o),
(986,528,o),
(915,553,c),
(917,562,l),
(1000,596,o),
(1107,641,o),
(1133,792,cs),
(1159,950,o),
(1073,1062,o),
(879,1062,cs),
(809,1062,o),
(729,1048,o),
(685,1035,c),
(661,887,l),
(702,901,o),
(761,915,o),
(819,915,cs),
(924,915,o),
(983,871,o),
(970,788,cs),
(955,696,o),
(862,629,o),
(747,629,cs),
(637,629,l),
(613,485,l),
(723,485,ls),
(844,485,o),
(917,412,o),
(900,310,cs),
(881,196,o),
(743,134,o),
(583,134,cs),
(383,134,o),
(308,231,o),
(332,375,cs),
(424,933,ls),
(458,1133,o),
(576,1238,o),
(796,1238,cs),
(891,1238,o),
(1022,1219,o),
(1102,1184,c),
(1129,1345,l),
(1034,1372,o),
(916,1388,o),
(806,1388,cs),
(480,1388,o),
(309,1240,o),
(261,951,cs),
(165,370,ls),
(126,134,o),
(252,-15,o),
(565,-15,cs)
);
}
);
width = 1234;
},
{
layerId = "D0EC06BF-13F9-4C88-A6F5-B8203AF6C77E";
shapes = (
{
closed = 1;
nodes = (
(942,-15,o),
(1137,96,o),
(1167,277,cs),
(1190,418,o),
(1101,506,o),
(984,533,c),
(987,548,l),
(1115,581,o),
(1203,625,o),
(1225,760,cs),
(1252,925,o),
(1162,1027,o),
(915,1027,cs),
(823,1027,o),
(745,1013,o),
(709,1003,c),
(670,769,l),
(693,777,o),
(734,785,o),
(768,785,cs),
(824,785,o),
(858,765,o),
(850,717,cs),
(841,664,o),
(792,640,o),
(725,640,cs),
(659,640,l),
(626,439,l),
(691,439,ls),
(775,439,o),
(808,396,o),
(800,344,cs),
(789,277,o),
(716,250,o),
(634,250,cs),
(514,250,o),
(463,309,o),
(477,397,cs),
(559,890,ls),
(586,1050,o),
(650,1140,o),
(859,1140,cs),
(961,1140,o),
(1096,1119,o),
(1181,1086,c),
(1230,1381,l),
(1117,1401,o),
(968,1412,o),
(857,1412,cs),
(418,1412,o),
(231,1253,o),
(175,920,cs),
(87,381,ls),
(44,127,o),
(193,-15,o),
(590,-15,cs)
);
}
);
width = 1316;
}
);
production = uni17B2;
script = khmer;
subCategory = Other;
unicode = 6066;
}
{
category = Letter;
glyphname = "qau-khmer";
layers = (
{
layerId = "200BE2C5-40F6-4CF4-AF4F-A33C0CC0964F";
shapes = (
{
closed = 1;
nodes = (
(363,1342,l),
(410,1522,o),
(515,1592,o),
(656,1592,cs),
(807,1592,o),
(920,1502,o),
(990,1397,c),
(1032,1397,l),
(1056,1524,o),
(1099,1587,o),
(1193,1660,c),
(1156,1682,l),
(1077,1623,o),
(1027,1541,o),
(1008,1447,c),
(1005,1447,l),
(929,1557,o),
(801,1637,o),
(656,1637,cs),
(501,1637,o),
(367,1553,o),
(319,1353,c)
);
},
{
ref = "qu-khmer";
}
);
width = 1174;
},
{
layerId = "11F4534A-B963-4AB5-820F-DAF9A20CD933";
shapes = (
{
closed = 1;
nodes = (
(447,1321,l),
(496,1467,o),
(586,1545,o),
(716,1545,cs),
(838,1545,o),
(934,1476,o),
(984,1374,c),
(1130,1374,l),
(1153,1511,o),
(1202,1583,o),
(1294,1674,c),
(1165,1743,l),
(1092,1683,o),
(1054,1618,o),
(1025,1540,c),
(1019,1540,l),
(964,1628,o),
(856,1691,o),
(709,1691,cs),
(512,1691,o),
(355,1578,o),
(301,1355,c)
);
},
{
alignment = -1;
ref = "qu-khmer";
}
);
width = 1282;
},
{
layerId = "D0EC06BF-13F9-4C88-A6F5-B8203AF6C77E";
shapes = (
{
closed = 1;
nodes = (
(552,1275,l),
(585,1390,o),
(640,1449,o),
(726,1449,cs),
(829,1449,o),
(923,1365,o),
(943,1313,c),
(1245,1313,l),
(1284,1459,o),
(1337,1553,o),
(1431,1659,c),
(1095,1762,l),
(1054,1702,o),
(1025,1640,o),
(999,1553,c),
(990,1553,l),
(917,1668,o),
(814,1726,o),
(667,1726,cs),
(436,1726,o),
(295,1583,o),
(239,1347,c)
);
},
{
ref = "qu-khmer";
}
);
width = 1307;
}
);
metricWidth = "qu-khmer";
script = khmer;
subCategory = Other;
unicode = 6067;
}
{
category = Letter;
glyphname = "aaSign-khmer";
layers = (
{
layerId = "200BE2C5-40F6-4CF4-AF4F-A33C0CC0964F";
shapes = (
{
closed = 1;
nodes = (
(215,0,l),
(261,0,l),
(426,994,ls),
(453,1156,o),
(359,1249,o),
(207,1249,cs),
(133,1249,o),
(49,1225,o),
(-33,1173,c),
(-41,1123,l),
(-40,1123,l),
(49,1176,o),
(132,1202,o),
(207,1202,cs),
(332,1202,o),
(401,1124,o),
(379,994,cs)
);
}
);
width = 586;
},
{
layerId = "11F4534A-B963-4AB5-820F-DAF9A20CD933";
shapes = (
{
closed = 1;
nodes = (
(152,0,l),
(319,0,l),
(479,964,ls),
(510,1153,o),
(395,1249,o),
(219,1249,cs),
(131,1249,o),
(57,1225,o),
(-8,1190,c),
(-33,1038,l),
(-28,1038,l),
(42,1073,o),
(116,1095,o),
(178,1095,cs),
(279,1095,o),
(324,1037,o),
(306,930,cs)
);
}
);
width = 626;
},
{
layerId = "D0EC06BF-13F9-4C88-A6F5-B8203AF6C77E";
shapes = (
{
closed = 1;
nodes = (
(50,0,l),
(445,0,l),
(586,875,ls),
(624,1110,o),
(523,1249,o),
(247,1249,cs),
(130,1249,o),
(15,1223,o),
(-44,1198,c),
(-96,882,l),
(-87,882,l),
(-50,899,o),
(7,915,o),
(60,915,cs),
(154,915,o),
(191,866,o),
(177,782,cs)
);
}
);
width = 675;
}
);
script = khmer;
subCategory = Other;
unicode = 6070;
}
{
category = Mark;
glyphname = "iMark-khmer";
layers = (
{
anchors = (
{
name = _topright;
pos = (900,1234);
}
);
layerId = "200BE2C5-40F6-4CF4-AF4F-A33C0CC0964F";
shapes = (
{
closed = 1;
nodes = (
(201,1467,l),
(939,1467,l),
(946,1511,l),
(904,1690,o),
(779,1828,o),
(569,1828,cs),
(387,1828,o),
(244,1724,o),
(208,1511,cs)
);
},
{
closed = 1;
nodes = (
(253,1511,l),
(284,1692,o),
(408,1784,o),
(569,1784,cs),
(758,1784,o),
(864,1658,o),
(898,1511,c)
);
}
);
width = 839;
},
{
anchors = (
{
name = _topright;
pos = (992,1234);
}
);
layerId = "11F4534A-B963-4AB5-820F-DAF9A20CD933";
shapes = (
{
closed = 1;
nodes = (
(201,1467,l),
(1031,1467,l),
(1048,1575,l),
(962,1768,o),
(839,1887,o),
(624,1887,cs),
(418,1887,o),
(253,1778,o),
(217,1566,cs)
);
},
{
closed = 1;
nodes = (
(387,1577,l),
(406,1686,o),
(495,1749,o),
(617,1749,cs),
(748,1749,o),
(831,1676,o),
(867,1577,c)
);
}
);
width = 931;
},
{
anchors = (
{
name = _topright;
pos = (1205,1234);
}
);
layerId = "D0EC06BF-13F9-4C88-A6F5-B8203AF6C77E";
shapes = (
{
closed = 1;
nodes = (
(189,1397,l),
(1232,1397,l),
(1248,1496,l),
(1197,1748,o),
(998,1909,o),
(730,1909,cs),
(492,1909,o),
(252,1782,o),
(205,1496,cs)
);
},
{
closed = 1;
nodes = (
(562,1547,l),
(575,1618,o),
(637,1666,o),
(719,1666,cs),
(808,1666,o),
(859,1609,o),
(876,1547,c)
);
}
);
width = 1143;
}
);
metricRight = "=|";
script = khmer;
subCategory = Nonspacing;
unicode = 6071;
}
{
category = Mark;
glyphname = "iiMark-khmer";
layers = (
{
anchors = (
{
name = _topright;
pos = (900,1234);
}
);
layerId = "200BE2C5-40F6-4CF4-AF4F-A33C0CC0964F";
shapes = (
{
closed = 1;
nodes = (
(201,1467,l),
(939,1467,l),
(1012,1909,l),
(968,1909,l),
(914,1583,l),
(908,1583,l),
(858,1733,o),
(743,1828,o),
(569,1828,cs),
(388,1828,o),
(244,1724,o),
(208,1511,cs)
);
},
{
closed = 1;
nodes = (
(253,1511,l),
(284,1692,o),
(410,1784,o),
(569,1784,cs),
(757,1784,o),
(859,1658,o),
(891,1511,c)
);
}
);
width = 839;
},
{
anchors = (
{
name = _topright;
pos = (992,1234);
}
);
layerId = "11F4534A-B963-4AB5-820F-DAF9A20CD933";
shapes = (
{
closed = 1;
nodes = (
(201,1467,l),
(1031,1467,l),
(1111,1956,l),
(954,1956,l),
(920,1748,l),
(911,1748,l),
(875,1802,o),
(803,1887,o),
(625,1887,cs),
(425,1887,o),
(253,1778,o),
(217,1566,cs)
);
},
{
closed = 1;
nodes = (
(387,1577,l),
(406,1686,o),
(498,1749,o),
(618,1749,cs),
(743,1749,o),
(831,1682,o),
(867,1577,c)
);
}
);
width = 931;
},
{
anchors = (
{
name = _topright;
pos = (1205,1234);
}
);
layerId = "D0EC06BF-13F9-4C88-A6F5-B8203AF6C77E";
shapes = (
{
closed = 1;
nodes = (
(189,1397,l),
(1232,1397,l),
(1324,1956,l),
(1002,1956,l),
(975,1794,l),
(961,1794,l),
(912,1853,o),
(833,1909,o),
(685,1909,cs),
(463,1909,o),
(252,1782,o),
(205,1496,cs)
);
},
{
closed = 1;
nodes = (
(562,1547,l),
(574,1618,o),
(634,1666,o),
(715,1666,cs),
(803,1666,o),
(857,1610,o),
(876,1547,c)
);
}
);
width = 1143;
}
);
metricRight = "=|";
script = khmer;
subCategory = Nonspacing;
unicode = 6072;
}
{
category = Mark;
glyphname = "yMark-khmer";
layers = (
{
anchors = (
{
name = _topright;
pos = (900,1234);
}
);
layerId = "200BE2C5-40F6-4CF4-AF4F-A33C0CC0964F";
shapes = (
{
closed = 1;
nodes = (
(201,1467,l),
(939,1467,l),
(946,1511,l),
(934,1542,o),
(909,1586,o),
(891,1612,c),
(892,1604,l),
(985,1604,o),
(1076,1672,o),
(1093,1766,cs),
(1109,1854,o),
(1055,1933,o),
(957,1933,cs),
(855,1933,o),
(773,1847,o),
(764,1766,cs),
(762,1745,o),
(764,1724,o),
(782,1692,c),
(801,1708,l),
(753,1771,o),
(670,1828,o),
(553,1828,cs),
(395,1828,o),
(244,1724,o),
(208,1511,cs)
);
},
{
closed = 1;
nodes = (
(253,1511,l),
(284,1692,o),
(416,1784,o),
(553,1784,cs),
(751,1784,o),
(859,1594,o),
(902,1511,c)
);
},
{
closed = 1;
nodes = (
(841,1643,o),
(797,1698,o),
(808,1767,cs),
(819,1835,o),
(878,1890,o),
(949,1890,cs),
(1018,1890,o),
(1061,1837,o),
(1049,1767,cs),
(1036,1692,o),
(970,1643,o),
(908,1643,cs)
);
}
);
width = 943;
},
{
anchors = (
{
name = _topright;
pos = (1011,1234);
}
);
layerId = "11F4534A-B963-4AB5-820F-DAF9A20CD933";
shapes = (
{
closed = 1;
nodes = (
(201,1467,l),
(1030,1467,l),
(1040,1532,l),
(1029,1565,o),
(1007,1607,o),
(991,1634,c),
(930,1611,l),
(1045,1611,o),
(1142,1689,o),
(1160,1796,cs),
(1177,1902,o),
(1107,1985,o),
(998,1985,cs),
(890,1985,o),
(791,1904,o),
(773,1797,c),
(786,1774,o),
(802,1748,o),
(821,1727,c),
(858,1778,l),
(812,1841,o),
(737,1887,o),
(611,1887,cs),
(417,1887,o),
(250,1768,o),
(217,1566,cs)
);
},
{
closed = 1;
nodes = (
(386,1577,l),
(404,1686,o),
(488,1749,o),
(604,1749,cs),
(730,1749,o),
(820,1682,o),
(858,1577,c)
);
},
{
closed = 1;
nodes = (
(909,1716,o),
(880,1751,o),
(888,1796,cs),
(895,1840,o),
(935,1876,o),
(979,1876,cs),
(1023,1876,o),
(1052,1840,o),
(1044,1796,cs),
(1037,1751,o),
(996,1716,o),
(952,1716,cs)
);
}
);
width = 1005;
},
{
anchors = (
{
name = _topright;
pos = (1204,1234);
}
);
layerId = "D0EC06BF-13F9-4C88-A6F5-B8203AF6C77E";
shapes = (
{
closed = 1;
nodes = (
(189,1397,l),
(1232,1397,l),
(1249,1497,l),
(1232,1519,o),
(1206,1543,o),
(1185,1560,c),
(1042,1492,l),
(1196,1492,o),
(1318,1594,o),
(1342,1738,cs),
(1366,1886,o),
(1273,1985,o),
(1123,1985,cs),
(973,1985,o),
(845,1885,o),
(821,1738,c),
(860,1711,o),
(898,1681,o),
(936,1657,c),
(951,1747,l),
(908,1851,o),
(792,1909,o),
(656,1909,cs),
(453,1909,o),
(252,1782,o),
(205,1496,cs)
);
},
{
closed = 1;
nodes = (
(562,1547,l),
(575,1618,o),
(634,1666,o),
(716,1666,cs),
(803,1666,o),
(858,1612,o),
(876,1547,c)
);
},
{
closed = 1;
nodes = (
(1037,1674,o),
(1014,1700,o),
(1020,1738,cs),
(1027,1777,o),
(1058,1803,o),
(1093,1803,cs),
(1128,1803,o),
(1150,1776,o),
(1144,1738,cs),
(1137,1700,o),
(1107,1674,o),
(1072,1674,cs)
);
}
);
width = 1197;
}
);
metricRight = "=|";
script = khmer;
subCategory = Nonspacing;
unicode = 6073;
}
{
category = Mark;
glyphname = "yyMark-khmer";
layers = (
{
anchors = (
{
name = _topright;
pos = (900,1234);
}
);
layerId = "200BE2C5-40F6-4CF4-AF4F-A33C0CC0964F";
shapes = (
{
closed = 1;
nodes = (
(939,1467,l),
(1012,1909,l),
(968,1909,l),
(914,1583,l),
(908,1583,l),
(860,1719,o),
(749,1828,o),
(569,1828,cs),
(393,1828,o),
(244,1724,o),
(208,1511,cs),
(201,1467,l)
);
},
{
closed = 1;
nodes = (
(284,1692,o),
(410,1784,o),
(569,1784,cs),
(757,1784,o),
(859,1658,o),
(891,1511,c),
(253,1511,l)
);
},
{
closed = 1;
nodes = (
(761,1758,l),
(790,1933,l),
(747,1933,l),
(718,1758,l)
);
}
);
width = 839;
},
{
anchors = (
{
name = _topright;
pos = (992,1234);
}
);
layerId = "11F4534A-B963-4AB5-820F-DAF9A20CD933";
shapes = (
{
closed = 1;
nodes = (
(1031,1467,l),
(1111,1956,l),
(959,1956,l),
(923,1740,l),
(914,1740,l),
(876,1795,o),
(797,1881,o),
(616,1881,cs),
(414,1881,o),
(251,1774,o),
(217,1566,cs),
(201,1467,l)
);
},
{
closed = 1;
nodes = (
(403,1681,o),
(482,1749,o),
(607,1749,cs),
(732,1749,o),
(828,1682,o),
(867,1577,c),
(387,1577,l)
);
},
{
closed = 1;
nodes = (
(792,1786,l),
(826,1985,l),
(673,1985,l),
(639,1786,l)
);
}
);
width = 931;
},
{
anchors = (
{
name = _topright;
pos = (1205,1234);
}
);
layerId = "D0EC06BF-13F9-4C88-A6F5-B8203AF6C77E";
shapes = (
{
closed = 1;
nodes = (
(1232,1397,l),
(1324,1957,l),
(1062,1957,l),
(1024,1727,l),
(1011,1727,l),
(945,1813,o),
(808,1893,o),
(635,1893,cs),
(421,1893,o),
(249,1770,o),
(205,1496,cs),
(189,1397,l)
);
},
{
closed = 1;
nodes = (
(575,1619,o),
(634,1667,o),
(715,1667,cs),
(803,1667,o),
(857,1611,o),
(876,1547,c),
(562,1547,l)
);
},
{
closed = 1;
nodes = (
(919,1755,l),
(958,1985,l),
(699,1985,l),
(661,1755,l)
);
}
);
width = 1143;
}
);
metricRight = "=|";
script = khmer;
subCategory = Nonspacing;
unicode = 6074;
}
{
category = Mark;
glyphname = "uMark-khmer";
layers = (
{
anchors = (
{
name = _bottomright;
pos = (129,0);
}
);
layerId = "200BE2C5-40F6-4CF4-AF4F-A33C0CC0964F";
shapes = (
{
closed = 1;
nodes = (
(-9,-559,l),
(36,-559,l),
(94,-212,ls),
(105,-141,o),
(78,-105,o),
(13,-105,cs),
(-60,-105,l),
(-67,-147,l),
(1,-147,ls),
(40,-147,o),
(56,-169,o),
(49,-212,cs)
);
}
);
width = 272;
},
{
anchors = (
{
name = _bottomright;
pos = (220,0);
}
);
layerId = "11F4534A-B963-4AB5-820F-DAF9A20CD933";
shapes = (
{
closed = 1;
nodes = (
(-28,-559,l),
(127,-559,l),
(176,-263,ls),
(195,-148,o),
(165,-105,o),
(65,-105,cs),
(-60,-105,l),
(-80,-226,l),
(-12,-226,ls),
(16,-226,o),
(25,-238,o),
(20,-269,cs)
);
}
);
width = 362;
},
{
anchors = (
{
name = _bottomright;
pos = (432,0);
}
);
layerId = "D0EC06BF-13F9-4C88-A6F5-B8203AF6C77E";
shapes = (
{
closed = 1;
nodes = (
(-33,-559,l),
(340,-559,l),
(390,-258,ls),
(411,-130,o),
(367,-93,o),
(238,-93,cs),
(-57,-93,l),
(-86,-262,l),
(-12,-262,ls),
(12,-262,o),
(15,-271,o),
(12,-290,cs)
);
}
);
width = 575;
}
);
metricRight = "=|";
script = khmer;
subCategory = Nonspacing;
unicode = 6075;
}
{
category = Mark;
glyphname = "uuMark-khmer";
layers = (
{
anchors = (
{
name = _bottomright;
pos = (435,0);
}
);
layerId = "200BE2C5-40F6-4CF4-AF4F-A33C0CC0964F";
shapes = (
{
closed = 1;
nodes = (
(264,-570,o),
(352,-501,o),
(369,-394,cs),
(417,-105,l),
(372,-105,l),
(324,-394,ls),
(311,-474,o),
(240,-525,o),
(147,-525,cs),
(61,-525,o),
(16,-467,o),
(27,-394,cs),
(75,-105,l),
(-60,-105,l),
(-67,-147,l),
(23,-147,l),
(-18,-394,ls),
(-34,-493,o),
(31,-570,o),
(147,-570,cs)
);
}
);
width = 577;
},
{
anchors = (
{
name = _bottomright;
pos = (562,0);
}
);
background = {
anchors = (
{
name = _bottomright;
pos = (562,0);
}
);
shapes = (
{
closed = 1;
nodes = (
(463,-570,o),
(562,-490,o),
(562,-372,cs),
(562,-105,l),
(407,-105,l),
(407,-363,ls),
(407,-412,o),
(372,-445,o),
(319,-445,cs),
(266,-445,o),
(230,-412,o),
(230,-363,cs),
(230,-105,l),
(1,-105,l),
(1,-218,l),
(76,-218,l),
(76,-372,ls),
(76,-490,o),
(175,-570,o),
(319,-570,cs)
);
}
);
};
layerId = "11F4534A-B963-4AB5-820F-DAF9A20CD933";
shapes = (
{
closed = 1;
nodes = (
(358,-570,o),
(481,-490,o),
(501,-365,cs),
(544,-105,l),
(389,-105,l),
(348,-356,ls),
(338,-412,o),
(288,-445,o),
(220,-445,cs),
(151,-445,o),
(111,-412,o),
(121,-356,cs),
(162,-105,l),
(-60,-105,l),
(-79,-218,l),
(-12,-218,l),
(-36,-365,ls),
(-56,-490,o),
(39,-570,o),
(199,-570,cs)
);
}
);
width = 704;
},
{
anchors = (
{
name = _bottomright;
pos = (771,0);
}
);
layerId = "D0EC06BF-13F9-4C88-A6F5-B8203AF6C77E";
shapes = (
{
closed = 1;
nodes = (
(541,-573,o),
(691,-487,o),
(718,-322,cs),
(755,-93,l),
(434,-93,l),
(396,-319,ls),
(388,-365,o),
(354,-391,o),
(301,-391,cs),
(249,-391,o),
(222,-365,o),
(230,-319,cs),
(268,-93,l),
(-57,-93,l),
(-85,-259,l),
(-17,-259,l),
(-30,-338,ls),
(-55,-494,o),
(35,-573,o),
(282,-573,cs)
);
}
);
width = 914;
},
{
anchors = (
{
name = _bottomright;
pos = (495,0);
}
);
associatedMasterId = "11F4534A-B963-4AB5-820F-DAF9A20CD933";
attr = {
axisRules = (
{
min = 500;
}
);
};
background = {
anchors = (
{
name = _bottomright;
pos = (495,0);
}
);
shapes = (
{
closed = 1;
nodes = (
(396,-570,o),
(495,-490,o),
(495,-372,cs),
(495,-105,l),
(340,-105,l),
(340,-363,ls),
(340,-412,o),
(305,-445,o),
(252,-445,cs),
(199,-445,o),
(163,-412,o),
(163,-363,cs),
(163,-105,l),
(-66,-105,l),
(-66,-218,l),
(9,-218,l),
(9,-372,ls),
(9,-490,o),
(108,-570,o),
(252,-570,cs)
);
}
);
};
color = 3;
layerId = "B84A428C-BAFD-455E-A2E7-588000FFAD8E";
name = "21 Oct 22, 08:58";
shapes = (
{
closed = 1;
nodes = (
(291,-570,o),
(413,-490,o),
(434,-365,cs),
(477,-105,l),
(322,-105,l),
(281,-356,ls),
(272,-412,o),
(221,-445,o),
(153,-445,cs),
(84,-445,o),
(45,-412,o),
(54,-356,cs),
(95,-105,l),
(-60,-105,l),
(-103,-365,ls),
(-124,-490,o),
(-28,-570,o),
(132,-570,cs)
);
}
);
width = 637;
},
{
anchors = (
{
name = _bottomright;
pos = (703,0);
}
);
associatedMasterId = "D0EC06BF-13F9-4C88-A6F5-B8203AF6C77E";
attr = {
axisRules = (
{
min = 500;
}
);
};
color = 3;
layerId = "3A9E4F0A-9DB1-489D-8EE1-B78B024F2D86";
name = "21 Oct 22, 09:07";
shapes = (
{
closed = 1;
nodes = (
(473,-573,o),
(623,-487,o),
(650,-322,cs),
(687,-93,l),
(366,-93,l),
(328,-319,ls),
(320,-365,o),
(286,-391,o),
(233,-391,cs),
(181,-391,o),
(154,-365,o),
(162,-319,cs),
(200,-93,l),
(-58,-93,l),
(-98,-338,ls),
(-123,-494,o),
(-33,-573,o),
(214,-573,cs)
);
}
);
width = 846;
},
{
anchors = (
{
name = _bottomright;
pos = (345,0);
}
);
associatedMasterId = "200BE2C5-40F6-4CF4-AF4F-A33C0CC0964F";
attr = {
axisRules = (
{
min = 500;
}
);
};
color = 3;
layerId = "A4B06D5A-2426-491D-B42F-FF128DA49F0A";
name = "21 Oct 22, 11:16";
shapes = (
{
closed = 1;
nodes = (
(174,-570,o),
(261,-501,o),
(279,-394,cs),
(327,-105,l),
(282,-105,l),
(234,-394,ls),
(221,-474,o),
(150,-525,o),
(57,-525,cs),
(-29,-525,o),
(-75,-467,o),
(-63,-394,cs),
(-15,-105,l),
(-60,-105,l),
(-108,-394,ls),
(-124,-493,o),
(-59,-570,o),
(57,-570,cs)
);
}
);
width = 487;
}
);
metricRight = "=|";
script = khmer;
subCategory = Nonspacing;
unicode = 6076;
}
{
category = Mark;
glyphname = "uaMark-khmer";
layers = (
{
anchors = (
{
name = _bottomright;
pos = (509,0);
}
);
layerId = "200BE2C5-40F6-4CF4-AF4F-A33C0CC0964F";
shapes = (
{
closed = 1;
nodes = (
(3,-559,l),
(220,-370,l),
(374,-559,l),
(416,-559,l),
(491,-105,l),
(446,-105,l),
(383,-490,l),
(379,-490,l),
(236,-316,l),
(214,-316,l),
(16,-490,l),
(12,-490,l),
(75,-105,l),
(-60,-105,l),
(-67,-147,l),
(23,-147,l),
(-45,-559,l)
);
}
);
width = 651;
},
{
anchors = (
{
name = _bottomright;
pos = (600,0);
}
);
layerId = "11F4534A-B963-4AB5-820F-DAF9A20CD933";
shapes = (
{
closed = 1;
nodes = (
(85,-559,l),
(248,-432,l),
(369,-559,l),
(508,-559,l),
(583,-105,l),
(429,-105,l),
(381,-401,l),
(374,-401,l),
(275,-301,l),
(247,-301,l),
(118,-401,l),
(111,-401,l),
(160,-105,l),
(-60,-105,l),
(-79,-218,l),
(-12,-218,l),
(-68,-559,l)
);
}
);
width = 743;
},
{
anchors = (
{
name = _bottomright;
pos = (774,0);
}
);
background = {
anchors = (
{
name = _bottomright;
pos = (774,0);
}
);
shapes = (
{
closed = 1;
nodes = (
(168,-559,l),
(299,-447,l),
(392,-559,l),
(682,-559,l),
(759,-93,l),
(439,-93,l),
(396,-350,l),
(390,-350,l),
(325,-276,l),
(309,-276,l),
(224,-350,l),
(219,-350,l),
(261,-93,l),
(10,-93,l),
(-67,-559,l)
);
}
);
};
layerId = "D0EC06BF-13F9-4C88-A6F5-B8203AF6C77E";
shapes = (
{
closed = 1;
nodes = (
(168,-559,l),
(299,-447,l),
(392,-559,l),
(682,-559,l),
(759,-93,l),
(439,-93,l),
(396,-350,l),
(390,-350,l),
(325,-276,l),
(309,-276,l),
(224,-350,l),
(219,-350,l),
(261,-93,l),
(-57,-93,l),
(-85,-259,l),
(-18,-259,l),
(-67,-559,l)
);
}
);
width = 917;
},
{
anchors = (
{
name = _bottomright;
pos = (533,0);
}
);
associatedMasterId = "11F4534A-B963-4AB5-820F-DAF9A20CD933";
attr = {
axisRules = (
{
min = 500;
}
);
};
color = 3;
layerId = "5A98767F-6735-4A54-864D-A9CD7FDBC6C2";
name = "21 Oct 22, 09:01";
shapes = (
{
closed = 1;
nodes = (
(18,-559,l),
(181,-432,l),
(302,-559,l),
(441,-559,l),
(516,-105,l),
(362,-105,l),
(314,-401,l),
(307,-401,l),
(208,-301,l),
(180,-301,l),
(51,-401,l),
(44,-401,l),
(93,-105,l),
(-60,-105,l),
(-135,-559,l)
);
}
);
width = 676;
},
{
anchors = (
{
name = _bottomright;
pos = (725,0);
}
);
associatedMasterId = "D0EC06BF-13F9-4C88-A6F5-B8203AF6C77E";
attr = {
axisRules = (
{
min = 500;
}
);
};
background = {
shapes = (
{
closed = 1;
nodes = (
(119,-559,l),
(250,-447,l),
(343,-559,l),
(633,-559,l),
(710,-93,l),
(390,-93,l),
(347,-350,l),
(341,-350,l),
(276,-276,l),
(260,-276,l),
(175,-350,l),
(170,-350,l),
(212,-93,l),
(-106,-93,l),
(-134,-259,l),
(-67,-259,l),
(-116,-559,l)
);
}
);
};
color = 3;
layerId = "FEB2D6DF-6D7E-42DB-9583-5D78F1A25984";
name = "21 Oct 22, 09:07";
shapes = (
{
closed = 1;
nodes = (
(119,-559,l),
(250,-447,l),
(343,-559,l),
(633,-559,l),
(710,-93,l),
(390,-93,l),
(347,-350,l),
(341,-350,l),
(276,-276,l),
(260,-276,l),
(175,-350,l),
(170,-350,l),
(212,-93,l),
(-58,-93,l),
(-135,-559,l)
);
}
);
width = 868;
},
{
anchors = (
{
name = _bottomright;
pos = (419,0);
}
);
associatedMasterId = "200BE2C5-40F6-4CF4-AF4F-A33C0CC0964F";
attr = {
axisRules = (
{
min = 500;
}
);
};
color = 3;
layerId = "12AB9696-CEA0-48A5-9BE7-FC533462E501";
name = "[500<wg]";
shapes = (
{
closed = 1;
nodes = (
(-87,-559,l),
(130,-370,l),
(284,-559,l),
(326,-559,l),
(401,-105,l),
(356,-105,l),
(293,-490,l),
(289,-490,l),
(146,-316,l),
(124,-316,l),
(-74,-490,l),
(-78,-490,l),
(-15,-105,l),
(-60,-105,l),
(-135,-559,l)
);
}
);
width = 561;
}
);
metricRight = "=|";
script = khmer;
subCategory = Nonspacing;
unicode = 6077;
}
{
category = Letter;
glyphname = "yaSign-khmer";
layers = (
{
background = {
shapes = (
{
closed = 1;
nodes = (
(4,-573,o),
(122,-476,o),
(146,-335,cs),
(423,1341,ls),
(442,1455,o),
(403,1511,o),
(299,1511,c),
(292,1467,l),
(365,1467,o),
(391,1425,o),
(377,1341,cs),
(99,-335,ls),
(80,-449,o),
(-19,-528,o),
(-181,-528,cs),
(-335,-528,o),
(-400,-449,o),
(-381,-335,cs),
(-343,-105,l),
(-389,-105,l),
(-428,-335,ls),
(-451,-476,o),
(-367,-573,o),
(-181,-573,cs)
);
},
{
closed = 1;
nodes = (
(-362,1692,o),
(-246,1784,o),
(-78,1784,cs),
(100,1784,o),
(212,1658,o),
(244,1511,c),
(-394,1511,l)
);
},
{
closed = 1;
nodes = (
(292,1467,l),
(365,1909,l),
(322,1909,l),
(268,1583,l),
(262,1583,l),
(214,1719,o),
(97,1828,o),
(-78,1828,cs),
(-259,1828,o),
(-403,1724,o),
(-439,1511,cs),
(-446,1467,l)
);
},
{
closed = 1;
nodes = (
(114,1758,l),
(143,1933,l),
(100,1933,l),
(71,1758,l)
);
}
);
};
layerId = "200BE2C5-40F6-4CF4-AF4F-A33C0CC0964F";
shapes = (
{
closed = 1;
nodes = (
(5,-573,o),
(123,-476,o),
(146,-335,cs),
(421,1326,ls),
(442,1455,o),
(402,1501,o),
(307,1511,c),
(285,1467,l),
(365,1467,o),
(391,1425,o),
(375,1326,cs),
(100,-335,ls),
(81,-449,o),
(-15,-528,o),
(-173,-528,cs),
(-332,-528,o),
(-399,-449,o),
(-381,-335,cs),
(-343,-105,l),
(-389,-105,l),
(-427,-335,ls),
(-450,-476,o),
(-366,-573,o),
(-180,-573,cs)
);
},
{
closed = 1;
nodes = (
(-319,1692,o),
(-203,1784,o),
(-48,1784,cs),
(136,1784,o),
(242,1658,o),
(274,1511,c),
(-349,1511,l)
);
},
{
closed = 1;
nodes = (
(322,1467,l),
(394,1909,l),
(351,1909,l),
(297,1583,l),
(291,1583,l),
(244,1719,o),
(135,1828,o),
(-41,1828,cs),
(-212,1828,o),
(-359,1724,o),
(-394,1511,cs),
(-402,1467,l)
);
},
{
closed = 1;
nodes = (
(144,1758,l),
(173,1933,l),
(130,1933,l),
(100,1758,l)
);
}
);
width = 527;
},
{
layerId = "11F4534A-B963-4AB5-820F-DAF9A20CD933";
shapes = (
{
closed = 1;
nodes = (
(68,-573,o),
(251,-441,o),
(284,-240,cs),
(546,1347,ls),
(573,1504,o),
(505,1572,o),
(395,1607,c),
(293,1467,l),
(360,1467,o),
(391,1417,o),
(379,1343,cs),
(118,-231,ls),
(99,-349,o),
(-17,-423,o),
(-154,-423,cs),
(-290,-423,o),
(-364,-349,o),
(-345,-231,cs),
(-324,-105,l),
(-491,-105,l),
(-514,-240,ls),
(-546,-441,o),
(-407,-573,o),
(-170,-573,cs)
);
},
{
closed = 1;
nodes = (
(-228,1686,o),
(-143,1749,o),
(-28,1749,cs),
(92,1749,o),
(181,1682,o),
(218,1577,c),
(-247,1577,l)
);
},
{
closed = 1;
nodes = (
(382,1467,l),
(463,1956,l),
(310,1956,l),
(274,1740,l),
(266,1740,l),
(229,1795,o),
(156,1881,o),
(-20,1881,cs),
(-215,1881,o),
(-382,1775,o),
(-417,1566,cs),
(-433,1467,l)
);
},
{
closed = 1;
nodes = (
(143,1786,l),
(177,1985,l),
(24,1985,l),
(-9,1786,l)
);
}
);
width = 630;
},
{
layerId = "D0EC06BF-13F9-4C88-A6F5-B8203AF6C77E";
shapes = (
{
closed = 1;
nodes = (
(164,-570,o),
(391,-423,o),
(431,-175,cs),
(671,1270,ls),
(711,1513,o),
(567,1636,o),
(418,1658,c),
(194,1396,l),
(258,1396,o),
(289,1347,o),
(278,1279,cs),
(39,-162,ls),
(26,-242,o),
(-36,-288,o),
(-132,-288,cs),
(-226,-288,o),
(-274,-242,o),
(-260,-162,cs),
(-249,-92,l),
(-643,-92,l),
(-657,-175,ls),
(-698,-423,o),
(-520,-570,o),
(-178,-570,cs)
);
},
{
closed = 1;
nodes = (
(-98,1618,o),
(-47,1665,o),
(33,1665,cs),
(121,1665,o),
(185,1610,o),
(205,1547,c),
(-109,1547,l)
);
},
{
closed = 1;
nodes = (
(560,1395,l),
(653,1957,l),
(391,1957,l),
(353,1727,l),
(340,1727,l),
(273,1811,o),
(128,1891,o),
(-45,1891,cs),
(-260,1891,o),
(-421,1768,o),
(-466,1496,cs),
(-482,1395,l)
);
},
{
closed = 1;
nodes = (
(248,1755,l),
(287,1985,l),
(31,1985,l),
(-8,1755,l)
);
}
);
width = 694;
}
);
production = uni17BF;
script = khmer;
subCategory = Other;
unicode = 6079;
}
{
category = Letter;
glyphname = "ieSign-khmer";
layers = (
{
layerId = "200BE2C5-40F6-4CF4-AF4F-A33C0CC0964F";
shapes = (
{
closed = 1;
nodes = (
(5,-573,o),
(123,-476,o),
(146,-335,cs),
(449,1494,ls),
(474,1648,o),
(392,1770,o),
(215,1770,cs),
(70,1770,o),
(-16,1682,o),
(-52,1630,c),
(-58,1630,l),
(-12,1909,l),
(-57,1909,l),
(-130,1467,l),
(-85,1467,l),
(-84,1475,ls),
(-59,1623,o),
(63,1724,o),
(215,1724,cs),
(362,1724,o),
(424,1623,o),
(402,1494,cs),
(100,-335,ls),
(81,-449,o),
(-18,-528,o),
(-180,-528,cs),
(-334,-528,o),
(-399,-449,o),
(-381,-335,cs),
(-342,-105,l),
(-389,-105,l),
(-427,-335,ls),
(-450,-476,o),
(-366,-573,o),
(-180,-573,cs)
);
}
);
width = 527;
},
{
layerId = "11F4534A-B963-4AB5-820F-DAF9A20CD933";
shapes = (
{
closed = 1;
nodes = (
(-5,-573,o),
(178,-441,o),
(211,-240,cs),
(498,1490,ls),
(528,1676,o),
(404,1803,o),
(202,1803,cs),
(62,1803,o),
(-35,1741,o),
(-87,1672,c),
(-95,1672,l),
(-48,1956,l),
(-211,1956,l),
(-292,1467,l),
(-123,1467,l),
(-122,1473,ls),
(-104,1581,o),
(6,1655,o),
(142,1655,cs),
(280,1655,o),
(345,1579,o),
(327,1467,cs),
(45,-231,ls),
(26,-349,o),
(-91,-423,o),
(-228,-423,cs),
(-365,-423,o),
(-437,-349,o),
(-418,-231,cs),
(-397,-105,l),
(-564,-105,l),
(-586,-240,ls),
(-619,-441,o),
(-480,-573,o),
(-242,-573,cs)
);
}
);
width = 630;
},
{
layerId = "D0EC06BF-13F9-4C88-A6F5-B8203AF6C77E";
shapes = (
{
closed = 1;
nodes = (
(164,-570,o),
(391,-423,o),
(431,-175,cs),
(696,1421,ls),
(739,1683,o),
(599,1810,o),
(382,1810,cs),
(195,1810,o),
(93,1716,o),
(47,1640,c),
(36,1640,l),
(88,1956,l),
(-282,1956,l),
(-375,1396,l),
(-4,1396,l),
(-2,1404,ls),
(12,1492,o),
(84,1537,o),
(170,1537,cs),
(264,1537,o),
(311,1481,o),
(298,1404,cs),
(39,-162,ls),
(26,-242,o),
(-36,-288,o),
(-132,-288,cs),
(-226,-288,o),
(-274,-242,o),
(-260,-162,cs),
(-249,-92,l),
(-643,-92,l),
(-657,-175,ls),
(-698,-423,o),
(-520,-570,o),
(-178,-570,cs)
);
}
);
width = 694;
}
);
production = uni17C0;
script = khmer;
subCategory = Other;
unicode = 6080;
}
{
category = Letter;
glyphname = "eSign-khmer";
kernRight = KH_E;
layers = (
{
anchors = (
{
name = top_part;
pos = (367,1234);
}
);
layerId = "200BE2C5-40F6-4CF4-AF4F-A33C0CC0964F";
shapes = (
{
closed = 1;
nodes = (
(204,0,ls),
(317,0,o),
(399,69,o),
(418,180,cs),
(438,304,o),
(379,374,o),
(266,374,cs),
(226,374,l),
(245,350,l),
(335,896,ls),
(339,917,o),
(331,925,o),
(316,932,cs),
(204,984,l),
(214,963,l),
(228,1048,ls),
(245,1150,o),
(303,1187,o),
(388,1187,cs),
(498,1187,l),
(506,1234,l),
(396,1234,ls),
(283,1234,o),
(207,1180,o),
(184,1048,cs),
(169,952,l),
(289,896,l),
(140,0,l)
);
},
{
closed = 1;
nodes = (
(192,41,l),
(241,333,l),
(263,333,ls),
(349,333,o),
(391,277,o),
(377,187,cs),
(362,98,o),
(298,41,o),
(211,41,cs)
);
}
);
width = 589;
},
{
anchors = (
{
name = top_part;
pos = (419,1234);
}
);
layerId = "11F4534A-B963-4AB5-820F-DAF9A20CD933";
shapes = (
{
closed = 1;
nodes = (
(290,0,ls),
(420,0,o),
(506,65,o),
(528,196,cs),
(549,325,o),
(488,413,o),
(359,413,cs),
(330,413,l),
(351,379,l),
(425,821,ls),
(432,864,o),
(421,880,o),
(381,899,cs),
(279,947,l),
(292,887,l),
(305,966,ls),
(317,1042,o),
(358,1077,o),
(431,1077,cs),
(578,1077,l),
(604,1234,l),
(450,1234,ls),
(285,1234,o),
(193,1158,o),
(164,984,cs),
(143,863,l),
(255,807,l),
(122,0,l)
);
},
{
closed = 1;
nodes = (
(297,111,l),
(330,310,l),
(343,310,ls),
(394,310,o),
(423,270,o),
(413,210,cs),
(403,152,o),
(362,111,o),
(314,111,cs)
);
}
);
width = 665;
},
{
anchors = (
{
name = top_part;
pos = (491,1234);
}
);
layerId = "D0EC06BF-13F9-4C88-A6F5-B8203AF6C77E";
shapes = (
{
closed = 1;
nodes = (
(347,0,ls),
(514,0,o),
(604,63,o),
(626,195,cs),
(648,330,o),
(582,414,o),
(454,414,cs),
(432,414,l),
(514,357,l),
(569,685,ls),
(580,750,o),
(552,771,o),
(499,789,cs),
(343,843,l),
(374,736,l),
(392,843,ls),
(398,878,o),
(421,895,o),
(464,895,cs),
(666,895,l),
(722,1234,l),
(501,1234,ls),
(237,1234,o),
(147,1094,o),
(114,899,cs),
(87,735,l),
(175,691,l),
(61,0,l)
);
},
{
closed = 1;
nodes = (
(362,138,l),
(386,282,l),
(397,282,ls),
(435,282,o),
(456,252,o),
(449,210,cs),
(442,168,o),
(412,138,o),
(375,138,cs)
);
}
);
width = 741;
}
);
production = uni17C1;
script = khmer;
subCategory = Other;
unicode = 6081;
}
{
category = Letter;
glyphname = "aeSign-khmer";
kernRight = KH_E;
layers = (
{
anchors = (
{
name = _top_part;
pos = (367,1234);
}
);
layerId = "200BE2C5-40F6-4CF4-AF4F-A33C0CC0964F";
shapes = (
{
closed = 1;
nodes = (
(533,1366,o),
(670,1485,o),
(701,1676,cs),
(726,1828,l),
(681,1828,l),
(656,1676,ls),
(629,1510,o),
(512,1412,o),
(366,1412,cs),
(259,1412,o),
(199,1476,o),
(215,1572,cs),
(231,1663,o),
(305,1724,o),
(403,1724,cs),
(425,1724,l),
(433,1770,l),
(407,1770,ls),
(287,1770,o),
(191,1690,o),
(172,1579,cs),
(150,1450,o),
(228,1366,o),
(366,1366,cs)
);
},
{
ref = "eSign-khmer";
}
);
width = 589;
},
{
anchors = (
{
name = _top_part;
pos = (419,1234);
}
);
layerId = "11F4534A-B963-4AB5-820F-DAF9A20CD933";
shapes = (
{
closed = 1;
nodes = (
(605,1355,o),
(752,1475,o),
(779,1644,cs),
(819,1886,l),
(667,1886,l),
(628,1652,ls),
(612,1558,o),
(538,1490,o),
(438,1490,cs),
(362,1490,o),
(315,1529,o),
(325,1592,cs),
(334,1643,o),
(376,1682,o),
(429,1682,cs),
(448,1682,l),
(471,1818,l),
(451,1818,ls),
(300,1818,o),
(195,1730,o),
(173,1596,cs),
(148,1447,o),
(247,1355,o),
(414,1355,cs)
);
},
{
ref = "eSign-khmer";
}
);
width = 665;
},
{
anchors = (
{
name = _top_part;
pos = (491,1234);
}
);
layerId = "D0EC06BF-13F9-4C88-A6F5-B8203AF6C77E";
shapes = (
{
closed = 1;
nodes = (
(683,1321,o),
(870,1428,o),
(909,1663,cs),
(950,1909,l),
(624,1909,l),
(585,1674,ls),
(568,1575,o),
(528,1537,o),
(480,1537,cs),
(445,1537,o),
(431,1558,o),
(436,1586,cs),
(440,1615,o),
(461,1634,o),
(486,1634,cs),
(490,1634,l),
(522,1826,l),
(469,1826,ls),
(298,1826,o),
(179,1738,o),
(153,1582,cs),
(125,1413,o),
(216,1321,o),
(441,1321,cs)
);
},
{
ref = "eSign-khmer";
}
);
width = 741;
}
);
production = uni17C2;
script = khmer;
subCategory = Other;
unicode = 6082;
}
{
category = Letter;
glyphname = "aiSign-khmer";
kernRight = KH_E;
layers = (
{
anchors = (
{
name = _top_part;
pos = (367,1234);
}
);
layerId = "200BE2C5-40F6-4CF4-AF4F-A33C0CC0964F";
shapes = (
{
closed = 1;
nodes = (
(506,1366,o),
(594,1441,o),
(613,1553,cs),
(632,1670,o),
(566,1745,o),
(445,1745,cs),
(303,1745,l),
(330,1909,l),
(285,1909,l),
(250,1700,l),
(437,1700,ls),
(532,1700,o),
(583,1644,o),
(569,1560,cs),
(554,1471,o),
(483,1412,o),
(390,1412,cs),
(349,1412,o),
(305,1426,o),
(274,1441,c),
(266,1392,l),
(309,1375,o),
(354,1366,o),
(390,1366,cs)
);
},
{
ref = "eSign-khmer";
}
);
width = 589;
},
{
anchors = (
{
name = _top_part;
pos = (419,1234);
}
);
layerId = "11F4534A-B963-4AB5-820F-DAF9A20CD933";
shapes = (
{
closed = 1;
nodes = (
(572,1359,o),
(678,1448,o),
(703,1594,cs),
(725,1731,o),
(661,1822,o),
(517,1822,cs),
(412,1822,l),
(434,1956,l),
(276,1956,l),
(231,1684,l),
(441,1684,ls),
(514,1684,o),
(553,1648,o),
(544,1590,cs),
(533,1532,o),
(482,1496,o),
(418,1496,cs),
(381,1496,o),
(341,1508,o),
(314,1520,c),
(291,1380,l),
(333,1366,o),
(375,1359,o),
(418,1359,cs)
);
},
{
ref = "eSign-khmer";
}
);
width = 665;
},
{
anchors = (
{
name = _top_part;
pos = (491,1234);
}
);
layerId = "D0EC06BF-13F9-4C88-A6F5-B8203AF6C77E";
shapes = (
{
closed = 1;
nodes = (
(696,1334,o),
(811,1407,o),
(840,1580,cs),
(866,1738,o),
(800,1840,o),
(621,1840,cs),
(588,1840,l),
(607,1956,l),
(269,1956,l),
(219,1653,l),
(446,1653,ls),
(486,1653,o),
(505,1629,o),
(498,1588,cs),
(492,1550,o),
(471,1527,o),
(434,1527,cs),
(413,1527,o),
(379,1534,o),
(363,1541,c),
(331,1350,l),
(386,1338,o),
(443,1334,o),
(493,1334,cs)
);
},
{
ref = "eSign-khmer";
}
);
width = 741;
}
);
production = uni17C3;
script = khmer;
subCategory = Other;
unicode = 6083;
}
{
category = Letter;
glyphname = "auSign-khmer";
layers = (
{
layerId = "200BE2C5-40F6-4CF4-AF4F-A33C0CC0964F";
shapes = (
{
closed = 1;
nodes = (
(432,1221,o),
(499,1307,o),
(525,1457,cs),
(560,1676,l),
(515,1676,l),
(480,1457,ls),
(458,1327,o),
(414,1268,o),
(332,1200,c),
(352,1165,l)
);
},
{
ref = "aaSign-khmer";
}
);
width = 586;
},
{
layerId = "11F4534A-B963-4AB5-820F-DAF9A20CD933";
shapes = (
{
closed = 1;
nodes = (
(480,1194,o),
(555,1292,o),
(581,1444,cs),
(618,1676,l),
(455,1676,l),
(416,1437,ls),
(397,1317,o),
(352,1247,o),
(275,1174,c),
(389,1137,l)
);
},
{
ref = "aaSign-khmer";
}
);
width = 626;
},
{
layerId = "D0EC06BF-13F9-4C88-A6F5-B8203AF6C77E";
shapes = (
{
closed = 1;
nodes = (
(586,1150,o),
(672,1268,o),
(699,1423,cs),
(740,1676,l),
(362,1676,l),
(317,1404,ls),
(300,1300,o),
(257,1213,o),
(199,1132,c),
(476,1089,l)
);
},
{
ref = "aaSign-khmer";
}
);
width = 675;
}
);
script = khmer;
subCategory = Other;
unicode = 6085;
}
{
category = Mark;
glyphname = "nikahit-khmer";
layers = (
{
anchors = (
{
name = _top;
pos = (331,1234);
}
);
background = {
anchors = (
{
name = _top;
pos = (367,1234);
}
);
shapes = (
{
closed = 1;
nodes = (
(505,1458,o),
(585,1529,o),
(602,1631,cs),
(619,1734,o),
(562,1805,o),
(462,1805,cs),
(361,1805,o),
(280,1734,o),
(263,1631,cs),
(246,1529,o),
(304,1458,o),
(404,1458,cs)
);
},
{
closed = 1;
nodes = (
(336,1500,o),
(294,1553,o),
(307,1631,cs),
(320,1709,o),
(379,1762,o),
(454,1762,cs),
(529,1762,o),
(571,1709,o),
(558,1631,cs),
(546,1553,o),
(486,1500,o),
(411,1500,cs)
);
}
);
};
layerId = "200BE2C5-40F6-4CF4-AF4F-A33C0CC0964F";
shapes = (
{
closed = 1;
nodes = (
(472,1444,o),
(547,1513,o),
(563,1608,cs),
(581,1707,o),
(530,1790,o),
(421,1790,cs),
(318,1790,o),
(243,1720,o),
(227,1626,cs),
(209,1527,o),
(260,1444,o),
(369,1444,cs)
);
},
{
closed = 1;
nodes = (
(297,1486,o),
(257,1540,o),
(269,1618,cs),
(283,1700,o),
(348,1748,o),
(417,1748,cs),
(492,1748,o),
(534,1692,o),
(520,1615,cs),
(506,1535,o),
(444,1486,o),
(372,1486,cs)
);
}
);
width = 439;
},
{
anchors = (
{
name = _top;
pos = (402,1234);
}
);
background = {
shapes = (
{
closed = 1;
nodes = (
(576,1452,o),
(692,1548,o),
(714,1679,cs),
(736,1813,o),
(648,1924,o),
(506,1924,cs),
(371,1924,o),
(258,1827,o),
(236,1697,cs),
(214,1562,o),
(299,1452,o),
(444,1452,cs)
);
},
{
closed = 1;
nodes = (
(396,1576,o),
(357,1625,o),
(368,1688,cs),
(378,1751,o),
(431,1800,o),
(491,1800,cs),
(554,1800,o),
(593,1752,o),
(582,1688,cs),
(572,1625,o),
(519,1576,o),
(459,1576,cs)
);
}
);
};
layerId = "11F4534A-B963-4AB5-820F-DAF9A20CD933";
shapes = (
{
closed = 1;
nodes = (
(575,1444,o),
(693,1539,o),
(714,1670,cs),
(737,1805,o),
(650,1915,o),
(509,1915,cs),
(372,1915,o),
(259,1819,o),
(237,1689,cs),
(215,1553,o),
(299,1444,o),
(442,1444,cs)
);
},
{
closed = 1;
nodes = (
(399,1570,o),
(362,1618,o),
(372,1679,cs),
(382,1741,o),
(434,1789,o),
(494,1789,cs),
(553,1789,o),
(590,1741,o),
(579,1679,cs),
(570,1618,o),
(517,1570,o),
(458,1570,cs)
);
}
);
width = 580;
},
{
anchors = (
{
name = _top;
pos = (480,1234);
}
);
layerId = "D0EC06BF-13F9-4C88-A6F5-B8203AF6C77E";
shapes = (
{
closed = 1;
nodes = (
(712,1381,o),
(840,1485,o),
(867,1648,cs),
(895,1815,o),
(810,1944,o),
(589,1944,cs),
(383,1944,o),
(262,1842,o),
(235,1678,cs),
(207,1511,o),
(285,1381,o),
(512,1381,cs)
);
},
{
closed = 1;
nodes = (
(493,1576,o),
(467,1611,o),
(475,1663,cs),
(484,1714,o),
(522,1749,o),
(565,1749,cs),
(609,1749,o),
(634,1714,o),
(626,1663,cs),
(618,1611,o),
(581,1576,o),
(537,1576,cs)
);
}
);
width = 737;
}
);
metricRight = "=|";
script = khmer;
subCategory = Nonspacing;
unicode = 6086;
}
{
category = Letter;
glyphname = "reahmuk-khmer";
layers = (
{
layerId = "200BE2C5-40F6-4CF4-AF4F-A33C0CC0964F";
shapes = (
{
closed = 1;
nodes = (
(455,873,o),
(546,952,o),
(561,1046,cs),
(579,1155,o),
(514,1234,o),
(415,1234,cs),
(317,1234,o),
(226,1155,o),
(210,1061,cs),
(192,952,o),
(257,873,o),
(356,873,cs)
);
},
{
closed = 1;
nodes = (
(285,915,o),
(239,976,o),
(252,1054,cs),
(266,1134,o),
(340,1192,o),
(415,1192,cs),
(485,1192,o),
(531,1131,o),
(519,1054,cs),
(507,979,o),
(435,915,o),
(355,915,cs)
);
},
{
closed = 1;
nodes = (
(310,0,o),
(401,79,o),
(416,173,cs),
(434,282,o),
(370,361,o),
(271,361,cs),
(172,361,o),
(81,282,o),
(65,188,cs),
(47,79,o),
(112,0,o),
(211,0,cs)
);
},
{
closed = 1;
nodes = (
(141,42,o),
(95,103,o),
(108,180,cs),
(119,255,o),
(191,319,o),
(271,319,cs),
(341,319,o),
(387,258,o),
(374,180,cs),
(360,100,o),
(287,42,o),
(211,42,cs)
);
}
);
width = 637;
},
{
layerId = "11F4534A-B963-4AB5-820F-DAF9A20CD933";
shapes = (
{
closed = 1;
nodes = (
(490,811,o),
(603,899,o),
(623,1018,cs),
(643,1139,o),
(558,1240,o),
(429,1240,cs),
(304,1240,o),
(193,1151,o),
(173,1033,cs),
(153,911,o),
(236,811,o),
(367,811,cs)
);
},
{
closed = 1;
nodes = (
(333,931,o),
(299,972,o),
(308,1025,cs),
(317,1078,o),
(364,1120,o),
(414,1120,cs),
(465,1120,o),
(497,1078,o),
(488,1025,cs),
(480,972,o),
(434,931,o),
(383,931,cs)
);
},
{
closed = 1;
nodes = (
(355,-6,o),
(469,83,o),
(488,202,cs),
(509,323,o),
(423,423,o),
(294,423,cs),
(169,423,o),
(58,335,o),
(39,216,cs),
(18,95,o),
(101,-6,o),
(232,-6,cs)
);
},
{
closed = 1;
nodes = (
(197,114,o),
(164,155,o),
(173,209,cs),
(182,261,o),
(228,303,o),
(279,303,cs),
(329,303,o),
(363,263,o),
(354,209,cs),
(345,156,o),
(298,114,o),
(247,114,cs)
);
}
);
width = 646;
},
{
layerId = "D0EC06BF-13F9-4C88-A6F5-B8203AF6C77E";
shapes = (
{
closed = 1;
nodes = (
(596,694,o),
(734,793,o),
(760,953,cs),
(787,1113,o),
(707,1241,o),
(497,1241,cs),
(300,1241,o),
(170,1145,o),
(143,982,cs),
(117,824,o),
(189,694,o),
(407,694,cs)
);
},
{
closed = 1;
nodes = (
(397,887,o),
(371,920,o),
(379,968,cs),
(387,1015,o),
(423,1049,o),
(466,1049,cs),
(508,1049,o),
(532,1016,o),
(524,968,cs),
(516,920,o),
(482,887,o),
(439,887,cs)
);
},
{
closed = 1;
nodes = (
(480,-7,o),
(617,92,o),
(644,252,cs),
(670,412,o),
(591,540,o),
(381,540,cs),
(184,540,o),
(55,443,o),
(28,281,cs),
(1,123,o),
(73,-7,o),
(290,-7,cs)
);
},
{
closed = 1;
nodes = (
(279,186,o),
(255,218,o),
(263,266,cs),
(271,314,o),
(306,347,o),
(349,347,cs),
(393,347,o),
(416,314,o),
(408,266,cs),
(400,218,o),
(366,186,o),
(322,186,cs)
);
}
);
width = 781;
}
);
script = khmer;
subCategory = Other;
unicode = 6087;
}
{
category = Letter;
glyphname = "yuukaleapintu-khmer";
layers = (
{
layerId = "200BE2C5-40F6-4CF4-AF4F-A33C0CC0964F";
shapes = (
{
closed = 1;
nodes = (
(326,1013,o),
(363,1046,o),
(370,1089,cs),
(377,1131,o),
(351,1164,o),
(310,1164,cs),
(269,1164,o),
(231,1131,o),
(225,1089,cs),
(218,1046,o),
(244,1013,o),
(285,1013,cs)
);
},
{
closed = 1;
nodes = (
(170,70,o),
(207,103,o),
(214,146,cs),
(221,188,o),
(194,221,o),
(154,221,cs),
(113,221,o),
(76,188,o),
(68,146,cs),
(62,103,o),
(88,70,o),
(129,70,cs)
);
}
);
width = 454;
},
{
layerId = "11F4534A-B963-4AB5-820F-DAF9A20CD933";
shapes = (
{
closed = 1;
nodes = (
(376,945,o),
(440,1001,o),
(452,1071,cs),
(463,1142,o),
(418,1197,o),
(349,1197,cs),
(279,1197,o),
(216,1142,o),
(204,1071,cs),
(193,1000,o),
(238,945,o),
(307,945,cs)
);
},
{
closed = 1;
nodes = (
(226,37,o),
(290,92,o),
(301,163,cs),
(313,234,o),
(268,289,o),
(199,289,cs),
(130,289,o),
(65,234,o),
(54,163,cs),
(42,92,o),
(87,37,o),
(156,37,cs)
);
}
);
width = 509;
},
{
layerId = "D0EC06BF-13F9-4C88-A6F5-B8203AF6C77E";
shapes = (
{
closed = 1;
nodes = (
(459,851,o),
(557,936,o),
(575,1043,cs),
(593,1150,o),
(522,1234,o),
(415,1234,cs),
(309,1234,o),
(210,1150,o),
(192,1043,cs),
(175,936,o),
(245,851,o),
(352,851,cs)
);
},
{
closed = 1;
nodes = (
(318,0,o),
(416,84,o),
(434,191,cs),
(452,298,o),
(381,383,o),
(274,383,cs),
(167,383,o),
(69,298,o),
(52,191,cs),
(33,84,o),
(104,0,o),
(211,0,cs)
);
}
);
width = 621;
}
);
script = khmer;
subCategory = Other;
unicode = 6088;
}
